<svg width="44" height="38" viewBox="0 0 44 38" fill="none" xmlns="http://www.w3.org/2000/svg">
<path d="M39.6056 15.1317C38.9282 14.6215 38.1801 14.2126 37.3849 13.9181C38.173 12.1172 38.3305 10.1031 37.8318 8.20154C37.3331 6.30001 36.2075 4.62232 34.637 3.43987C33.0664 2.25742 31.1429 1.63938 29.1776 1.68574C27.2123 1.7321 25.3201 2.44014 23.8071 3.69532C22.6416 2.11169 20.9757 0.967707 19.0792 0.448562C17.1826 -0.0705828 15.1664 0.0654911 13.3568 0.834757C11.5472 1.60402 10.0503 2.96146 9.10823 4.68733C8.16617 6.4132 7.83417 8.4065 8.16596 10.3446C6.03806 10.5807 4.0711 11.5904 2.63882 13.1816C1.20655 14.7728 0.408777 16.8348 0.3971 18.9757C0.385422 21.1165 1.16065 23.1871 2.57548 24.7939C3.99031 26.4008 5.94615 27.4319 8.07134 27.6914L6.28169 37.9165L32.9345 37.9165L33.2912 30.7778C35.1997 31.0116 37.132 30.609 38.7883 29.6327C40.4447 28.6563 41.7325 27.1606 42.4521 25.3777C43.1716 23.5947 43.2827 21.6242 42.768 19.7716C42.2534 17.9191 41.1418 16.2881 39.6056 15.1317ZM20.9083 27.379C19.7696 27.2397 18.6695 26.8774 17.6707 26.3129C16.672 25.7483 15.7943 24.9927 15.0876 24.0889C14.3809 23.1852 13.8592 22.1512 13.5521 21.0458C13.2451 19.9405 13.1588 18.7855 13.2981 17.6468C13.421 16.6402 13.8477 15.695 14.5213 14.937C15.1949 14.1789 16.0834 13.644 17.0685 13.4036C18.0537 13.1631 19.0888 13.2284 20.0359 13.5909C20.983 13.9533 21.7973 14.5957 22.3702 15.4324C23.128 14.7585 24.0731 14.3315 25.0796 14.2081C26.0862 14.0848 27.1065 14.271 28.0046 14.7419C28.9027 15.2129 29.636 15.9462 30.107 16.8443C30.5779 17.7424 30.764 18.7627 30.6406 19.7692C30.3592 22.0689 29.1758 24.1626 27.3506 25.5897C25.5255 27.0168 23.2081 27.6605 20.9083 27.379Z" fill="#F1A800"/>
</svg>
