<svg width="108" height="144" viewBox="0 0 108 144" fill="none" xmlns="http://www.w3.org/2000/svg">
<path d="M12.1611 109.07C12.5967 110.946 12.3893 112.875 11.9597 114.715C11.7404 115.314 11.1182 116.367 10.8131 116.964C9.66645 119.249 7.16287 123.589 7.96579 126.084C8.55836 127.477 9.94791 129.367 10.7538 130.672C11.9034 132.439 12.9433 134.175 13.444 136.087C14.0662 138.2 13.7907 139.234 11.3167 139.641C9.89099 139.825 8.44751 139.854 7.01472 139.728L2.52901 139.449L1.02687 139.387L1.0091 139.496L6.93474 140.316C10.0487 140.723 15.7254 141.057 14.6647 136.578C14.4093 135.179 13.9245 133.826 13.2278 132.567C12.3389 130.895 11.2397 129.306 10.1849 127.712C9.71978 126.914 9.05018 126.156 8.92278 125.236C8.86352 123.372 9.70496 121.585 10.3834 119.863C10.9168 118.6 11.5686 117.234 12.1611 115.983C12.3864 115.556 12.546 115.102 12.6352 114.634C12.8782 112.772 12.9582 110.829 12.2856 109.031L12.1789 109.076L12.1611 109.07Z" fill="black"/>
<path d="M107.196 31.2314C107.196 31.2314 65.5886 26.3843 52.4219 18.8141C52.4219 18.8141 53.9388 6.5501 49.3998 0C49.3998 0 45.6192 0.426443 38.8107 11.2439C32.0021 22.0613 28.6719 29.4615 30.6273 39.2811C32.5828 49.1006 34.562 57.5294 34.562 57.5294C34.562 57.5294 -1.74741 131.37 0.065834 139.475C1.87908 147.581 77.831 142.324 77.831 142.324C77.831 142.324 109.148 97.8138 101.433 78.2165C93.7177 58.6192 73.7453 54.0704 73.7453 54.0704C73.7453 54.0704 57.8616 47.1022 55.441 46.2437C53.0204 45.3852 73.0342 52.3757 81.8634 49.5159C90.6926 46.6562 104.775 44.8166 107.196 31.2314Z" fill="#DBEF98"/>
<path d="M56.4229 46.0806C56.4229 46.0806 53.0216 43.5052 52.4231 44.5504C51.8246 45.5956 51.2173 48.9153 57.1636 52.1402C61.7886 54.6487 73.3258 56.8785 84.4542 63.568C91.0574 67.5323 95.9623 73.5609 98.3054 80.5927C99.7702 85.0993 100.853 89.7081 101.544 94.3758L102.047 98.6458C102.047 98.6458 105.982 81.5543 102.047 75.439C98.1128 69.3237 97.1054 61.9263 75.1183 53.7651L56.4229 46.0806Z" fill="#9DBB39"/>
<path d="M55.5549 27.8899V27.8711C55.5564 27.874 55.5571 27.8772 55.5571 27.8805C55.5571 27.8838 55.5564 27.887 55.5549 27.8899Z" fill="#1D1D1D"/>
<path d="M56.125 28.4766C56.1224 28.4801 56.121 28.4844 56.121 28.4887C56.121 28.4931 56.1224 28.4974 56.125 28.5009C56.125 28.5009 56.1059 28.5009 56.125 28.4766Z" fill="#1D1D1D"/>
<path d="M53.7375 26.8672H53.7822C53.7822 26.8672 53.7375 26.8732 53.7375 26.8672Z" fill="#1D1D1D"/>
<path d="M53.8131 26.3965C53.8142 26.4053 53.8142 26.4142 53.8131 26.4231C53.8099 26.4194 53.8081 26.4146 53.8081 26.4098C53.8081 26.4049 53.8099 26.4002 53.8131 26.3965Z" fill="#1D1D1D"/>
<path d="M58.5665 25.6267C58.5665 25.6099 58.5934 25.593 58.6172 25.5762L58.5665 25.6267Z" fill="#1D1D1D"/>
<path d="M53.8139 27.1836C53.7901 27.2201 53.8497 27.2229 53.8139 27.2454C53.811 27.2257 53.7722 27.2201 53.8139 27.1836Z" fill="#1D1D1D"/>
<path d="M58.9287 25.5645H58.9066C58.9066 25.5645 58.9287 25.5676 58.9287 25.5645Z" fill="#1D1D1D"/>
<path d="M58.3096 28.9512L58.2898 28.97C58.2898 28.97 58.2964 28.9543 58.3096 28.9512Z" fill="#1D1D1D"/>
<path d="M56.0576 28.4396H56.0407C56.0407 28.4396 56.0576 28.4261 56.0576 28.4396Z" fill="#1D1D1D"/>
<path d="M55.7305 29.6172C55.7305 29.6172 55.7305 29.6537 55.7305 29.679C55.7305 29.7042 55.7066 29.6537 55.7305 29.6172Z" fill="#1D1D1D"/>
<path d="M55.1588 29.1464L55.1665 29.1426L55.1627 29.1464H55.1588Z" fill="#1D1D1D"/>
<path d="M57.4989 31.4308C57.2614 31.3107 57.0327 31.1757 56.8145 31.0266C56.8179 30.994 56.8126 30.9612 56.7991 30.9311C56.7857 30.9009 56.7645 30.8744 56.7375 30.8538L56.6664 30.9374L56.6457 30.8789C56.6071 30.8956 56.6664 30.9179 56.6101 30.929L56.6338 30.8649C56.6071 30.8956 56.5153 30.8092 56.5331 30.9207L56.376 30.8036C56.3405 30.7813 56.4175 30.7228 56.376 30.7116C56.3345 30.7005 56.376 30.7395 56.3434 30.7674C56.1834 30.7395 56.3671 30.511 56.2368 30.4664V30.4859C56.2368 30.4496 56.2101 30.4273 56.2368 30.4162C56.3257 30.3465 56.2101 30.4719 56.2842 30.4496C56.3464 30.3828 56.2842 30.3827 56.3375 30.3354C56.2931 30.3354 56.3168 30.2908 56.3049 30.2713C56.2308 30.2713 56.216 30.2155 56.142 30.2462C56.142 30.2127 56.1953 30.1347 56.1686 30.1012C56.0946 30.1291 56.1242 30.1542 56.0738 30.143L56.1094 30.1012C56.0768 30.0845 56.0709 30.1012 56.0531 30.118C56.0235 30.0929 56.0857 30.0455 56.0264 30.0371L56.0057 30.0901C56.0057 30.0511 55.979 30.0483 55.9435 30.0204C55.9198 30.0399 55.9435 30.0538 55.9435 30.0566C55.8635 30.0929 55.9435 30.0009 55.9198 29.9981C55.8961 29.9953 55.9731 29.9981 55.9998 29.9535C55.9761 29.9535 56.0205 29.8699 55.9612 29.9005L55.9405 29.9535C55.9405 29.8922 55.9731 29.8922 55.9168 29.8643C55.9168 29.8643 55.9168 29.8643 55.899 29.8866C55.9257 29.8141 55.8457 29.8253 55.8072 29.789V29.8058C55.8072 29.7807 55.8338 29.7417 55.8249 29.7361C55.8694 29.7361 55.8753 29.7194 55.9168 29.6887C55.822 29.7166 55.9553 29.5772 55.8724 29.5689C55.8487 29.5884 55.8279 29.6246 55.8724 29.6135C55.8161 29.6887 55.7598 29.7417 55.7538 29.7974C55.7538 29.7668 55.7538 29.7361 55.7183 29.7668L55.7775 29.7054L55.7509 29.6804C55.7864 29.6413 55.8368 29.6469 55.8427 29.5995C55.8486 29.5521 55.7598 29.6413 55.7864 29.5995C55.8131 29.5577 55.8427 29.5271 55.7864 29.5075C55.7864 29.5075 55.7864 29.5326 55.7864 29.5298C55.7361 29.5298 55.739 29.4574 55.6531 29.5131C55.6531 29.5326 55.6146 29.5521 55.6324 29.5577C55.5998 29.633 55.6324 29.5215 55.5612 29.5884C55.6057 29.5549 55.5613 29.527 55.5376 29.5159L55.5939 29.4825C55.6916 29.3069 55.499 29.5633 55.4665 29.4825C55.4339 29.4016 55.4931 29.4825 55.5079 29.4351C55.5227 29.3877 55.425 29.4351 55.4161 29.3905C55.3684 29.3952 55.3232 29.4126 55.2857 29.4406C55.2857 29.4016 55.2027 29.3933 55.2472 29.3403C55.3272 29.3403 55.2205 29.4211 55.3302 29.4072L55.3746 29.3542C55.3479 29.3264 55.342 29.2678 55.3035 29.2623C55.319 29.2566 55.3331 29.2481 55.345 29.2372C55.3272 29.1786 55.3716 29.1257 55.3213 29.0978C55.265 29.1313 55.2946 29.148 55.3213 29.1675C55.2561 29.1675 55.2946 29.1424 55.2413 29.1145C55.1939 29.1452 55.2679 29.1396 55.2413 29.1786L55.2146 29.1229C55.2827 29.0616 55.1791 29.0922 55.1791 29.0476C55.1228 28.9835 55.2146 28.8971 55.2442 28.8191C55.2315 28.8199 55.219 28.8233 55.2077 28.8291C55.1965 28.8349 55.1867 28.8429 55.1791 28.8525C55.2265 28.8525 55.1968 28.8525 55.1791 28.8804C55.1791 28.8525 55.0665 28.8804 55.0457 28.9194C55.0457 28.8692 55.0961 28.9027 55.102 28.8637L55.0576 28.8191C55.0991 28.7968 55.1228 28.8191 55.1317 28.7633C55.1405 28.7076 55.1079 28.7299 55.0813 28.702C55.0813 28.7215 55.0161 28.7355 55.0368 28.755C55.0102 28.755 54.9924 28.7327 55.022 28.6964C55.0517 28.6602 55.022 28.624 55.0961 28.6045H55.0339C55.0339 28.6045 55.0161 28.6296 55.0339 28.6351C54.9687 28.6658 55.0339 28.5961 55.0339 28.5822C55.0339 28.5682 54.9865 28.5543 54.9628 28.5822C54.9391 28.61 54.9391 28.5487 54.9065 28.5627C54.8739 28.5766 54.945 28.5348 54.9598 28.518L54.9154 28.4735C54.8655 28.4991 54.8197 28.5309 54.7791 28.5682C54.7969 28.5292 54.8709 28.4958 54.8472 28.4679C54.7968 28.5292 54.7672 28.4679 54.7109 28.5404C54.6997 28.5433 54.688 28.5438 54.6765 28.5419C54.6651 28.54 54.6542 28.5356 54.6448 28.5292C54.6354 28.5228 54.6277 28.5144 54.6222 28.5047C54.6167 28.4951 54.6136 28.4844 54.6132 28.4735C54.6517 28.4205 54.6635 28.4735 54.7139 28.4428C54.6783 28.3592 54.8176 28.2561 54.7524 28.2198H54.7791C54.776 28.1859 54.7866 28.1521 54.8087 28.125C54.7494 28.178 54.6043 28.2059 54.5776 28.1418C54.6072 28.1167 54.6635 28.1418 54.708 28.0888L54.6902 28.047C54.6902 28.047 54.6902 28.047 54.6695 28.0693C54.6695 28.0219 54.542 28.0693 54.6102 28.0052L54.4887 28.0359L54.5391 28.0219C54.5687 27.9968 54.5391 27.9522 54.5598 27.9383C54.5598 27.877 54.5302 27.8826 54.4739 27.8881C54.5065 27.8881 54.5776 27.8547 54.5657 27.8185C54.462 27.8881 54.4828 27.7822 54.4295 27.8185C54.4295 27.8185 54.3732 27.8184 54.4295 27.7766L54.3643 27.8212C54.4561 27.7599 54.4206 27.7209 54.4117 27.6763C54.2932 27.7655 54.3939 27.6345 54.2695 27.693C54.3524 27.6317 54.2695 27.6122 54.3287 27.562C54.3287 27.5341 54.2369 27.5871 54.2043 27.5983L54.228 27.5648C54.1806 27.5648 54.1391 27.5342 54.0917 27.523L54.148 27.4477H54.1065C54.1243 27.4477 54.1065 27.4032 54.1569 27.4004C54.2398 27.3446 54.1569 27.3641 54.1806 27.314C54.1625 27.3175 54.1465 27.3275 54.1361 27.3418C54.1361 27.3279 54.0887 27.3613 54.0532 27.3725C54.0828 27.3725 54.1658 27.2276 54.2309 27.2415C54.2961 27.2554 54.2754 27.1857 54.2517 27.1802L54.1687 27.2192L54.2369 27.1523C54.2369 27.1244 54.1776 27.1523 54.1569 27.1328C54.1361 27.1133 54.0413 27.2638 54.0087 27.2136C54.0087 27.2443 53.985 27.2833 53.9791 27.3056C53.9732 27.3279 53.9584 27.3056 53.9376 27.3335C53.9376 27.2805 53.9732 27.2917 53.9584 27.2498C53.8932 27.2917 53.8636 27.2972 53.8162 27.2777H53.8843V27.261C53.8843 27.261 53.911 27.261 53.9376 27.261C53.9643 27.261 53.991 27.169 53.9376 27.1857C54.068 27.1579 53.9761 27.0715 54.0532 27.0575C54.071 27.0408 54.0532 27.0129 54.0206 27.0324C53.9939 27.0938 53.9287 27.0547 53.8873 27.0882C53.8873 27.0659 53.9525 27.0882 53.9673 27.052C53.9821 27.0157 53.908 27.052 53.8813 27.052H53.831C53.8636 27.0269 53.908 27.0519 53.908 27.0073C53.908 26.9628 53.8873 26.9711 53.8606 26.9878C53.8339 27.0046 53.7569 27.0575 53.7599 27.0882C53.7599 27.0659 53.7184 27.0018 53.7984 26.9878L53.7806 26.9683C53.8191 26.9683 53.8961 26.9683 53.8754 26.9209L53.905 26.8596H53.8606C53.8784 26.8596 53.8902 26.8345 53.8813 26.8234C53.8724 26.8122 53.8428 26.8234 53.8162 26.8457C53.7984 26.8094 53.8339 26.7927 53.8517 26.776C53.8695 26.7593 53.8221 26.7565 53.7895 26.79C53.7628 26.7704 53.7421 26.7203 53.6947 26.7258C53.6947 26.6729 53.7125 26.7258 53.7451 26.6757C53.6058 26.7175 53.6236 26.5921 53.5999 26.5279C53.7154 26.4806 53.5999 26.5056 53.6917 26.4388C53.665 26.4694 53.5762 26.4387 53.5791 26.5001V26.4638C53.508 26.4778 53.5791 26.5391 53.4695 26.553C53.4517 26.5196 53.5495 26.4304 53.4843 26.4137C53.4191 26.4694 53.4843 26.3691 53.4162 26.4137C53.3925 26.4387 53.4162 26.4443 53.4162 26.4583H53.3984C53.3273 26.3969 53.4695 26.3858 53.4962 26.3189C53.4754 26.2687 53.4132 26.3189 53.3776 26.3356C53.3421 26.3523 53.3539 26.3078 53.3776 26.2855C53.351 26.3384 53.4577 26.3078 53.4962 26.2687C53.3984 26.2966 53.4458 26.2046 53.4695 26.174C53.5999 26.174 53.5021 26.2158 53.6384 26.2185C53.6176 26.2436 53.5406 26.2855 53.5969 26.3022C53.6177 26.2576 53.6384 26.2799 53.6562 26.2799C53.6088 26.2966 53.6562 26.3133 53.6562 26.3356C53.6976 26.3356 53.7421 26.2548 53.7836 26.2799L53.6858 26.3468C53.7095 26.3468 53.7569 26.2966 53.751 26.3468C53.7924 26.2994 53.8369 26.3022 53.825 26.2548C53.9465 26.2548 53.825 26.3551 53.825 26.4137L53.8458 26.3914C53.825 26.4137 53.8458 26.4276 53.8458 26.4443C53.8458 26.461 53.8784 26.3969 53.911 26.3858L53.9347 26.4276C53.9347 26.4471 53.9347 26.461 53.9524 26.4499C53.9702 26.4387 54.0087 26.3942 54.0295 26.3691L53.988 26.4555C54.0176 26.4304 54.068 26.4555 54.071 26.4109L54.1006 26.4806L54.1717 26.4443C54.1717 26.4666 54.1717 26.475 54.1361 26.4611C54.1658 26.475 54.0828 26.6283 54.2073 26.5363C54.1865 26.6171 54.2073 26.6227 54.225 26.7008C54.2576 26.6171 54.3406 26.7007 54.3376 26.6394C54.388 26.6394 54.3169 26.7007 54.3198 26.7286C54.3452 26.7255 54.3693 26.7161 54.3896 26.7015C54.4099 26.6868 54.4257 26.6673 54.4354 26.645V26.6896L54.4117 26.7342C54.465 26.7342 54.4828 26.698 54.5094 26.7175L54.4532 26.7593H54.5006C54.468 26.7593 54.468 26.7927 54.4739 26.815H54.4887V26.8429C54.5094 26.7983 54.5154 26.8429 54.5509 26.8178C54.5687 26.8345 54.5509 26.8373 54.5806 26.8764L54.5332 26.8959C54.5332 26.9628 54.5954 26.8596 54.625 26.8959L54.5776 26.9237C54.6932 26.9237 54.5954 27.038 54.6724 27.0436C54.6724 27.0157 54.7257 26.9851 54.7139 26.9962C54.702 27.0074 54.7702 27.0826 54.7376 27.1523C54.8146 27.1216 54.8354 27.1133 54.8917 27.1272C54.8917 27.1551 54.8917 27.1634 54.868 27.1969C54.9094 27.1969 54.9035 27.2722 54.9539 27.2443C54.9183 27.2749 54.9776 27.261 54.9539 27.2944H54.9776L54.9302 27.3223C55.0635 27.2972 54.9302 27.4338 55.0457 27.4171V27.4004V27.431C55.065 27.4178 55.0829 27.4029 55.099 27.3864L55.1702 27.4645H55.1228C55.1228 27.484 55.0961 27.5258 55.1405 27.5258C55.185 27.4477 55.1613 27.5537 55.2205 27.5258V27.4951C55.2205 27.523 55.2205 27.523 55.185 27.5509C55.185 27.5955 55.2887 27.5146 55.262 27.5787L55.2442 27.5592C55.2117 27.5592 55.185 27.6094 55.1968 27.6233C55.2087 27.6373 55.2353 27.6233 55.2324 27.6038C55.2324 27.6401 55.2857 27.6624 55.2768 27.6847C55.2679 27.707 55.2176 27.6373 55.2176 27.6373C55.2176 27.7153 55.2442 27.654 55.2442 27.7348L55.2709 27.7153L55.2531 27.7543H55.3272H55.2887C55.2887 27.7738 55.2887 27.7989 55.3183 27.8073L55.3479 27.7739C55.3657 27.838 55.4576 27.7739 55.4398 27.8686C55.4398 27.8686 55.4398 27.8519 55.4576 27.8435C55.4309 27.9272 55.5524 27.8296 55.5109 27.9244C55.5232 27.9133 55.5372 27.9039 55.5524 27.8965V27.9327L55.6027 27.8965L55.5405 27.9634L55.6027 27.9383L55.585 27.9634C55.7005 27.916 55.6472 27.9968 55.745 27.9634L55.6768 28.0052C55.5998 28.1696 55.8783 28.1167 55.8872 28.2421L55.9375 28.2059L55.9079 28.2839C55.9612 28.2839 55.9405 28.2393 55.9731 28.2282C55.9731 28.2839 55.9109 28.2979 55.9316 28.3508C55.9849 28.3508 55.9612 28.3146 55.9701 28.2923C55.9701 28.3508 56.0027 28.4317 56.0531 28.44C56.0531 28.44 56.0531 28.44 56.0353 28.44C56.0353 28.4846 56.0886 28.5013 56.1123 28.532C56.119 28.5278 56.1242 28.5219 56.1274 28.515C56.1305 28.508 56.1315 28.5004 56.1301 28.493C56.1301 28.493 56.1686 28.493 56.1538 28.532L56.1864 28.4874C56.216 28.5041 56.2131 28.5766 56.2694 28.5431C56.2457 28.5431 56.2101 28.585 56.2308 28.6017C56.3138 28.5543 56.2309 28.6797 56.3109 28.6769C56.3257 28.6602 56.3109 28.6351 56.3109 28.6407C56.3109 28.6463 56.3109 28.6825 56.3109 28.7132L56.3375 28.6853L56.3612 28.7884C56.4442 28.7383 56.4086 28.8637 56.459 28.8163C56.4857 28.8386 56.4086 28.8163 56.4264 28.8581C56.4679 28.8414 56.4264 28.8999 56.4857 28.8581L56.5034 28.8832L56.536 28.8302C56.536 28.8553 56.5094 28.9083 56.4738 28.9389C56.5153 28.9389 56.5182 28.9807 56.5686 28.9389V28.9222C56.5982 28.9863 56.776 28.8943 56.7316 29.0003C56.7316 29.0003 56.7523 28.9863 56.7316 28.9807L56.7642 29.0086L56.7908 28.9696V29.0672L56.8145 29.0448C56.8595 29.0812 56.8976 29.1246 56.9271 29.1731V29.1591C56.9271 29.2344 56.9923 29.1814 56.9982 29.2344L57.0278 29.2623L57.0427 29.2372C57.016 29.3041 57.1701 29.2372 57.1138 29.2595C57.1096 29.2967 57.0975 29.3327 57.0782 29.3654C57.1079 29.3988 57.1138 29.3459 57.1523 29.3459C57.1908 29.3459 57.1523 29.4072 57.1967 29.4156L57.2175 29.3933C57.2175 29.41 57.2175 29.4351 57.2412 29.4546V29.4379C57.2412 29.5131 57.3478 29.4072 57.2826 29.5271C57.3123 29.5271 57.3271 29.5577 57.3686 29.5103C57.3816 29.5648 57.4025 29.6173 57.4308 29.6664C57.5019 29.594 57.4308 29.6664 57.4989 29.6664L57.4634 29.7054C57.5197 29.7584 57.6678 29.7054 57.7152 29.75L57.7478 29.7082L57.7271 29.764C57.7962 29.778 57.8645 29.7957 57.9315 29.8169C57.9315 29.8448 57.9137 29.9089 57.9315 29.895C57.9315 29.9312 57.9522 29.9591 57.97 29.9284V29.8671V29.9061C57.97 29.9591 57.97 29.9061 57.97 29.8699V29.9284V29.9061V29.934V29.8615L58.0056 29.9619C58.0056 29.9368 58.0056 29.9173 58.0056 29.9061L58.0204 29.8782V29.9033C58.0411 29.9563 58.0648 29.9842 58.0619 29.9591C58.041 29.9243 58.0232 29.8879 58.0085 29.8504C58.0222 29.8737 58.034 29.8979 58.0441 29.9228C58.0648 29.9535 58.0856 29.9647 58.0767 29.9396V29.9228C58.0945 29.9228 58.0441 29.8532 58.05 29.8532C58.074 29.8764 58.0959 29.9016 58.1152 29.9284C58.136 29.9284 58.0767 29.8755 58.0737 29.8671C58.0708 29.8587 58.0945 29.8671 58.0737 29.8337C58.1804 29.9256 58.0471 29.789 58.1389 29.8615L58.0885 29.8197C58.1182 29.8432 58.1511 29.8629 58.1863 29.8782C58.1558 29.8517 58.1231 29.8275 58.0885 29.8058L58.1922 29.8643C58.1004 29.7751 58.2426 29.6692 58.1774 29.5326C58.2159 29.488 58.29 29.4351 58.287 29.3654V29.2929L58.3285 29.3515C58.3285 29.3515 58.37 29.3347 58.373 29.3208C58.347 29.2784 58.3333 29.2303 58.3333 29.1814C58.3333 29.1325 58.347 29.0844 58.373 29.0421C58.5182 29.0002 58.2574 28.9835 58.373 28.9389H58.3285C58.377 28.8823 58.4339 28.8326 58.4974 28.7912C58.3611 28.7912 58.4974 28.7494 58.4352 28.7466H58.4767C58.447 28.7299 58.4382 28.6937 58.3967 28.6964L58.4678 28.6714H58.4115C58.4115 28.6323 58.4678 28.5515 58.3522 28.5208C58.3901 28.4668 58.415 28.4056 58.4253 28.3416C58.4355 28.2776 58.4308 28.2123 58.4115 28.1501C58.4287 28.1436 58.4435 28.1324 58.454 28.1181C58.4645 28.1037 58.4704 28.0868 58.4707 28.0693L58.4026 28.0386C58.4233 28.008 58.5093 27.9801 58.4678 27.9522H58.45C58.4648 27.9216 58.4293 27.8937 58.4915 27.8658C58.4915 27.8352 58.453 27.8017 58.3878 27.8129C58.5004 27.8129 58.3878 27.7432 58.3878 27.7432C58.3878 27.7432 58.3226 27.3307 58.3019 26.8568C58.2811 26.383 58.3019 25.8562 58.5981 25.6165C58.6515 25.597 58.6811 25.5552 58.7492 25.5608C58.7641 25.5301 58.6663 25.5273 58.7196 25.5162C58.7611 25.5496 58.8618 25.4855 58.9359 25.5162V25.4883C58.9744 25.4883 58.8974 25.5301 58.9655 25.5134L58.8648 25.5329C58.8852 25.5526 58.9127 25.5645 58.9418 25.5663C58.9033 25.5886 58.767 25.6165 58.8322 25.6583C58.8322 25.6973 58.9004 25.675 58.9181 25.6806L58.9744 25.7057C58.9389 25.6862 59.0159 25.636 59.0129 25.6583C59.01 25.6806 58.9863 25.6583 58.9774 25.6834C58.9685 25.7085 59.0307 25.6834 59.0603 25.6834V25.7196C59.1077 25.7196 59.0603 25.6945 59.1048 25.7057L59.0603 25.7614C59.1818 25.7614 59.007 25.82 59.1255 25.8283C59.1492 25.7921 59.1641 25.8283 59.2026 25.8283V25.9147C59.2203 25.9147 59.2381 25.8897 59.2322 25.9147C59.2263 25.9398 59.2085 25.9454 59.2085 25.9538C59.2085 25.9621 59.2085 26.0179 59.2944 26.0095C59.3537 26.0625 59.1937 26.043 59.247 26.0931C59.2944 26.0931 59.247 26.0485 59.3063 26.068V26.1266C59.33 26.1266 59.3833 26.1099 59.3715 26.0876C59.4514 26.2353 59.7151 26.3022 59.6677 26.4499C59.727 26.4638 59.7033 26.4304 59.7418 26.4137C59.6707 26.5224 59.881 26.553 59.881 26.6422H59.8307C59.9907 26.7593 59.9077 26.921 59.9788 27.052L59.9433 27.0352C59.8988 27.0575 59.8929 27.0882 59.8722 27.1105C59.8988 27.1105 59.9759 27.091 59.9581 27.1328C59.9403 27.1328 59.9196 27.1077 59.8988 27.1133C60.0292 27.2303 60.0055 27.4896 60.0677 27.6902C60.0322 27.969 60.1181 28.2477 60.0677 28.5264C60.0677 28.4874 59.9551 28.4985 59.9818 28.5264C60.1744 28.6268 59.9373 28.6741 60.0647 28.7717C59.9847 28.9278 60.1418 29.095 59.964 29.2288H60.0203C60.044 29.2567 60.0025 29.2567 59.9936 29.279H60.0114C60.0114 29.3403 59.9522 29.4016 59.9729 29.4379H59.9077C59.9077 29.4713 59.9551 29.4657 59.9077 29.4936H59.9403L59.8722 29.5243C59.9818 29.541 59.8722 29.6218 59.9018 29.6608C59.8491 29.7141 59.815 29.7812 59.804 29.8532C59.8544 29.881 59.8307 29.9647 59.8396 30.0316C59.7862 30.1403 59.7122 30.2908 59.647 30.4496L59.5848 30.4162L59.5611 30.4524C59.5611 30.4524 59.5788 30.4691 59.5907 30.4524C59.6529 30.5137 59.5077 30.5444 59.5285 30.6029C59.487 30.5472 59.5285 30.5667 59.5551 30.5388C59.5818 30.511 59.4663 30.4887 59.4663 30.5388L59.4129 30.5528C59.4574 30.5862 59.4603 30.6308 59.5018 30.6643C59.3744 30.8176 59.2203 30.851 59.0929 30.9931C59.1492 31.0266 58.9744 31.0656 59.0692 31.127C58.9478 31.1632 59.0337 31.0461 58.9448 31.0155C58.9211 31.035 58.8766 31.0154 58.8944 31.0628C58.9122 31.1102 58.8944 31.1297 58.9329 31.1242L58.8618 31.1576C58.8618 31.1576 58.8826 31.1743 58.8944 31.1743C58.7285 31.1994 58.6604 31.3639 58.4915 31.3443C58.4707 31.3109 58.5448 31.3165 58.5241 31.283C58.367 31.2496 58.4144 31.3778 58.2693 31.3471L58.3048 31.3945C58.2545 31.3666 58.2308 31.3221 58.1626 31.3667C58.1626 31.428 58.2308 31.414 58.2722 31.4391C58.2189 31.4391 58.0856 31.4391 58.1211 31.3778C58.0619 31.3583 58.0411 31.414 58.0056 31.428C57.97 31.4419 58.0619 31.3889 58.0263 31.3611C57.924 31.3833 57.8176 31.3833 57.7152 31.3611C57.7152 31.3778 57.7152 31.3973 57.7152 31.4057C57.6323 31.3416 57.6115 31.4781 57.4989 31.4308Z" fill="#1D1D1D"/>
<path d="M55.1417 29.1328H55.1626C55.1489 29.1418 55.1385 29.1545 55.1328 29.1693L55.1417 29.1328Z" fill="#1D1D1D"/>
<path d="M55.8804 29.8867C55.8804 29.8867 55.8804 29.8867 55.8804 29.9055C55.8781 29.8995 55.8781 29.8928 55.8804 29.8867Z" fill="#1D1D1D"/>
<path d="M55.9837 30.1478C55.9837 30.122 56.0046 30.1249 56.0225 30.1191C56.0113 30.1307 55.9982 30.1404 55.9837 30.1478Z" fill="#1D1D1D"/>
<path d="M54.9062 28.5801C54.902 28.5896 54.8955 28.5979 54.8872 28.6045C54.892 28.5953 54.8984 28.587 54.9062 28.5801Z" fill="#1D1D1D"/>
<path d="M54.0521 27.3594C54.0538 27.3626 54.0547 27.3662 54.0547 27.3699C54.0547 27.3735 54.0538 27.3771 54.0521 27.3804C54.0521 27.3804 54.0332 27.3594 54.0521 27.3594Z" fill="#1D1D1D"/>
<path d="M55.1315 28.8984C55.1336 28.9026 55.1348 28.9071 55.1348 28.9117C55.1348 28.9163 55.1336 28.9209 55.1315 28.925C55.1287 28.9211 55.1272 28.9165 55.1272 28.9117C55.1272 28.907 55.1287 28.9024 55.1315 28.8984Z" fill="#1D1D1D"/>
<path d="M53.8922 27.3105C53.8922 27.3105 53.8922 27.3288 53.9145 27.3318C53.9367 27.3349 53.889 27.3227 53.8922 27.3105Z" fill="#1D1D1D"/>
<path d="M54.626 28.0723C54.6039 28.0902 54.6007 28.1052 54.626 28.0723V28.0723Z" fill="#1D1D1D"/>
<path d="M54.0197 27.5273H54.0229L54.0098 27.5438L54.0197 27.5273Z" fill="#1D1D1D"/>
<path d="M54.3313 27.8588L54.3701 27.8223C54.3701 27.8223 54.373 27.8391 54.3313 27.8588Z" fill="#1D1D1D"/>
<path d="M52.4214 18.2645C52.4214 18.2645 48.1904 17.5064 46.8779 18.7384C45.5654 19.9704 45.5624 6.21516 49.6482 0.621098C49.6482 0.615523 54.5309 6.78376 52.4214 18.2645Z" fill="#9DBB39"/>
<path d="M90.6253 101.268C90.6253 101.268 88.9602 98.2024 88.658 99.4177C88.3558 100.633 88.658 117.635 88.658 119.913C88.658 122.19 86.9959 129.448 86.9959 129.448L89.7187 124.255C89.7187 124.255 93.8015 108.953 90.6253 101.268Z" fill="#9DBB39"/>
<path d="M50.1066 18.0739C50.6025 17.4636 50.9238 16.7438 51.0399 15.9834C51.191 15.281 50.9213 14.5898 50.8325 13.8958C50.6606 12.53 50.4147 11.0583 50.1066 9.71484H49.8992C49.7362 10.4117 49.6029 11.1085 49.4844 11.8053C49.3925 12.3237 49.2385 13.3717 49.1881 13.8958C49.1022 14.587 48.8325 15.2894 48.9807 15.9834C49.0994 16.7431 49.4204 17.4623 49.914 18.0739H50.1066Z" fill="black"/>
<path d="M105.997 29.6253C106.344 29.7018 106.651 29.8919 106.862 30.1614C107.074 30.431 107.177 30.7626 107.153 31.0969C107.052 32.4571 106.711 34.7204 105.58 36.2952C103.864 38.6672 100.033 36.2004 99.1235 35.2528C98.214 34.3051 93.5771 30.0322 93.7905 29.5584C93.9691 29.1907 94.1907 28.8429 94.4512 28.5215C94.4512 28.5215 102.279 28.7946 105.997 29.6253Z" fill="black"/>
<path d="M93.7751 45.7812C85.2126 50.2214 74.4664 49.5998 65.1484 47.9497C61.9367 47.3616 58.7546 46.5868 55.5547 45.7812C59.3059 47.4697 63.2547 48.7382 67.3201 49.5608C75.7168 51.2861 86.854 51.1746 93.7751 45.7812Z" fill="black"/>
<path d="M57.8859 46.6387C66.238 50.5882 74.9724 54.1086 83.3661 57.9383C83.6624 58.0749 84.1216 58.3647 84.409 58.5264C91.6916 62.7798 98.8024 68.5411 101.297 76.496C102.219 79.5285 102.21 82.7227 102.414 85.8528C102.616 90.6497 102.627 95.4913 101.854 100.249C103.374 95.5972 103.795 90.6832 103.958 85.8389C104.014 84.2418 103.987 82.5667 103.937 80.9723C103.942 79.2955 103.733 77.6242 103.315 75.9943C101.131 67.7997 94.0915 61.6119 86.6608 57.3753C86.166 57.1105 85.1794 56.5391 84.6727 56.2938C75.9591 52.5533 66.9373 49.5402 57.8859 46.6387Z" fill="black"/>
<path d="M85.1801 117.707C85.1801 117.707 87.6748 117.066 85.7075 105.395C85.7075 105.395 82.4484 96.214 80.5315 94.3633C80.5315 94.3633 85.1031 110.875 85.1801 117.707Z" fill="#9DBB39"/>
<path d="M98.5195 105.182C95.9241 110.371 93.5479 115.642 90.991 120.835C90.3984 121.986 89.874 123.173 89.1303 124.23C89.0978 124.274 89.0859 124.272 89.0652 124.308C89.1286 124.267 89.2016 124.241 89.2779 124.232C89.3542 124.224 89.4316 124.232 89.5037 124.258C89.5911 124.285 89.6693 124.334 89.7302 124.399C89.7911 124.464 89.8325 124.543 89.8503 124.628C89.8478 124.59 89.8478 124.552 89.8503 124.514C91.391 118.619 92.8842 112.507 92.0517 106.397C91.8178 104.483 91.3095 102.608 90.5407 100.822C92.6768 108.281 90.9495 115.968 88.9318 123.263C88.8341 123.856 88.283 124.996 89.1155 125.306C89.9185 125.529 90.354 124.394 90.6799 123.895C93.7909 117.852 96.2174 111.537 98.5077 105.187L98.5195 105.182Z" fill="black"/>
<path d="M79.4583 103.59C79.4583 103.59 69.4233 97.1154 63.7228 84.4974V83.3574L78.8332 101.622C79.0853 101.887 79.2721 102.2 79.3802 102.54C79.4883 102.881 79.515 103.239 79.4583 103.59Z" fill="#9DBB39"/>
<path d="M86.327 115.048C87.4677 108.238 85.7611 99.4389 80.5435 94.3633C84.0812 100.816 85.3018 107.926 86.327 115.048Z" fill="black"/>
<path d="M60.5181 86.963C60.5181 86.963 55.502 86.3219 51.3155 81.341C47.1291 76.3602 43.1204 69.8129 43.6507 65.3281L60.5181 86.963Z" fill="#9DBB39"/>
<path d="M41.4324 68.8406L44.333 74.2953C44.333 74.2953 36.6297 72.6592 32.3039 61.8418L34.4964 55.9355L41.4324 68.8406Z" fill="#9DBB39"/>
<path d="M79.582 102.355C77.6599 98.7077 75.5315 95.16 73.206 91.7269C72.6135 90.8657 72.0713 89.9793 71.4876 89.1097C70.2854 87.3542 68.7378 85.8311 66.9278 84.6222C65.9916 84.0117 64.9398 83.4264 63.7961 83.2285L63.648 83.471C65.5146 85.9406 66.9604 88.5578 69.1588 90.7765C72.5631 94.2355 76.1481 98.8038 79.3302 102.483L79.582 102.335V102.355Z" fill="black"/>
<path d="M59.0708 84.4983C54.1229 77.7587 48.5143 71.6769 43.5397 64.9512C45.4744 72.2566 52.5733 80.231 59.0708 84.4983Z" fill="black"/>
<path d="M30.9558 40.3853C31.5709 45.4403 32.572 50.4471 33.9512 55.3669C34.6564 57.8364 35.323 60.3394 36.52 62.6584C37.717 64.9774 39.1866 67.2853 41.3672 68.8935L41.4976 68.782C39.4058 65.5154 38.2118 61.9978 36.7037 58.5137C35.7088 56.1793 34.8474 53.7965 34.1231 51.3755C32.9755 47.7409 31.978 44.0682 31.1306 40.3574L30.9558 40.3853Z" fill="black"/>
<path d="M74.1784 42.5945C74.1764 42.5839 74.1764 42.5731 74.1784 42.5625C74.1791 42.5732 74.1791 42.5839 74.1784 42.5945Z" fill="#1D1D1D"/>
<path d="M75.6869 42.9292V42.9082C75.6886 42.9115 75.6895 42.915 75.6895 42.9187C75.6895 42.9223 75.6886 42.9259 75.6869 42.9292Z" fill="#1D1D1D"/>
<path d="M78.8838 43.5028H78.8617C78.8617 43.5028 78.8806 43.4965 78.8838 43.5028Z" fill="#1D1D1D"/>
<path d="M76.9802 43.2168C76.9829 43.2283 76.9893 43.2386 76.9985 43.2463C76.9985 43.2463 76.9771 43.2463 76.9802 43.2168Z" fill="#1D1D1D"/>
<path d="M72.5374 42.7368L72.582 42.7051C72.578 42.7136 72.5718 42.721 72.564 42.7266C72.5561 42.7322 72.547 42.7357 72.5374 42.7368Z" fill="#1D1D1D"/>
<path d="M72.1836 42.1641V42.1961C72.1836 42.1961 72.1746 42.1815 72.1836 42.1641Z" fill="#1D1D1D"/>
<path d="M90.4986 43.1289C90.5224 43.1289 90.5552 43.1289 90.585 43.1635L90.4986 43.1289Z" fill="#1D1D1D"/>
<path d="M81.7836 43.853V43.832C81.7853 43.8353 81.7861 43.8389 81.7861 43.8425C81.7861 43.8461 81.7853 43.8497 81.7836 43.853Z" fill="#1D1D1D"/>
<path d="M90.6807 43.4954V43.4766C90.6807 43.4766 90.6873 43.4922 90.6807 43.4954Z" fill="#1D1D1D"/>
<path d="M72.9448 43.0566C72.9448 43.11 73.0252 43.0847 73.0044 43.124C72.9805 43.1072 72.9269 43.1184 72.9448 43.0566Z" fill="#1D1D1D"/>
<path d="M90.6794 43.4924L90.6604 43.5107V43.4863L90.6794 43.4924Z" fill="#1D1D1D"/>
<path d="M84.9768 43.7847H84.9405C84.9459 43.7812 84.9522 43.7793 84.9587 43.7793C84.9651 43.7793 84.9714 43.7812 84.9768 43.7847Z" fill="#1D1D1D"/>
<path d="M90.5844 43.1641L90.6321 43.1868C90.6143 43.1835 90.5979 43.1756 90.5844 43.1641Z" fill="#1D1D1D"/>
<path d="M76.8489 43.209H76.8291C76.8291 43.209 76.8489 43.1958 76.8489 43.209Z" fill="#1D1D1D"/>
<path d="M77.6812 44.5977C77.705 44.5977 77.7259 44.6314 77.7318 44.6679C77.7378 44.7044 77.6961 44.6426 77.6812 44.5977Z" fill="#1D1D1D"/>
<path d="M76.7838 44.5195H76.8096C76.8055 44.5213 76.8011 44.5222 76.7967 44.5222C76.7922 44.5222 76.7878 44.5213 76.7838 44.5195Z" fill="#1D1D1D"/>
<path d="M78.5126 44.942V44.9375L78.5171 44.942H78.5126Z" fill="#1D1D1D"/>
<path d="M81.0227 45.6309C80.765 45.5863 80.4302 45.4665 80.1813 45.447C80.1398 45.3466 80.0598 45.3327 79.9798 45.2992L79.9532 45.4219L79.8909 45.3717C79.8584 45.4051 79.9413 45.4023 79.8909 45.4414L79.8761 45.3605C79.8761 45.4051 79.6984 45.3605 79.7961 45.4692L79.5324 45.4302C79.4732 45.4302 79.5147 45.3243 79.4465 45.3466C79.4258 45.3801 79.4643 45.3745 79.4465 45.4163C79.2362 45.4776 79.2628 45.1376 79.0732 45.1766L79.088 45.1961C79.0614 45.1599 79.0021 45.1543 79.0051 45.1376C79.0525 45.0177 79.0258 45.2072 79.0939 45.1376C79.1088 45.0344 79.0377 45.0735 79.0554 44.9954C79.0051 45.0261 78.9932 44.9647 78.9577 44.9536C78.8836 45.0121 78.8036 44.9536 78.7414 45.0177C78.7177 44.9787 78.7058 44.87 78.6406 44.8533C78.5784 44.9229 78.6406 44.9313 78.5666 44.948V44.8867C78.5132 44.8867 78.5162 44.9034 78.5132 44.9313C78.4569 44.9313 78.4836 44.8393 78.4066 44.8644L78.4332 44.9285C78.3858 44.8951 78.3651 44.9006 78.291 44.8923C78.291 44.9257 78.3147 44.9285 78.3384 44.9257C78.2792 45.0038 78.2792 44.8728 78.2555 44.8783C78.2318 44.8839 78.3207 44.8505 78.3088 44.7892C78.2703 44.7892 78.2525 44.6916 78.211 44.7557L78.2377 44.8226C78.1725 44.7613 78.214 44.739 78.1251 44.7446C78.1251 44.7446 78.1251 44.7641 78.1251 44.778C78.0896 44.6888 78.0036 44.7446 77.9236 44.7334V44.7501C77.897 44.725 77.894 44.6665 77.8762 44.6693C77.9296 44.6442 77.9207 44.6247 77.9384 44.569C77.8555 44.6526 77.8762 44.4352 77.7636 44.4742C77.7636 44.5076 77.7636 44.5522 77.8051 44.5244C77.8051 44.6303 77.8051 44.7167 77.8466 44.7752C77.814 44.7445 77.7755 44.7195 77.7725 44.7752V44.6805C77.7538 44.6782 77.7349 44.6782 77.7162 44.6805C77.7162 44.6191 77.7844 44.594 77.7429 44.5439C77.7014 44.4937 77.6866 44.6331 77.6896 44.5885C77.6185 44.5355 77.6896 44.4825 77.5977 44.4965C77.5977 44.4965 77.5977 44.5244 77.6214 44.5188C77.5562 44.5439 77.4911 44.4714 77.4466 44.5801C77.4466 44.608 77.4466 44.6414 77.4644 44.6358V44.6191C77.5029 44.7111 77.42 44.5857 77.4111 44.6888C77.4318 44.6303 77.3488 44.6275 77.3133 44.6303L77.3429 44.5662C77.2807 44.3376 77.3103 44.7028 77.2037 44.6498C77.1415 44.5885 77.2363 44.6498 77.2037 44.5801C77.1503 44.5801 77.1148 44.6386 77.0526 44.5801C77.0032 44.6076 76.9663 44.6513 76.9489 44.7027C76.9133 44.6581 76.8067 44.7027 76.8037 44.6163C76.8955 44.5745 76.8541 44.7167 76.9696 44.6442V44.5634C76.9074 44.5494 76.8422 44.4909 76.7918 44.5049C76.7993 44.4992 76.8051 44.492 76.8087 44.4837C76.8123 44.4754 76.8137 44.4664 76.8126 44.4575C76.7355 44.4045 76.7355 44.3237 76.6467 44.3237C76.6141 44.3878 76.6674 44.3906 76.7 44.4073C76.6289 44.4463 76.6437 44.4073 76.5518 44.4073C76.5311 44.463 76.6111 44.4073 76.6022 44.4798L76.5163 44.4352C76.5311 44.332 76.4422 44.4352 76.3948 44.3794C76.2615 44.3404 76.2852 44.2038 76.2348 44.1007C76.2228 44.1086 76.2128 44.119 76.2056 44.1311C76.1984 44.1431 76.1943 44.1566 76.1933 44.1704C76.2408 44.1369 76.223 44.1704 76.2259 44.1982C76.1845 44.1759 76.0985 44.2679 76.1104 44.3153C76.0482 44.2651 76.1519 44.2707 76.1104 44.2261L76.0097 44.2038C76.0393 44.1592 76.0778 44.1564 76.0393 44.1035C76.0031 44.0837 75.9625 44.0723 75.9208 44.07C75.9208 44.0951 75.8763 44.1397 75.9208 44.1509C75.912 44.1551 75.9021 44.157 75.8922 44.1563C75.8823 44.1556 75.8728 44.1523 75.8649 44.1468C75.8569 44.1413 75.8506 44.1338 75.8469 44.1252C75.8432 44.1165 75.8421 44.1071 75.8437 44.0979C75.9208 44.07 75.7608 44.0254 75.8437 43.9613L75.7667 43.9892C75.7815 43.9892 75.7667 44.0254 75.7963 44.0227C75.7519 44.0923 75.7548 43.9864 75.7341 43.9725C75.7134 43.9585 75.6512 43.9725 75.6363 44.0004C75.6363 43.9753 75.5712 43.9781 75.5504 44.0004C75.5267 43.9753 75.5652 43.9502 75.5652 43.9223L75.4645 43.9C75.436 43.9556 75.4161 44.0147 75.4052 44.0756C75.3815 44.0254 75.4349 43.9474 75.3786 43.9362C75.3786 44.0254 75.2838 43.9781 75.2926 44.0868C75.2656 44.1068 75.2315 44.1162 75.1972 44.1131C75.163 44.11 75.1314 44.0946 75.109 44.07C75.109 43.9948 75.1741 44.0533 75.1949 43.9864C75.0675 43.914 75.1267 43.7272 75.0141 43.7244H75.0497C75.032 43.7096 75.0177 43.6916 75.0075 43.6715C74.9973 43.6514 74.9915 43.6296 74.9904 43.6073C74.9904 43.6965 74.8334 43.7997 74.7386 43.7439C74.7386 43.7021 74.8245 43.6882 74.8334 43.6185L74.7712 43.5823C74.7712 43.5823 74.7712 43.6018 74.7712 43.6157C74.7208 43.5655 74.6142 43.6798 74.6349 43.5767L74.5253 43.6742L74.5697 43.6324C74.5697 43.5878 74.5164 43.5516 74.5075 43.5321C74.4542 43.4596 74.4157 43.4875 74.3564 43.5321C74.3831 43.5042 74.4453 43.4401 74.3949 43.4067C74.3416 43.5377 74.2586 43.4067 74.232 43.4791C74.2112 43.4791 74.1549 43.4959 74.1757 43.4429L74.146 43.5237C74.1875 43.4094 74.1046 43.3844 74.0512 43.3426C73.9979 43.4986 73.989 43.3063 73.9001 43.4345C73.9327 43.3258 73.8083 43.3537 73.8349 43.2617C73.7905 43.2394 73.752 43.337 73.7253 43.3648V43.3175C73.6779 43.3565 73.5861 43.3175 73.5179 43.3453V43.2366L73.4794 43.2701C73.4794 43.245 73.4468 43.2171 73.4794 43.192H73.4498C73.4942 43.0917 73.4261 43.1502 73.3905 43.0889C73.3818 43.0948 73.3752 43.1029 73.3715 43.1124C73.3678 43.1218 73.3672 43.1321 73.3698 43.1419C73.3431 43.1419 73.3313 43.1893 73.3016 43.2171C73.3313 43.2004 73.3016 42.9969 73.3816 42.9858C73.4053 42.9468 73.3816 42.8994 73.3431 42.905L73.2868 42.9858L73.3016 42.8799C73.2691 42.8492 73.2246 42.8966 73.1861 42.8938C73.2157 42.9133 73.1861 43.0973 73.0942 43.0555C73.1357 43.0889 73.1328 43.1474 73.1476 43.1753C73.1624 43.2032 73.115 43.1753 73.1239 43.2255C73.0705 43.1697 73.1239 43.1614 73.0676 43.1196C73.035 43.2004 73.0024 43.2199 72.9313 43.2199L73.0024 43.1809C73.0036 43.1726 73.0036 43.1641 73.0024 43.1558C73.0231 43.1558 73.032 43.1558 73.0498 43.1168C73.0676 43.0778 73.0231 42.983 72.9876 43.0248C73.112 42.9328 72.9194 42.8771 72.9876 42.8241C72.9888 42.8167 72.9871 42.8092 72.9829 42.8028C72.9786 42.7965 72.972 42.7919 72.9643 42.7898C72.9567 42.7878 72.9485 42.7884 72.9413 42.7917C72.9341 42.7949 72.9284 42.8005 72.9254 42.8074C72.9491 42.8938 72.8394 42.8799 72.8216 42.9384C72.8216 42.9077 72.8928 42.8994 72.8809 42.8576C72.8691 42.8158 72.8009 42.8743 72.7713 42.891V42.9133H72.7031C72.7031 42.8715 72.7861 42.8687 72.7505 42.8269C72.7298 42.8269 72.6913 42.7962 72.6794 42.8269C72.6676 42.8576 72.6231 42.9551 72.6557 42.9858C72.6231 42.9663 72.5224 42.9077 72.6024 42.8548L72.5639 42.8381C72.6054 42.8186 72.7031 42.7879 72.6291 42.7433L72.6024 42.6597L72.558 42.6903C72.558 42.6708 72.558 42.6485 72.558 42.6402C72.558 42.6318 72.5165 42.6625 72.5017 42.6931C72.4454 42.6625 72.472 42.6262 72.475 42.5983C72.478 42.5705 72.4246 42.5984 72.4157 42.643C72.3654 42.643 72.2913 42.5872 72.2409 42.6151C72.1965 42.551 72.2617 42.6151 72.2409 42.5342C72.1165 42.6457 72.0128 42.4952 71.9239 42.4339C72.0158 42.328 71.9061 42.4088 71.9447 42.2918C71.9447 42.3391 71.8024 42.3419 71.8706 42.4144L71.8261 42.3782C71.7521 42.4255 71.8854 42.4673 71.7817 42.5315C71.7254 42.498 71.758 42.3531 71.6632 42.3642C71.6425 42.459 71.6247 42.3113 71.5921 42.4116C71.5921 42.4478 71.6158 42.4478 71.6306 42.4646H71.6099C71.4647 42.4283 71.6276 42.3475 71.5891 42.2611C71.5506 42.1747 71.4914 42.2973 71.4647 42.3336C71.438 42.3698 71.4114 42.314 71.4025 42.2834C71.4232 42.3559 71.521 42.2834 71.5269 42.2081C71.441 42.2862 71.4054 42.1635 71.4054 42.1162C71.5743 42.066 71.4884 42.1468 71.6513 42.0855C71.6513 42.1245 71.601 42.2081 71.6839 42.1998C71.6662 42.1412 71.7136 42.1552 71.7313 42.1468C71.6928 42.1886 71.7639 42.1858 71.7728 42.2165C71.8113 42.183 71.7965 42.0855 71.8706 42.0939L71.8202 42.2165C71.8528 42.2165 71.8558 42.1245 71.8943 42.1775C71.8943 42.105 71.9536 42.0883 71.8943 42.0353C72.0336 41.9768 71.995 42.1496 72.0395 42.2221C72.0395 42.2221 72.0395 42.197 72.0395 42.1858C72.0395 42.2221 72.0632 42.2332 72.0809 42.2471C72.0987 42.2611 72.0809 42.1803 72.1017 42.1524L72.1698 42.1886C72.1698 42.2137 72.1906 42.2332 72.2143 42.2053C72.2108 42.1636 72.2108 42.1217 72.2143 42.0799L72.2469 42.1942C72.2469 42.1524 72.3417 42.1552 72.3032 42.105L72.4039 42.1691L72.4543 42.0966C72.475 42.1217 72.4543 42.1385 72.4306 42.1329C72.478 42.1329 72.5254 42.3475 72.5846 42.183C72.638 42.2862 72.6824 42.275 72.7654 42.3614C72.7239 42.2527 72.9046 42.3113 72.8365 42.2388C72.9046 42.2249 72.872 42.3168 72.9046 42.3475C72.931 42.3324 72.9506 42.3088 72.9598 42.2811C72.9691 42.2535 72.9674 42.2236 72.955 42.197L72.9846 42.2555V42.2388L73.0024 42.3029C73.0646 42.2806 73.0498 42.2276 73.1002 42.236L73.0765 42.3113L73.1239 42.2834C73.0972 42.3113 73.1239 42.3363 73.1476 42.3559L73.1802 42.3865C73.1624 42.3252 73.2216 42.3865 73.2305 42.328C73.2661 42.328 73.2661 42.328 73.3194 42.3809L73.2838 42.4255C73.3431 42.5036 73.3224 42.3531 73.3876 42.3782L73.3579 42.4339C73.4942 42.3809 73.4883 42.5593 73.5831 42.5259C73.5505 42.498 73.5831 42.4339 73.5831 42.4506C73.6335 42.4952 73.7401 42.5147 73.7698 42.6067C73.829 42.5342 73.8468 42.5119 73.9268 42.498C74.0068 42.4841 73.9742 42.5287 73.9683 42.5816C74.0275 42.5816 74.0897 42.6457 74.1194 42.5816C74.1194 42.6318 74.1638 42.5816 74.1697 42.6346L74.1875 42.6123L74.1579 42.668C74.2912 42.5705 74.2616 42.7907 74.389 42.7071V42.6875L74.4127 42.7238C74.4127 42.6987 74.4127 42.6792 74.4334 42.6457L74.5934 42.6931L74.546 42.7238C74.5756 42.7433 74.5756 42.8074 74.626 42.7851C74.5993 42.6764 74.6793 42.8018 74.7179 42.7377L74.6942 42.7043C74.7356 42.7266 74.7356 42.7266 74.709 42.7823C74.7623 42.8241 74.7949 42.6875 74.8245 42.7823H74.786C74.7593 42.813 74.7682 42.8687 74.786 42.8771C74.8038 42.8854 74.8245 42.852 74.8067 42.8381C74.8453 42.8771 74.9282 42.8743 74.9401 42.905C74.9541 42.8988 74.9652 42.888 74.9712 42.8746C74.9773 42.8612 74.9778 42.8462 74.9727 42.8325C75.0527 42.9189 75.023 42.8325 75.103 42.9245V42.891L75.1208 42.9412L75.1978 42.891L75.1623 42.9272C75.1949 42.944 75.2067 42.9746 75.2512 42.9718V42.9161C75.3341 42.9774 75.3904 42.8743 75.4526 42.9746C75.4526 42.9746 75.4526 42.9468 75.4526 42.9384C75.506 43.0443 75.5445 42.8715 75.5949 42.9914C75.5949 42.9719 75.6126 42.9551 75.6156 42.9412L75.6423 42.983L75.663 42.9161V43.022L75.7134 42.9607V42.9969C75.7993 42.8826 75.823 42.9969 75.9119 42.9161L75.8734 42.9942C75.9534 43.2088 76.2289 42.9941 76.3711 43.1196L76.3889 43.0527L76.4333 43.1502C76.4867 43.1084 76.4333 43.0861 76.4511 43.0555C76.5133 43.114 76.4511 43.1642 76.5311 43.2088C76.5904 43.1753 76.5311 43.153 76.5311 43.1251C76.6022 43.1809 76.7118 43.2506 76.78 43.2311C76.78 43.2311 76.78 43.2534 76.78 43.2562C76.8274 43.3008 76.9074 43.2924 76.9666 43.3147C76.9697 43.3049 76.9693 43.2945 76.9656 43.285C76.9618 43.2754 76.9549 43.2673 76.9459 43.2617C76.9696 43.2617 77.0052 43.2617 77.014 43.2896V43.2255C77.0615 43.2255 77.1355 43.3035 77.1652 43.2255C77.1652 43.2506 77.1385 43.3007 77.18 43.3091C77.2333 43.2115 77.2748 43.3844 77.3548 43.3453C77.3548 43.3202 77.3103 43.3007 77.3222 43.3035C77.334 43.3063 77.3785 43.3398 77.3992 43.3788V43.3342L77.5325 43.4234C77.5859 43.3258 77.6718 43.4708 77.6836 43.3927C77.737 43.3927 77.6244 43.429 77.6836 43.454C77.7133 43.415 77.7399 43.4903 77.7548 43.4206H77.7992V43.3481C77.8182 43.3678 77.8317 43.3916 77.8385 43.4174C77.8452 43.4432 77.8449 43.4702 77.8377 43.4959C77.8881 43.468 77.9355 43.5098 77.9681 43.4513V43.4317C78.0718 43.4819 78.1962 43.2896 78.2644 43.4317C78.2644 43.4317 78.2644 43.4067 78.2644 43.4039H78.3325V43.3509L78.4273 43.4513V43.4178C78.5233 43.4294 78.6171 43.4538 78.7058 43.4903V43.4708C78.7977 43.546 78.8125 43.4708 78.8806 43.5154C78.8806 43.5154 78.8806 43.5014 78.8806 43.4986L78.9488 43.5126V43.4763C78.9843 43.5628 79.1117 43.4122 79.0673 43.4763C79.0982 43.5151 79.1195 43.5598 79.1295 43.6073C79.2065 43.6241 79.1591 43.5683 79.2095 43.546C79.2599 43.5237 79.2628 43.6101 79.3428 43.5878V43.5544C79.3754 43.5544 79.3902 43.5934 79.4376 43.6046V43.5878C79.4999 43.6687 79.5532 43.4986 79.5858 43.6575C79.6243 43.6352 79.6836 43.6575 79.6924 43.5962C79.7721 43.6468 79.8564 43.6906 79.9443 43.7272C79.9798 43.6185 79.965 43.7272 80.0332 43.6826V43.7411C80.1695 43.769 80.3472 43.6436 80.4924 43.6882L80.5072 43.6296L80.528 43.6993C80.6909 43.6993 80.9042 43.6993 81.0346 43.6993C81.0731 43.7328 81.1294 43.8108 81.2005 43.7941C81.3141 43.8475 81.4423 43.8669 81.5679 43.8498C81.5679 43.8247 81.5679 43.808 81.5679 43.7885C81.5916 43.8582 81.642 43.7885 81.6716 43.7885L81.6331 43.8303C81.6657 43.8917 81.722 43.8303 81.7457 43.7969L81.799 43.8666V43.8443V43.8777L81.8346 43.7997C81.8346 43.8164 81.9234 43.8415 81.9412 43.9223C81.9412 43.8944 82.0034 43.8777 81.962 43.861H82.1753L82.1427 43.8861C82.1427 43.9474 82.1931 43.9892 82.2286 43.9641C82.1901 43.9112 82.2286 43.8777 82.2523 43.8331C82.279 43.8693 82.2227 43.8861 82.2375 43.9223C82.2523 43.9585 82.3471 43.9892 82.3679 43.9613L82.3471 43.9362C82.3945 43.9613 82.4242 43.8554 82.4716 43.861C82.513 43.9112 82.5456 43.861 82.5338 43.9697C82.596 43.9948 82.5605 43.9 82.5812 43.8889C82.6079 43.9418 82.6967 43.9112 82.7116 43.8582C82.7412 44.0115 82.8834 43.8052 82.8923 43.9362L82.9456 43.8638C82.9456 43.8972 82.9456 43.9753 82.996 43.992C83.0345 43.953 83.0286 43.8944 83.0404 43.8582L83.0641 43.9892C83.2952 43.8526 83.5945 43.9585 83.8404 43.8387C83.9629 43.8799 84.0926 43.8988 84.2226 43.8944L84.2078 43.8777L84.3352 43.8387L84.2433 43.9C84.273 43.9 84.2967 43.939 84.3233 43.9362C84.4754 43.8528 84.6554 43.8269 84.827 43.8638C84.9485 44.0087 84.8922 43.73 85.0077 43.8359C84.9986 43.8197 84.9907 43.8029 84.984 43.7857C85.089 43.8207 85.1886 43.8685 85.2803 43.9279C85.2566 43.7802 85.3574 43.9279 85.3396 43.8471L85.3544 43.9056C85.3781 43.8666 85.4374 43.8498 85.4255 43.808L85.4818 43.8777V43.8052C85.5499 43.8052 85.701 43.8303 85.7218 43.7049C85.9349 43.7622 86.1618 43.7553 86.3706 43.6854C86.4062 43.73 86.4684 43.7244 86.5158 43.7244L86.5573 43.6436C86.6077 43.6603 86.6729 43.7439 86.7114 43.691C86.7114 43.691 86.7114 43.691 86.7114 43.6742C86.7647 43.6742 86.8062 43.638 86.8625 43.6993C86.8765 43.697 86.8899 43.6918 86.9015 43.684C86.9131 43.6761 86.9227 43.6659 86.9295 43.6542C86.9363 43.6424 86.9403 43.6293 86.941 43.6159C86.9417 43.6024 86.9391 43.5891 86.9336 43.5767C86.9573 43.6965 87.0462 43.5432 87.0462 43.5432L87.1647 43.5154C87.2387 43.4986 87.3484 43.4763 87.4787 43.4429C87.7424 43.3732 88.1039 43.3035 88.4831 43.2199C89.2475 43.0778 90.0771 42.9189 90.5067 43.1196C90.5512 43.1669 90.6193 43.1837 90.6253 43.2589C90.6786 43.2589 90.6549 43.1586 90.6845 43.2116C90.643 43.2701 90.7675 43.3481 90.7378 43.4401H90.7734C90.8001 43.4763 90.7023 43.415 90.7438 43.4847L90.6875 43.3844C90.6755 43.3972 90.6666 43.4123 90.6615 43.4287C90.6564 43.445 90.6551 43.4623 90.6578 43.4791C90.6104 43.4485 90.5364 43.3119 90.489 43.3983H90.5097C90.4504 43.3983 90.5097 43.4764 90.4949 43.4986L90.4653 43.5683C90.4919 43.5209 90.5867 43.585 90.5512 43.5906C90.4919 43.6436 90.5512 43.56 90.5008 43.5628C90.4504 43.5655 90.5008 43.6241 90.5008 43.6547L90.4416 43.6715C90.4593 43.7216 90.4801 43.6547 90.4741 43.716L90.3793 43.6882C90.409 43.8164 90.2727 43.6519 90.2786 43.7801C90.3467 43.7941 90.2786 43.8248 90.3112 43.8638L90.1719 43.8972C90.1719 43.9195 90.2223 43.9251 90.1986 43.9251C90.1749 43.9251 90.1453 43.9056 90.1334 43.9112C90.1216 43.9167 90.0297 43.9418 90.0623 44.0227C89.9853 44.1091 89.9882 43.9307 89.9171 44.0004C89.9171 44.0561 89.9912 44.0003 89.9675 44.0589H89.8697C89.8875 44.0812 89.9142 44.1369 89.9438 44.1146C89.7216 44.2484 89.6623 44.555 89.4135 44.5466C89.3986 44.6135 89.449 44.5801 89.4816 44.6136C89.292 44.5745 89.2831 44.8031 89.135 44.8282L89.1201 44.778C88.9572 44.9787 88.6935 44.948 88.4802 45.0567L88.4979 45.0149C88.4565 44.9703 88.4031 44.9759 88.3617 44.9592C88.3617 44.9871 88.412 45.0623 88.3409 45.0539C88.3409 45.0344 88.3765 45.0093 88.3617 44.987C88.1928 45.1515 87.7691 45.2044 87.455 45.3132C87.0076 45.3271 86.5425 45.5138 86.0981 45.5083C86.1662 45.5083 86.1247 45.3828 86.0773 45.4163C85.9618 45.6449 85.8344 45.3996 85.7099 45.5612C85.4492 45.5083 85.2359 45.7285 84.987 45.5612V45.6226C84.9514 45.6504 84.9396 45.6225 84.9011 45.603V45.6226C84.8152 45.6476 84.7026 45.5891 84.6552 45.6226V45.5529C84.6018 45.5529 84.6285 45.6086 84.5752 45.5696V45.6058L84.51 45.5417C84.51 45.6616 84.3619 45.5417 84.3233 45.6142C84.2303 45.5757 84.128 45.5613 84.0271 45.5724C84.0093 45.6365 83.8848 45.6393 83.8048 45.6755C83.6084 45.6512 83.4101 45.6437 83.2123 45.6532V45.5752H83.1589C83.1589 45.5947 83.1589 45.603 83.1589 45.6114C83.1175 45.7006 83.0375 45.5807 82.996 45.6365C83.0227 45.564 83.0315 45.6365 83.0612 45.6226C83.0908 45.6086 83.0612 45.5111 83.0078 45.5473V45.564L82.9693 45.5222C82.9693 45.5835 82.9278 45.6114 82.9219 45.6727C82.7501 45.656 82.6256 45.5473 82.4627 45.5724C82.4775 45.6421 82.3353 45.5529 82.3649 45.6727C82.2612 45.6253 82.3886 45.5752 82.3442 45.4915C82.3145 45.4915 82.2849 45.4581 82.276 45.4915C82.2671 45.525 82.2494 45.564 82.276 45.5752H82.2049C82.2049 45.5752 82.2049 45.6002 82.2197 45.6086C82.0805 45.5361 81.962 45.6671 81.8346 45.5891C81.8346 45.5473 81.8879 45.5891 81.882 45.5389C81.7575 45.4414 81.7605 45.6058 81.6449 45.5389L81.6657 45.6002C81.6301 45.5557 81.6153 45.5027 81.5472 45.5445C81.5323 45.6142 81.5975 45.6058 81.6272 45.6421C81.5827 45.6421 81.4731 45.6142 81.5116 45.5529C81.4612 45.5278 81.4346 45.5863 81.405 45.603C81.3753 45.6198 81.4583 45.5612 81.4316 45.525C81.3428 45.5522 81.2485 45.5598 81.1561 45.5473C81.1561 45.5668 81.1561 45.5919 81.1561 45.6002C81.1264 45.4999 81.1176 45.6588 81.0227 45.6309Z" fill="#1D1D1D"/>
<path d="M76.4938 44.4355H76.5295C76.5221 44.4526 76.5221 44.4718 76.5295 44.4889L76.4938 44.4355Z" fill="#1D1D1D"/>
<path d="M78.1228 44.7812V44.8022C78.1209 44.799 78.1198 44.7954 78.1198 44.7917C78.1198 44.788 78.1209 44.7844 78.1228 44.7812Z" fill="#1D1D1D"/>
<path d="M78.4923 44.9875C78.4655 44.9677 78.4923 44.9536 78.5132 44.9395C78.511 44.957 78.5038 44.9736 78.4923 44.9875Z" fill="#1D1D1D"/>
<path d="M75.6629 44C75.6671 44.0103 75.6671 44.0217 75.6629 44.032C75.6596 44.0216 75.6596 44.0104 75.6629 44Z" fill="#1D1D1D"/>
<path d="M73.3802 43.1289C73.3905 43.1341 73.3993 43.1415 73.406 43.1505C73.3997 43.1505 73.3936 43.1483 73.3888 43.1444C73.3841 43.1404 73.381 43.1349 73.3802 43.1289Z" fill="#1D1D1D"/>
<path d="M76.2558 44.1992C76.2616 44.2027 76.2665 44.2074 76.2701 44.2129C76.2738 44.2184 76.2761 44.2247 76.2769 44.2312C76.2711 44.2278 76.2662 44.2231 76.2625 44.2176C76.2589 44.212 76.2566 44.2057 76.2558 44.1992Z" fill="#1D1D1D"/>
<path d="M73.1562 43.1641C73.1708 43.1681 73.1863 43.1681 73.2009 43.1641C73.1771 43.1879 73.1622 43.182 73.1562 43.1641Z" fill="#1D1D1D"/>
<path d="M74.7712 43.6172C74.8025 43.6626 74.79 43.6414 74.7712 43.6172V43.6172Z" fill="#1D1D1D"/>
<path d="M73.5227 43.3398H73.529L73.5322 43.3642L73.5227 43.3398Z" fill="#1D1D1D"/>
<path d="M72.9941 43.125C72.9968 43.1318 72.9968 43.1392 72.9941 43.146V43.125Z" fill="#1D1D1D"/>
<path d="M74.2355 43.5258C74.2344 43.5061 74.2344 43.4864 74.2355 43.4668C74.2355 43.4668 74.2593 43.4921 74.2355 43.5258Z" fill="#1D1D1D"/>
<path d="M70.5378 42.5698H70.5664C70.5664 42.5698 70.5664 42.5666 70.5378 42.5698Z" fill="#1D1D1D"/>
<path d="M71.5641 43.2101L71.5838 43.1914C71.5838 43.1914 71.5871 43.1977 71.5641 43.2101Z" fill="#1D1D1D"/>
<path d="M72.0578 42.8607C72.1084 42.8379 72.0577 42.8607 72.0965 42.8379C72.0875 42.8436 72.1293 42.8322 72.0578 42.8607Z" fill="#1D1D1D"/>
<path d="M70.2866 41.0893H70.2645C70.2645 41.0893 70.2708 41.0861 70.2866 41.0893Z" fill="#1D1D1D"/>
<path d="M70.987 40.2266H71.0317C71.017 40.2292 71.0018 40.2292 70.987 40.2266Z" fill="#1D1D1D"/>
<path d="M71.9652 42.3191H72.0337C72.0337 42.3191 72.0218 42.3131 71.9652 42.3191Z" fill="#1D1D1D"/>
<path d="M72.1204 42.4473L72.1127 42.4511L72.1204 42.4473Z" fill="#1D1D1D"/>
<path d="M72.5759 41.9143C72.5433 41.9422 72.4277 41.9785 72.4573 42.0091C72.408 42.0049 72.3583 42.0115 72.3122 42.0286H72.4633H72.4159C72.4603 42.0286 72.4425 42.0286 72.4988 42.0286H72.404C72.451 42.0368 72.4992 42.0368 72.5462 42.0286V42.0565C72.5462 42.0565 72.4188 42.0565 72.4573 42.0565H72.5403C72.6529 42.0788 72.244 42.076 72.3151 42.0983H72.3359C72.2944 42.0983 72.3003 42.0983 72.2796 42.0983C72.3625 42.0983 72.1255 42.0983 72.2796 42.0983C72.1966 42.0983 72.2114 42.0983 72.1137 42.0983C72.1611 42.0983 72.087 42.0983 72.0811 42.1123C72.1611 42.1123 72.1018 42.1318 72.2025 42.1373C72.1449 42.1385 72.0874 42.1441 72.0307 42.1541C72.0751 42.1509 72.1196 42.1509 72.164 42.1541H72.09C72.09 42.1541 72.1225 42.1541 72.1581 42.1541C72.1936 42.1541 72.0544 42.1541 72.1018 42.1708H72.1759C72.1462 42.1708 72.1581 42.1708 72.1759 42.1875C72.1936 42.2042 72.2144 42.1875 72.2025 42.1875C72.3122 42.1875 72.1551 42.1875 72.167 42.1875C72.1267 42.1825 72.0858 42.1825 72.0455 42.1875C72.0455 42.1875 71.9448 42.1875 72.0455 42.1875H72.1166C72.0603 42.1875 72.0248 42.1875 72.0544 42.2042H72.0929C71.9981 42.2042 72.0929 42.2042 72.0929 42.2265H72.1137H72.0277C71.9833 42.2265 71.9626 42.2265 71.8915 42.2265C72.0129 42.2265 71.7492 42.2433 71.8233 42.2544C71.8974 42.2656 71.9152 42.2544 71.8707 42.2544C71.9951 42.2544 72.1048 42.2544 72.167 42.2321C72.1403 42.2321 72.1225 42.2321 72.167 42.2321H72.0485C71.9744 42.2321 71.927 42.2321 71.8766 42.2321C71.8263 42.2321 71.9981 42.2321 71.9448 42.2321C71.8914 42.2321 71.8203 42.2321 71.8588 42.2488H71.8766C71.924 42.2488 71.8559 42.2655 71.9981 42.2488C72.0307 42.2488 72.0722 42.2488 72.0603 42.2488H72.0396C72.1403 42.2488 72.0129 42.2488 72.1374 42.2488C72.0633 42.2488 72.0811 42.2488 72.0959 42.2655H72.007C71.7492 42.2934 72.1788 42.2655 72.1463 42.2655C72.1137 42.2655 72.1225 42.2655 72.0633 42.2655C72.0781 42.2655 72.1551 42.2655 72.1166 42.2655H72.2944C72.2559 42.2655 72.3388 42.2795 72.244 42.2879C72.1492 42.2962 72.3448 42.2739 72.2203 42.2711H72.1255C72.1255 42.2711 72.084 42.2906 72.1255 42.2934H72.0603C72.0277 42.3074 71.9329 42.3185 71.9626 42.3269C72.0485 42.3269 72.0337 42.3269 72.0396 42.3102C72.1107 42.3102 72.0396 42.3102 72.0751 42.3102C72.1522 42.3102 72.0751 42.3102 72.1433 42.3102H72.1225C71.9981 42.3102 72.1225 42.3102 72.0988 42.3269C72.0125 42.3551 71.9231 42.3738 71.8322 42.3826H71.93C71.8737 42.3826 71.93 42.3826 71.9507 42.3826C72.0087 42.39 72.0675 42.39 72.1255 42.3826C72.09 42.3826 72.0603 42.3826 72.0218 42.3966C71.979 42.3974 71.9363 42.4021 71.8944 42.4105C71.8944 42.4105 71.9922 42.4105 71.9863 42.4105C71.9803 42.4105 72.0159 42.4105 71.9537 42.4105C71.8914 42.4105 71.9003 42.43 71.7996 42.4384H71.8588C71.8588 42.4384 71.9003 42.4384 71.8855 42.4384C71.9833 42.4384 71.8589 42.4384 71.85 42.4523C71.8726 42.4552 71.8955 42.4552 71.9181 42.4523C71.8914 42.4523 71.9181 42.4523 71.9626 42.4523C71.9448 42.4523 71.9003 42.4523 71.8677 42.4523L72.0929 42.4189C72.041 42.4262 71.9895 42.4364 71.9388 42.4495C72.0425 42.43 72.0218 42.4495 72.1433 42.4216C72.2648 42.3938 72.2203 42.4216 72.1936 42.4216C72.1107 42.4384 72.1463 42.4216 72.0603 42.4384C72.0337 42.4579 71.8026 42.4969 71.847 42.5025H71.8203C71.787 42.5159 71.7522 42.5262 71.7166 42.5331C71.8203 42.5136 71.9981 42.4913 71.9803 42.508C71.9626 42.5248 71.8766 42.508 71.7966 42.5359C71.8094 42.5382 71.8224 42.5382 71.8352 42.5359C71.7996 42.5526 71.9744 42.522 71.8529 42.5359L72.007 42.5108H71.9418C71.9125 42.5166 71.8845 42.527 71.8588 42.5415C71.8026 42.561 71.8588 42.5554 71.9151 42.5415C71.8617 42.5489 71.8091 42.5611 71.7581 42.5777C71.927 42.5415 71.8263 42.5777 71.9122 42.5582C71.9122 42.5582 71.9626 42.5582 71.8944 42.5582L71.9981 42.5331C71.8529 42.5694 71.8618 42.5777 71.8381 42.5917C72.0337 42.5415 71.8381 42.5917 72.004 42.561C71.8707 42.5972 71.9537 42.5889 71.844 42.6195C71.898 42.6091 71.9514 42.5961 72.004 42.5805L71.9566 42.5972C72.0188 42.5972 72.0337 42.5972 72.0781 42.5805L71.9626 42.6195H72.0159L71.927 42.6474C71.7996 42.6864 71.8914 42.6641 71.8411 42.6864L71.9092 42.6641L72.0189 42.6335C71.9833 42.6335 71.7966 42.7143 71.7226 42.7255C71.6485 42.7366 71.6366 42.7589 71.6603 42.7561L71.7759 42.7199L71.6574 42.7645C71.6574 42.7645 71.7166 42.7645 71.7285 42.7505C71.7978 42.7203 71.8703 42.697 71.9448 42.6808C71.9755 42.6643 72.0071 42.6494 72.0396 42.6363C72.0624 42.632 72.0844 42.6245 72.1048 42.614C72.0722 42.6335 72.0366 42.6418 72.0248 42.6502C72.0801 42.6306 72.1364 42.6139 72.1936 42.6L72.1196 42.6223H72.09L72.0248 42.6418C72.0248 42.6418 71.9033 42.692 71.9655 42.6725C71.8934 42.6968 71.8231 42.7257 71.7552 42.7589C71.7255 42.7589 71.7226 42.7784 71.7729 42.7589C71.8233 42.7394 71.8855 42.7227 71.9566 42.6948C71.927 42.7087 71.8796 42.7171 71.844 42.7338C71.8085 42.7505 71.9003 42.7338 71.9329 42.7115H71.9507H71.9981C71.9477 42.7338 71.9122 42.7394 71.8885 42.7533C71.8648 42.7673 71.8885 42.7533 71.924 42.7533L72.0988 42.6808C72.0988 42.6808 72.0988 42.7004 71.9892 42.7338C71.9436 42.7449 71.8997 42.7618 71.8588 42.784H71.8766L71.8055 42.8202L71.8588 42.8007L71.8144 42.823L71.8944 42.7923C71.8703 42.8087 71.8445 42.8227 71.8174 42.8342C71.8174 42.8342 71.8174 42.8341 71.8885 42.8035C71.9596 42.7728 71.8885 42.8035 71.9477 42.8035C71.9209 42.8189 71.8932 42.8328 71.8648 42.8453C72.0366 42.77 71.9389 42.8453 71.924 42.8453C71.8749 42.8695 71.8275 42.8965 71.7818 42.9261C71.8233 42.901 71.8974 42.876 71.9329 42.8481C72.0129 42.8091 71.9892 42.8091 72.0988 42.7589C72.0988 42.7589 71.9418 42.8509 71.9981 42.8286C72.0544 42.8063 71.9685 42.8509 72.0751 42.7896L72.1077 42.7673H72.1255C72.1581 42.7673 72.01 42.8369 71.9477 42.8815C71.9477 42.8955 72.0277 42.8397 72.0722 42.8146C72.1166 42.7896 72.0722 42.8146 72.0544 42.8314C72.1107 42.7924 71.9892 42.862 71.927 42.9011C72.0426 42.8369 71.9418 42.9011 71.9003 42.9345C71.7789 42.9958 71.9003 42.9345 71.7581 42.9958C71.7937 42.9735 71.8944 42.915 71.847 42.9317C71.8253 42.9478 71.8014 42.9609 71.7759 42.9707C71.8322 42.9401 71.7966 42.954 71.8203 42.9373C71.768 42.9693 71.7136 42.9982 71.6574 43.0237L71.7966 42.9456C71.7729 42.9456 71.6959 43.0014 71.7255 42.9763C71.6544 43.0209 71.61 43.0376 71.5952 43.0599C71.4707 43.1129 71.6485 43.0042 71.6929 42.9707L71.6574 42.993C71.6929 42.9707 71.69 42.9707 71.6959 42.9624C71.6618 42.9785 71.6291 42.9971 71.5981 43.0181C71.6278 42.9958 71.6159 43.0181 71.5981 43.0181L71.4737 43.0878L71.5655 43.0293C71.5252 43.0444 71.4866 43.063 71.45 43.085V43.0571L71.3522 43.1017C71.3644 43.0888 71.3813 43.0809 71.3996 43.0794C71.3729 43.0794 71.5566 42.9763 71.3641 43.0655C71.4381 43.0153 71.4026 43.0237 71.4441 42.9875C71.3581 43.0376 71.3226 43.0181 71.2841 43.0516C71.2455 43.085 71.3433 43.0125 71.3581 43.0014C71.2965 43.0175 71.2376 43.0419 71.1833 43.0739L71.2248 43.046H71.2041L71.2574 43.0181C71.2011 43.0181 71.1567 43.0543 71.1418 43.0516L71.2278 43.0153L71.1744 43.0293C71.2159 43.0153 71.2307 43.0042 71.2367 42.9958H71.2159C71.1656 43.0237 71.1952 42.9958 71.133 43.0237C71.133 43.0237 71.133 43.0237 71.133 43.0014L71.1952 42.9819C71.2426 42.9484 71.1033 43.0125 71.0915 43.0014L71.1626 42.9791C71.0382 43.0014 71.2189 42.9261 71.1389 42.9401C71.1138 42.9515 71.0881 42.9618 71.0618 42.9707C71.0826 42.9512 71.0619 42.9373 71.1389 42.9011C71.0775 42.9201 71.0138 42.9314 70.9493 42.9345C70.9493 42.9345 70.9493 42.9206 71.0233 42.9011C70.9789 42.9011 71.0233 42.8704 70.9552 42.9011C71.0144 42.8843 70.9552 42.901 70.9907 42.8788H70.9611L71.0322 42.862C70.8663 42.8871 71.1181 42.8147 70.973 42.8342H70.9552H70.9819L70.8871 42.8564L70.8663 42.8286H70.9226C70.9226 42.8286 70.9996 42.8007 70.9522 42.8035C70.8456 42.8397 70.9522 42.8035 70.8604 42.8035H70.8337C70.8337 42.8035 70.8337 42.8035 70.9108 42.7784C70.9345 42.7617 70.7685 42.8007 70.8456 42.7784C70.8796 42.7742 70.9126 42.7648 70.9433 42.7505C70.9257 42.7476 70.9077 42.7476 70.89 42.7505C70.9167 42.7366 70.8752 42.731 70.89 42.7199C70.8577 42.7228 70.8259 42.7294 70.7952 42.7394C70.8545 42.7059 70.7774 42.7394 70.8367 42.7004H70.7952L70.8426 42.6836H70.7508H70.807C70.807 42.6836 70.8426 42.6669 70.807 42.6641H70.7448C70.7745 42.639 70.6352 42.6641 70.7182 42.6251H70.6796C70.7745 42.5917 70.5641 42.6251 70.6796 42.5944H70.6145H70.653H70.5671L70.6915 42.5694H70.6026H70.6441C70.4811 42.5861 70.6026 42.5554 70.4782 42.5694H70.5848C70.8041 42.5108 70.4515 42.522 70.5493 42.4718H70.4634L70.5641 42.4467C70.5247 42.4437 70.485 42.4437 70.4456 42.4467C70.49 42.4272 70.57 42.4272 70.5937 42.4077C70.562 42.4049 70.5302 42.4107 70.5019 42.4244C70.5404 42.4049 70.5848 42.3742 70.5345 42.3687H70.6263C70.6619 42.3687 70.6263 42.3436 70.6263 42.3297C70.6087 42.3263 70.5906 42.3263 70.573 42.3297C70.573 42.3297 70.5404 42.3297 70.573 42.3297H70.5019C70.4841 42.3297 70.5523 42.3018 70.4634 42.3046C70.496 42.3046 70.5611 42.3046 70.5552 42.3046C70.4249 42.3046 70.6115 42.2795 70.5552 42.2711C70.4989 42.2628 70.5167 42.2711 70.5137 42.2711C70.5108 42.2711 70.5404 42.2711 70.5819 42.2488H70.5285L70.5996 42.2154C70.4693 42.2154 70.6174 42.1875 70.5226 42.1959C70.5226 42.1959 70.5789 42.1959 70.5937 42.1959C70.5404 42.1959 70.6204 42.1959 70.5345 42.1959H70.4515C70.5049 42.1838 70.5596 42.1773 70.6145 42.1764C70.57 42.1764 70.6145 42.1596 70.5285 42.1569H70.5108C70.5404 42.1346 70.2767 42.129 70.4189 42.1067H70.3863V42.0927H70.3241L70.4189 42.0677H70.3774C70.3597 42.0537 70.3774 42.0314 70.3774 42.0119H70.3567C70.4249 41.9924 70.3182 41.9952 70.3567 41.9785H70.33H70.2886C70.3804 41.9785 70.1671 41.9506 70.2471 41.959C70.2939 41.9498 70.3415 41.9442 70.3893 41.9422C70.3893 41.9283 70.333 41.9422 70.2975 41.9283C70.2619 41.9144 70.3686 41.9283 70.33 41.9032H70.2856C70.2856 41.9032 70.3241 41.9032 70.33 41.8837C70.4219 41.8837 70.2056 41.8614 70.3923 41.853C70.3567 41.853 70.3923 41.8363 70.2975 41.8335C70.3385 41.8213 70.3781 41.8055 70.416 41.7861C70.2737 41.7861 70.416 41.7861 70.3448 41.7694H70.4189C70.4189 41.7443 70.2441 41.7081 70.2767 41.6802C70.2447 41.6554 70.2227 41.621 70.2145 41.5827C70.256 41.5827 70.3478 41.5827 70.3211 41.5576C70.3656 41.5409 70.3982 41.5186 70.3567 41.4935H70.2826C70.3656 41.4935 70.2826 41.4935 70.2826 41.4768H70.3389C70.41 41.4768 70.3389 41.4628 70.2886 41.4545H70.3715L70.2708 41.4405C70.3181 41.4364 70.3657 41.4364 70.413 41.4405C70.3804 41.4405 70.3567 41.4405 70.336 41.4405L70.3123 41.3987H70.3478C70.4219 41.3987 70.4693 41.3987 70.4367 41.3987C70.3819 41.399 70.3272 41.3934 70.2737 41.382C70.3152 41.382 70.3419 41.382 70.3834 41.382C70.4248 41.382 70.4604 41.382 70.4278 41.3625H70.3952C70.4248 41.3625 70.2945 41.3402 70.3034 41.3318C70.3472 41.3223 70.3928 41.3223 70.4367 41.3318C70.4634 41.3318 70.3508 41.3318 70.3389 41.3151C70.4012 41.3151 70.3626 41.2956 70.2975 41.2872C70.4871 41.2872 70.2323 41.251 70.3893 41.2649L70.3004 41.2454C70.3527 41.2492 70.4052 41.2492 70.4574 41.2454C70.413 41.2454 70.3389 41.2287 70.2945 41.2203H70.4545C70.2886 41.1618 70.41 41.1228 70.2767 41.0614C70.3123 41.0447 70.3893 41.0308 70.3686 41.0057H70.33L70.2915 40.975L70.3597 41.0029C70.3804 41.0029 70.41 41.0029 70.41 41.0029C70.3478 40.9695 70.2708 40.9249 70.3567 40.9054C70.5404 40.9054 70.1997 40.8691 70.333 40.8691H70.2737C70.3406 40.8534 70.4093 40.846 70.4782 40.8468C70.3004 40.8217 70.4782 40.8468 70.3893 40.8217H70.4634C70.4276 40.8091 70.391 40.7989 70.3537 40.7911H70.4456H70.3715C70.3715 40.7911 70.4337 40.7604 70.2826 40.7325C70.4012 40.7325 70.3745 40.6684 70.3537 40.6266C70.416 40.6266 70.4219 40.6266 70.4308 40.6266L70.3419 40.6016C70.3715 40.6016 70.4841 40.6016 70.4308 40.6016H70.4071C70.4278 40.6016 70.3804 40.582 70.4634 40.5876C70.4634 40.5876 70.416 40.5597 70.333 40.5486C70.4811 40.5737 70.3152 40.5235 70.3152 40.5235C70.2776 40.4349 70.2703 40.3374 70.2945 40.2448C70.336 40.111 70.4841 39.966 70.8871 40.019C70.9565 40.025 71.025 40.0381 71.0915 40.058C71.1211 40.058 70.9967 40.019 71.0707 40.0357C71.1448 40.0525 71.2544 40.0803 71.3404 40.1138H71.3581C71.4115 40.1138 71.2989 40.1138 71.3907 40.1305L71.2574 40.0998C71.2864 40.1146 71.3173 40.1258 71.3493 40.1333C71.293 40.1333 71.1122 40.0831 71.1893 40.1166C71.1893 40.1166 71.2722 40.1444 71.293 40.1528L71.3581 40.1779C71.3167 40.1612 71.4263 40.1779 71.4174 40.1779C71.4085 40.1779 71.3848 40.1779 71.367 40.1779C71.4002 40.1913 71.435 40.2007 71.4707 40.2058C71.5329 40.2225 71.4707 40.2058 71.5329 40.2197H71.4618C71.6189 40.2615 71.3818 40.2197 71.53 40.2559C71.5655 40.2603 71.6003 40.2687 71.6337 40.281V40.3005H71.6752C71.7196 40.3145 71.6366 40.3005 71.6366 40.3005C71.6366 40.3005 71.6366 40.3172 71.7344 40.3395C71.8322 40.3618 71.6011 40.3145 71.6574 40.3395C71.7137 40.3646 71.6752 40.3395 71.7403 40.3535H71.7107C71.7433 40.3535 71.8144 40.373 71.8026 40.3535C71.8766 40.4092 72.2085 40.504 72.1166 40.5151C72.1491 40.5257 72.183 40.5314 72.2174 40.5319C72.1107 40.5319 72.3773 40.5988 72.3625 40.6155H72.3003C72.4899 40.6824 72.3655 40.688 72.4396 40.7353H72.3951C72.3627 40.7314 72.3298 40.7314 72.2974 40.7353C72.3299 40.7353 72.4336 40.7576 72.404 40.7604L72.3299 40.7409C72.487 40.7994 72.4337 40.8441 72.5048 40.9026C72.4455 40.95 72.5551 41.0336 72.5048 41.081C72.5048 41.081 72.3536 41.0531 72.3892 41.0642C72.6529 41.1256 72.3418 41.0865 72.5196 41.1339C72.4277 41.1534 72.6529 41.2148 72.4425 41.2148H72.5196C72.5522 41.2148 72.4988 41.2148 72.4929 41.2148H72.5136C72.5403 41.2148 72.4603 41.2315 72.4959 41.2426H72.4129C72.4129 41.2426 72.4751 41.2566 72.4129 41.2566H72.4544H72.404C72.5522 41.2733 72.404 41.2761 72.4781 41.29C72.4514 41.29 72.3862 41.29 72.4129 41.3179C72.4529 41.3238 72.4906 41.3392 72.5225 41.3625C72.5018 41.3792 72.4722 41.4043 72.4959 41.4322H72.3981H72.4425C72.5492 41.4489 72.407 41.4322 72.4722 41.4572C72.3862 41.4433 72.4722 41.4572 72.4573 41.4572C72.4425 41.4572 72.3181 41.4572 72.3655 41.4572H72.3359L72.5196 41.4823C72.5018 41.499 72.3685 41.5018 72.404 41.5269C72.487 41.5269 72.3803 41.5409 72.5255 41.5492C72.4521 41.5475 72.3789 41.5419 72.3062 41.5325C72.3062 41.5325 72.2648 41.5325 72.321 41.5325C72.3773 41.5325 72.4099 41.5325 72.4218 41.5325H72.4633C72.3774 41.5325 72.5551 41.5715 72.4633 41.5799C72.3714 41.5883 72.4633 41.5799 72.3951 41.5799C72.2855 41.5799 72.4899 41.5994 72.4129 41.6105H72.484C72.4336 41.6105 72.3714 41.6105 72.4277 41.6105C72.4651 41.6153 72.5029 41.6153 72.5403 41.6105C72.5403 41.6105 72.5196 41.6273 72.4425 41.6105C72.4129 41.6105 72.4899 41.6105 72.5136 41.6273C72.4929 41.6273 72.4573 41.6273 72.4159 41.6273C72.4662 41.6273 72.4633 41.6524 72.4692 41.6635H72.5344C72.404 41.8948 72.5996 41.906 72.5759 41.9143Z" fill="#1D1D1D"/>
<path d="M72.219 42.209C72.1984 42.2134 72.177 42.2134 72.1564 42.209H72.219Z" fill="#1D1D1D"/>
<path d="M72.0566 42.8356C72.0736 42.8283 72.0736 42.8283 72.0566 42.8356V42.8356Z" fill="#1D1D1D"/>
<path d="M71.8305 42.7108C71.8724 42.6883 71.8563 42.7044 71.8305 42.7108V42.7108Z" fill="#1D1D1D"/>
<path d="M72.0777 42.7946H72.0746L72.0967 42.7852L72.0777 42.7946Z" fill="#1D1D1D"/>
</svg>
