<svg width="48" height="49" viewBox="0 0 48 49" fill="none" xmlns="http://www.w3.org/2000/svg">
<path fill-rule="evenodd" clip-rule="evenodd" d="M48 24.5C48 37.7548 37.2548 48.5 24 48.5C10.7452 48.5 0 37.7548 0 24.5C0 11.2452 10.7452 0.5 24 0.5C37.2548 0.5 48 11.2452 48 24.5ZM24.8601 18.2179C22.5257 19.1888 17.8603 21.1984 10.8638 24.2466C9.72766 24.6984 9.13251 25.1404 9.07834 25.5726C8.98677 26.303 9.90142 26.5906 11.1469 26.9822C11.3164 27.0355 11.4919 27.0907 11.6719 27.1492C12.8973 27.5475 14.5457 28.0135 15.4026 28.0321C16.1799 28.0489 17.0475 27.7284 18.0053 27.0707C24.5423 22.658 27.9168 20.4276 28.1286 20.3795C28.2781 20.3456 28.4852 20.303 28.6255 20.4277C28.7659 20.5524 28.7521 20.7886 28.7372 20.852C28.6466 21.2383 25.0562 24.5762 23.1982 26.3036C22.619 26.8421 22.2081 27.224 22.1242 27.3113C21.936 27.5067 21.7443 27.6915 21.56 27.8692C20.4215 28.9667 19.5678 29.7896 21.6072 31.1336C22.5873 31.7794 23.3715 32.3135 24.1539 32.8463C25.0084 33.4282 25.8606 34.0085 26.9632 34.7313C27.2442 34.9155 27.5125 35.1068 27.7738 35.2931C28.7681 36.0019 29.6615 36.6388 30.7652 36.5373C31.4065 36.4782 32.0689 35.8752 32.4053 34.0767C33.2004 29.8263 34.7633 20.6169 35.1244 16.8219C35.1561 16.4895 35.1163 16.0639 35.0843 15.8771C35.0523 15.6904 34.9855 15.4242 34.7427 15.2272C34.4552 14.9939 34.0113 14.9447 33.8127 14.9482C32.91 14.9641 31.5251 15.4456 24.8601 18.2179Z" fill="#47156C"/>
</svg>
