<svg width="20" height="13" viewBox="0 0 20 13" fill="none" xmlns="http://www.w3.org/2000/svg">
<path d="M19.9425 6.257C19.9133 6.19775 19.2075 4.7885 17.6383 3.37625C15.5475 1.4945 12.9067 0.5 10 0.5C7.09333 0.5 4.4525 1.4945 2.36166 3.37625C0.792493 4.7885 0.0833254 6.2 0.0574921 6.257C0.0195863 6.33373 0 6.41677 0 6.50075C0 6.58473 0.0195863 6.66777 0.0574921 6.7445C0.0866587 6.80375 0.792493 8.21225 2.36166 9.6245C4.4525 11.5055 7.09333 12.5 10 12.5C12.9067 12.5 15.5475 11.5055 17.6383 9.6245C19.2075 8.21225 19.9133 6.80375 19.9425 6.7445C19.9804 6.66777 20 6.58473 20 6.50075C20 6.41677 19.9804 6.33373 19.9425 6.257ZM10 11.3C7.435 11.3 5.19416 10.4608 3.33916 8.80625C2.57806 8.125 1.93051 7.3482 1.41666 6.5C1.93032 5.65169 2.57788 4.87486 3.33916 4.19375C5.19416 2.53925 7.435 1.7 10 1.7C12.565 1.7 14.8058 2.53925 16.6608 4.19375C17.4234 4.87475 18.0724 5.65156 18.5875 6.5C17.9867 7.5095 15.3692 11.3 10 11.3ZM10 2.9C9.20887 2.9 8.43551 3.11114 7.77772 3.50671C7.11992 3.90228 6.60723 4.46453 6.30448 5.12234C6.00173 5.78015 5.92251 6.50399 6.07686 7.20233C6.2312 7.90066 6.61216 8.54212 7.17157 9.04559C7.73098 9.54906 8.44371 9.89192 9.21964 10.0308C9.99556 10.1697 10.7998 10.0984 11.5307 9.82597C12.2616 9.55349 12.8864 9.09207 13.3259 8.50005C13.7654 7.90804 14 7.21201 14 6.5C13.9989 5.54553 13.5771 4.63043 12.8272 3.95551C12.0773 3.2806 11.0605 2.90099 10 2.9ZM10 8.9C9.47258 8.9 8.95701 8.75924 8.51848 8.49553C8.07995 8.23181 7.73815 7.85698 7.53632 7.41844C7.33449 6.9799 7.28168 6.49734 7.38457 6.03178C7.48746 5.56623 7.74144 5.13859 8.11438 4.80294C8.48732 4.4673 8.96247 4.23872 9.47976 4.14612C9.99704 4.05351 10.5332 4.10104 11.0205 4.28269C11.5078 4.46434 11.9242 4.77195 12.2173 5.16663C12.5103 5.56131 12.6667 6.02532 12.6667 6.5C12.6667 7.13652 12.3857 7.74697 11.8856 8.19706C11.3855 8.64714 10.7072 8.9 10 8.9Z" fill="#C8A5FC"/>
<path d="M19.9425 6.257C19.9133 6.19775 19.2075 4.7885 17.6383 3.37625C15.5475 1.4945 12.9067 0.5 10 0.5C7.09333 0.5 4.4525 1.4945 2.36166 3.37625C0.792493 4.7885 0.0833254 6.2 0.0574921 6.257C0.0195863 6.33373 0 6.41677 0 6.50075C0 6.58473 0.0195863 6.66777 0.0574921 6.7445C0.0866587 6.80375 0.792493 8.21225 2.36166 9.6245C4.4525 11.5055 7.09333 12.5 10 12.5C12.9067 12.5 15.5475 11.5055 17.6383 9.6245C19.2075 8.21225 19.9133 6.80375 19.9425 6.7445C19.9804 6.66777 20 6.58473 20 6.50075C20 6.41677 19.9804 6.33373 19.9425 6.257ZM10 11.3C7.435 11.3 5.19416 10.4608 3.33916 8.80625C2.57806 8.125 1.93051 7.3482 1.41666 6.5C1.93032 5.65169 2.57788 4.87486 3.33916 4.19375C5.19416 2.53925 7.435 1.7 10 1.7C12.565 1.7 14.8058 2.53925 16.6608 4.19375C17.4234 4.87475 18.0724 5.65156 18.5875 6.5C17.9867 7.5095 15.3692 11.3 10 11.3ZM10 2.9C9.20887 2.9 8.43551 3.11114 7.77772 3.50671C7.11992 3.90228 6.60723 4.46453 6.30448 5.12234C6.00173 5.78015 5.92251 6.50399 6.07686 7.20233C6.2312 7.90066 6.61216 8.54212 7.17157 9.04559C7.73098 9.54906 8.44371 9.89192 9.21964 10.0308C9.99556 10.1697 10.7998 10.0984 11.5307 9.82597C12.2616 9.55349 12.8864 9.09207 13.3259 8.50005C13.7654 7.90804 14 7.21201 14 6.5C13.9989 5.54553 13.5771 4.63043 12.8272 3.95551C12.0773 3.2806 11.0605 2.90099 10 2.9ZM10 8.9C9.47258 8.9 8.95701 8.75924 8.51848 8.49553C8.07995 8.23181 7.73815 7.85698 7.53632 7.41844C7.33449 6.9799 7.28168 6.49734 7.38457 6.03178C7.48746 5.56623 7.74144 5.13859 8.11438 4.80294C8.48732 4.4673 8.96247 4.23872 9.47976 4.14612C9.99704 4.05351 10.5332 4.10104 11.0205 4.28269C11.5078 4.46434 11.9242 4.77195 12.2173 5.16663C12.5103 5.56131 12.6667 6.02532 12.6667 6.5C12.6667 7.13652 12.3857 7.74697 11.8856 8.19706C11.3855 8.64714 10.7072 8.9 10 8.9Z" stroke="#C8A5FC"/>
</svg>
