<svg width="150" height="136" viewBox="0 0 150 136" fill="none" xmlns="http://www.w3.org/2000/svg">
<path d="M81.3232 96.7249C81.3232 96.7249 41.5837 86.1306 39.8846 90.5792C39.8846 90.5792 40.3 93.9695 38.4015 94.3969C36.503 94.8243 30.3423 88.0395 21.2195 94.8119L12.0802 101.593C12.0802 101.593 10.809 105.406 12.0802 106.253C13.3514 107.099 6.35146 109.643 4.65652 113.668C2.96159 117.694 -3.61871 130.197 6.56336 130.197C16.7454 130.197 22.2623 131.487 26.9192 132.96C31.5761 134.434 39.8804 131.259 41.1392 129.562C42.3979 127.865 43.2495 129.773 51.7367 130.197C60.2238 130.62 63.6178 128.292 65.3127 127.657C67.0077 127.022 81.3232 96.7249 81.3232 96.7249Z" fill="#F48C07" stroke="#F48C07" stroke-width="0.25" stroke-miterlimit="10"/>
<path d="M49.4398 114.104C53.4695 123.425 57.0379 124.479 60.3863 127.96C60.9413 128.537 61.6071 128.995 62.3438 129.308C63.0805 129.621 63.8729 129.782 64.6735 129.782H82.9937C81.9469 131.135 81.4649 132.608 82.8691 133.703C85.3949 135.675 94.0274 135.712 98.2814 135.604H98.3021C102.552 135.712 111.18 135.675 113.71 133.703C115.114 132.608 114.632 131.135 113.586 129.782H128.927C130.494 129.783 131.996 129.163 133.106 128.06C136.509 124.669 143.866 116.806 147.231 109.125C151.688 98.9494 149.034 87.5086 148.398 86.1309C147.763 84.7532 139.259 60.9171 139.259 60.9171C141.456 60.7013 143.214 57.5268 142.366 53.8169C141.519 50.107 133.775 44.6875 129.638 41.3137C125.5 37.94 122.85 28.7068 122.638 27.8603C122.426 27.0137 123.273 11.5435 123.273 11.5435C122.214 10.2696 117.403 12.6017 117.403 12.6017L105.95 19.0296C103.042 16.768 95.4149 16.3448 95.4149 16.3448L89.8981 0.874569C89.8981 0.874569 88.9094 -1.80616 86.7866 2.21908C84.6637 6.24432 79.3629 18.3242 78.7273 21.5029C78.0917 24.6816 69.3927 36.1224 66.2105 39.5127C63.0284 42.903 63.0284 49.4721 63.0284 49.4721C63.0284 49.4721 58.7869 57.0993 57.2997 61.6723C56.3757 64.6001 55.7371 67.6102 55.3929 70.6607C46.8933 91.6417 44.6666 103.07 49.4398 114.104Z" fill="#FFC374"/>
<path d="M100.771 37.29C101.406 39.921 102.652 41.4937 104.979 41.4937C107.305 41.4937 108.801 39.6139 109.428 37.3772C110.313 34.2359 108.431 31.1816 106.105 31.1816C103.778 31.1816 100.085 34.4558 100.771 37.29Z" fill="white"/>
<path d="M100.487 35.3931C100.487 37.9369 101.733 39.0905 103.96 39.0905C106.186 39.0905 107.981 37.0156 107.981 34.4884C107.981 31.9612 107.2 30.8242 104.977 30.8242C103.789 30.8754 102.664 31.3757 101.83 32.2238C100.996 33.072 100.516 34.2048 100.487 35.3931Z" fill="black"/>
<path d="M105.929 35.2007C105.339 35.2007 104.861 34.569 104.861 33.7898C104.861 33.0106 105.339 32.3789 105.929 32.3789C106.519 32.3789 106.997 33.0106 106.997 33.7898C106.997 34.569 106.519 35.2007 105.929 35.2007Z" fill="white"/>
<path d="M86.167 34.5696C86.8026 37.2005 88.0489 38.7691 90.3711 38.7691C92.6934 38.7691 94.1972 36.8893 94.8245 34.6567C95.7094 31.5112 93.8275 28.457 91.5011 28.457C89.1747 28.457 85.4774 31.727 86.167 34.5696Z" fill="white"/>
<path d="M85.8832 32.6724C85.8832 35.212 87.1294 36.3698 89.352 36.3698C91.5745 36.3698 93.3774 34.2949 93.3774 31.7636C93.3774 29.2323 92.5923 28.1035 90.3739 28.1035C89.1851 28.1547 88.06 28.655 87.2264 29.5031C86.3927 30.3513 85.9126 31.4841 85.8832 32.6724Z" fill="black"/>
<path d="M91.32 32.482C90.7304 32.482 90.2524 31.8503 90.2524 31.0711C90.2524 30.2919 90.7304 29.6602 91.32 29.6602C91.9097 29.6602 92.3877 30.2919 92.3877 31.0711C92.3877 31.8503 91.9097 32.482 91.32 32.482Z" fill="white"/>
<path d="M121.241 13.767C121.241 13.767 117.423 28.0711 116.671 29.6605C115.919 31.2498 115.504 26.9051 114.652 26.5856C113.8 26.266 111.258 23.938 109.883 23.7264C108.508 23.5148 108.504 23.0126 109.468 21.888C110.431 20.7635 120.078 13.2359 121.241 13.767Z" fill="#F48C07"/>
<path d="M92.4859 17.7937C92.4859 17.7937 92.274 18.6236 91.5304 18.5863C90.7868 18.5489 87.3429 19.0635 86.8652 19.7025C86.3874 20.3416 85.486 21.5533 84.7423 21.4496C83.9987 21.3459 83.683 18.5863 84.1608 16.3122C84.6385 14.0382 87.6462 6.03333 88.2112 5.13284C88.6043 4.5494 89.1222 4.06041 89.7275 3.70117C89.7275 3.70117 92.7642 15.8848 92.4859 17.7937Z" fill="#F48C07"/>
<path d="M108.799 57.4502C108.799 57.4502 99.1656 61.5791 97.9983 61.6704C96.8309 61.7617 84.8667 64.5172 78.9261 51.9061C78.9261 51.9061 76.3671 50.213 84.4305 54.6615C92.4939 59.11 106.539 59.9234 108.799 57.4502Z" fill="#F48C07" stroke="#F48C07" stroke-width="0.25" stroke-miterlimit="10"/>
<path d="M99.3936 43.0598C99.3936 43.0598 99.3935 39.7401 98.0019 37.5324C96.6102 35.3247 92.8132 41.4539 92.8132 41.4539L99.3936 43.0598Z" fill="#F48C07" stroke="#F48C07" stroke-width="0.25" stroke-miterlimit="10"/>
<path d="M114.268 26.404L116.574 20.0176L111.236 24.2213L114.268 26.404Z" fill="black"/>
<path d="M90.2974 18.686C89.6606 16.7725 89.1895 14.808 88.8891 12.8141C88.4113 9.58146 88.4736 11.0131 88.4736 11.0131C88.4736 11.0131 86.5461 18.8976 86.3965 19.7027C86.247 20.5077 87.0446 19.7898 87.809 19.2172C88.5734 18.6445 90.2974 18.686 90.2974 18.686Z" fill="black"/>
<path d="M99.5483 43.114C99.5483 43.114 96.1543 45.5499 95.2362 45.5499C94.3181 45.5499 92.7437 41.9148 92.7977 41.4542C92.8517 40.9935 99.5483 43.114 99.5483 43.114Z" fill="black"/>
<path d="M94.8179 44.9824C94.3194 47.8872 96.3467 50.4808 98.6855 51.9084L97.9627 51.2278C96.488 49.709 95.3497 47.4681 96.0102 45.3476L94.8179 44.9824Z" fill="black"/>
<path d="M94.7162 45.3145C93.8854 47.3893 91.5798 48.3894 89.4736 48.6342L88.4848 48.7048L89.4777 48.7919C91.7169 48.8957 94.1429 48.1736 95.5429 46.3021C95.6663 46.1399 95.7761 45.9678 95.8711 45.7875L94.7162 45.3145Z" fill="black"/>
<path d="M122.964 80.5164L123.292 80.3795C122.22 80.3795 121.709 80.4168 120.857 80.1304L120.899 80.1678C120.762 80.1678 120.758 79.9354 119.324 79.7529C119.283 79.7529 119.291 79.7072 119.187 79.7031H119.441C119.32 79.6007 119.189 79.5103 119.05 79.4333C119.035 79.4316 119.02 79.4337 119.006 79.4395C118.993 79.4454 118.98 79.4547 118.971 79.4665C118.826 79.4043 118.693 79.3212 118.556 79.2507H118.394C118.282 79.147 118.419 79.0266 118.032 78.9395C118.211 78.9021 117.899 78.786 117.97 78.7569H117.825C117.606 78.6302 117.405 78.4754 117.227 78.2963L117.704 78.4C117.921 78.4576 118.144 78.491 118.369 78.4996C118.078 78.3876 118.302 78.454 118.369 78.4415V78.4789C118.548 78.5328 118.581 78.4789 118.672 78.4789C118.672 78.4789 118.672 78.4789 118.672 78.5079C118.672 78.537 118.672 78.537 118.714 78.5536C118.79 78.5994 118.871 78.637 118.955 78.6656L118.98 78.6075C119.05 78.7943 119.889 78.7942 120.051 78.8523C120.247 78.8523 120.425 78.9976 120.65 79.0267C120.999 79.1013 120.845 78.9852 121.032 78.9769C121.219 78.9686 120.969 79.0349 121.032 79.0598L121.306 79.035C121.161 78.9935 121.252 78.9768 121.281 78.9602C121.505 79.0059 121.867 78.927 121.917 79.0681C122.22 79.0681 122.224 78.981 122.332 78.9893C122.286 78.9893 122.203 79.0225 122.199 79.0474C122.324 79.0017 122.257 79.0474 122.199 79.0764C122.381 79.0928 122.565 79.0731 122.739 79.0183C122.951 78.9644 123.155 78.927 123.155 78.9934V78.9685C123.204 79.064 123.155 79.1719 123.279 79.2092L123.358 79.1553L123.491 79.1802C123.574 79.1387 123.524 79.1138 123.524 79.1013C123.775 79.0889 124.02 79.0284 124.247 78.9229C124.189 79.0433 124.123 79.147 124.056 79.259C124.264 79.1594 124.584 78.8897 124.658 78.9685C124.689 78.925 124.717 78.8792 124.742 78.8316C125.057 78.4954 125.049 78.786 125.182 78.6573L125.319 78.4664L125.136 78.5702C125.257 78.4629 125.364 78.3417 125.456 78.2091H125.481C125.531 78.2382 125.639 78.2091 125.759 78.122C125.972 78.0061 126.151 77.8393 126.283 77.6365H126.416C126.461 77.5618 126.515 77.4912 126.557 77.4166L126.499 77.3584C126.412 77.4456 126.279 77.5576 126.137 77.6821C125.996 77.8066 125.838 77.9104 125.722 77.9934L125.697 77.9643C125.847 77.8647 126.029 77.7527 126.112 77.6738C126.196 77.595 126.2 77.4497 126.083 77.4871H126.216C126.548 77.2205 126.814 76.8812 126.993 76.4953V76.5658C127.089 76.4745 127.184 76.3833 127.151 76.3169C127.349 76.0223 127.479 75.688 127.533 75.3375H127.645C127.679 75.2587 127.6 75.0885 127.737 75.1093L127.849 74.964C127.89 74.8603 127.965 74.8188 127.961 74.6777V74.7068C128.015 74.4536 128.048 74.7441 128.094 74.4495C128.061 74.3374 128.248 74.3914 128.273 74.2461L128.177 74.0677C128.177 73.8063 128.323 73.798 128.397 73.4452C128.397 73.2668 128.264 73.1838 128.148 73.2668C128.293 73.1506 128.248 73.2087 128.318 73.0469C128.269 73.0178 128.256 73.0469 128.206 73.0469C128.156 72.9016 128.256 72.968 128.256 72.885C128.36 72.8643 128.509 72.8394 128.514 72.8145H128.547C128.571 72.7704 128.576 72.7187 128.562 72.6705C128.548 72.6224 128.516 72.5817 128.472 72.5572L128.431 72.5863C128.419 72.5495 128.402 72.5146 128.381 72.4825L128.331 72.5198C128.306 72.47 128.256 72.441 128.223 72.3954H128.248C128.221 72.3609 128.188 72.3322 128.15 72.3108C128.112 72.2894 128.071 72.2758 128.028 72.2709V72.3041C127.799 72.3331 127.654 72.163 127.367 72.2128L127.417 72.2709C127.35 72.3663 127.367 72.1713 127.271 72.2335V72.3207C127.143 72.246 127.172 72.3995 127.139 72.4576L127.109 72.3414C127.074 72.3659 127.042 72.3952 127.014 72.4286C126.918 72.5448 127.014 72.5946 127.085 72.636C127.042 72.6301 126.998 72.6301 126.956 72.636L127.014 72.7273C126.885 72.69 126.981 72.7854 126.852 72.8228C126.852 72.856 126.91 72.8477 126.898 72.8933L126.653 72.9722L126.785 72.9058L126.657 72.8311C126.47 72.8767 126.557 73.0053 126.466 73.0759L126.544 73.0344C126.428 73.1755 126.47 73.2046 126.466 73.3166C126.466 73.2751 126.432 73.2087 126.387 73.2751C126.341 73.3415 126.424 73.3249 126.42 73.3789C126.324 73.3498 126.216 73.466 126.225 73.5905H126.262C126.241 73.5905 126.212 73.6154 126.225 73.661H126.341C126.298 73.674 126.256 73.6907 126.216 73.7108C126.241 73.7606 126.15 73.8229 126.216 73.8229L126.241 73.798C126.233 73.9041 126.255 74.0104 126.304 74.1051L126.387 74.076C126.279 74.1507 126.495 74.1964 126.362 74.2628C126.457 74.2628 126.495 74.5159 126.59 74.3624C126.777 74.5076 126.844 74.7524 127.251 74.8064C127.425 74.7109 127.782 74.8354 128.057 74.8064C128.536 74.8895 129.028 74.8754 129.502 74.7649C129.756 74.4744 130.333 74.5076 130.607 74.2005H130.736C130.877 73.964 131.28 73.8478 131.463 73.5116C131.514 73.4944 131.563 73.4707 131.609 73.4411C131.609 73.4411 131.609 73.4826 131.609 73.5283C131.658 73.4287 131.841 73.3166 131.754 73.2502H131.729C131.642 73.1921 131.974 73.0552 131.982 72.9058L132.024 73.0261C132.065 72.9731 132.102 72.9177 132.136 72.8602L132.086 72.8892C132.375 72.6887 132.6 72.4092 132.734 72.0842C132.85 71.7965 132.989 71.5189 133.15 71.2542C133.013 71.3165 133.237 71.1339 133.108 71.1007C132.984 70.9098 133.175 70.806 133.229 70.6566H133.254L133.216 70.416C133.171 70.4491 133.137 70.4989 133.216 70.416C133.262 70.3828 133.27 70.3122 133.216 70.391C133.094 70.0455 132.926 69.7176 132.718 69.4159C132.467 69.0578 132.153 68.7484 131.791 68.5029H131.849C131.683 68.3476 131.49 68.2226 131.28 68.1336C131.098 68.1004 131.014 67.8431 130.956 67.8016C130.823 67.6398 130.595 67.6813 130.674 67.7186C130.503 67.6024 130.395 67.3742 130.101 67.3037C129.955 67.3825 129.423 66.8513 129.353 66.9966C128.962 66.9592 128.696 66.6604 128.277 66.6272V66.6563C128.065 66.4156 127.861 66.1791 127.616 65.955C127.737 65.8014 127.866 65.652 127.994 65.5068C128.281 65.4362 128.568 65.3782 128.858 65.3242C129.514 65.5774 130.154 65.8712 130.774 66.204C131.317 66.3984 131.845 66.6342 132.352 66.9094C132.977 67.3312 133.529 67.8528 133.985 68.4531C134.502 69.1339 134.777 69.9679 134.766 70.8226C134.72 70.9471 134.674 71.0633 134.629 71.1795C134.636 71.7082 134.492 72.2279 134.213 72.6775C133.935 73.1382 133.652 73.5075 133.416 73.9225L133.324 73.8727C133.246 73.9474 133.198 74.0475 133.187 74.1549C132.377 75.0772 131.343 75.7748 130.184 76.1799C129.036 76.5921 127.789 76.6428 126.611 76.3252C126.409 76.2954 126.215 76.2279 126.038 76.126C125.818 76.0222 125.622 75.877 125.506 75.8396C125.162 75.4881 124.903 75.0622 124.75 74.5947C124.604 74.1188 124.604 73.61 124.75 73.134V73.1672C124.789 73.0473 124.837 72.9307 124.895 72.8186C124.895 72.8186 124.895 72.7937 124.87 72.8186C125.111 72.3248 125.405 71.8587 125.747 71.4285H125.714C126.026 71.1159 126.412 70.8873 126.836 70.7639C127.26 70.6406 127.709 70.6265 128.14 70.723C128.595 70.8168 129.013 71.0441 129.338 71.376C129.664 71.7079 129.883 72.1293 129.968 72.5863C129.995 72.797 129.995 73.0104 129.968 73.2212C129.968 73.3996 129.922 73.5656 129.889 73.7274C129.822 74.0511 129.731 74.354 129.639 74.6611C129.444 75.2707 129.205 75.8656 128.925 76.4414C128.485 77.595 127.4 78.6158 126.237 79.4997C126.077 79.6383 125.9 79.7554 125.709 79.8483C125.564 79.923 125.394 79.9977 125.215 80.0765C125.036 80.1553 124.837 80.2052 124.642 80.2716C124.099 80.4429 123.533 80.5255 122.964 80.5164Z" fill="#F59923"/>
<path d="M124.317 78.9554L124.3 78.9596L124.337 78.8848L124.317 78.9554Z" fill="#F59923"/>
<path d="M84.5549 91.306L84.9703 91.4679C83.8486 90.5923 83.3086 90.223 82.5733 89.2478L82.5941 89.3183C82.5276 89.2602 82.5235 89.1731 82.3614 88.9366C82.003 88.4693 81.6115 88.0282 81.1899 87.6169C81.1684 87.5524 81.1296 87.495 81.0778 87.4509L81.3187 87.6958C81.2506 87.4901 81.1659 87.2902 81.0653 87.0982C81.0542 87.0838 81.0396 87.0724 81.0229 87.0652C81.0062 87.0579 80.9879 87.055 80.9698 87.0567L80.6707 86.4716C80.6125 86.4259 80.5585 86.3762 80.5045 86.3264C80.4588 86.1147 80.6457 86.1355 80.3383 85.6749C80.5253 85.8243 80.3051 85.3885 80.3882 85.43C80.3632 85.43 80.3217 85.3594 80.2843 85.3179C80.2178 85.1123 80.1692 84.9013 80.1389 84.6872C80.1107 84.5002 80.1107 84.3099 80.1389 84.1228L80.2012 84.3594C80.2012 84.4258 80.2469 84.5129 80.276 84.5959L80.3965 84.8408C80.4761 85.0054 80.5706 85.1624 80.679 85.3097C80.7499 85.4202 80.832 85.5231 80.9241 85.6168C80.7288 85.2308 80.8908 85.5089 80.9615 85.5711V85.6085C81.0944 85.8284 81.1609 85.7952 81.2356 85.9031H81.2149C81.2149 85.9031 81.1899 85.9031 81.2149 85.9861C81.2602 86.1004 81.3187 86.209 81.3893 86.3097L81.4475 86.2807C81.4226 86.5173 82.2368 87.2808 82.3988 87.4634C82.5608 87.646 82.7062 87.9323 82.9347 88.1481C83.2629 88.5216 83.1549 88.2892 83.3502 88.4386C83.5454 88.5879 83.2505 88.4385 83.3502 88.534L83.6659 88.7539C83.5246 88.588 83.6326 88.6502 83.6659 88.6627C83.8777 88.9033 84.3181 89.1606 84.2973 89.3225C84.6421 89.5839 84.7127 89.5258 84.8249 89.642C84.7667 89.642 84.6587 89.559 84.6421 89.5756C84.8083 89.6461 84.6961 89.6379 84.6421 89.6047C84.8357 89.7788 85.0523 89.9254 85.286 90.0403C85.5602 90.1856 85.8053 90.3226 85.7887 90.3973C85.7887 90.5135 85.6391 90.5466 85.7638 90.6877L85.8926 90.7126L86.0255 90.8454C86.146 90.8786 86.1086 90.8454 86.1169 90.8163C86.4073 91.0191 86.7266 91.1772 87.0641 91.2853L86.6029 91.3724L87.1513 91.5052C87.3341 91.5343 87.4795 91.5758 87.4961 91.6256L87.6955 91.5965C88.0029 91.6214 88.1109 91.6214 88.1525 91.6795C88.194 91.7376 88.2065 91.7791 88.3311 91.775L88.6385 91.7335L88.3519 91.6754C88.5694 91.6911 88.788 91.6729 88.9999 91.6214H88.9708H89.0082C89.0415 91.6795 89.1952 91.7127 89.3987 91.7169C89.7358 91.7465 90.0754 91.7055 90.3957 91.5965L90.5287 91.6837C90.645 91.6505 90.7572 91.6048 90.8735 91.5592V91.4762C90.4014 91.5671 89.921 91.6088 89.4403 91.6007V91.5592C89.6838 91.5745 89.928 91.5745 90.1714 91.5592C90.2545 91.5592 90.4539 91.4181 90.2919 91.3849L90.4622 91.443C90.7551 91.4098 91.0443 91.3501 91.3263 91.2646C91.6122 91.171 91.8901 91.0544 92.1572 90.916L92.099 90.9823C92.2776 90.9492 92.4563 90.8952 92.477 90.8163C92.9437 90.6255 93.3675 90.3433 93.7233 89.9864L93.8396 90.0321C93.9352 89.9698 93.9933 89.7499 94.118 89.8329L94.3423 89.7291C94.4586 89.6295 94.5749 89.6213 94.6746 89.4636V89.4304C94.9114 89.1731 94.7369 89.5051 94.9945 89.1938C95.036 89.061 95.1856 89.1938 95.3019 89.0361C95.3019 88.9573 95.3268 88.8784 95.331 88.7996C95.3879 88.6868 95.4687 88.5877 95.5678 88.5091C95.6949 88.4093 95.8008 88.2851 95.8794 88.1439C95.9334 87.9282 95.8794 87.8037 95.7091 87.8742C95.8918 87.7663 95.8212 87.8369 95.9458 87.646C95.9043 87.6003 95.8877 87.6211 95.8337 87.646C95.8087 87.4593 95.9168 87.5464 95.9251 87.4219C96.0248 87.4219 96.1992 87.3596 96.1992 87.314C96.213 87.3311 96.2229 87.3509 96.2283 87.3721C96.2653 87.2914 96.2812 87.2027 96.2747 87.1142C96.2681 87.0257 96.2393 86.9403 96.1909 86.8658H96.1452C96.1369 86.8012 96.1187 86.7382 96.0912 86.6791H96.0289C95.9897 86.5927 95.9439 86.5095 95.8918 86.4301L95.9292 86.455C95.8459 86.3188 95.7322 86.2038 95.5969 86.1189V86.1479C95.4193 86.0489 95.2523 85.9321 95.0984 85.7993C94.9795 85.6884 94.8377 85.6048 94.6829 85.5545C94.6848 85.5794 94.6848 85.6043 94.6829 85.6292C94.6123 85.6956 94.6829 85.513 94.5832 85.5504V85.6416C94.4918 85.542 94.5043 85.6873 94.5126 85.7412C94.4949 85.7049 94.4796 85.6675 94.4669 85.6292C94.4475 85.6521 94.4308 85.6772 94.4171 85.7039C94.3797 85.8159 94.5002 85.8325 94.5542 85.8699C94.5209 85.8699 94.4752 85.8699 94.4295 85.8699L94.5126 85.9363C94.3714 85.9363 94.5126 86.0068 94.388 86.1479C94.4212 86.1728 94.4545 86.1479 94.4545 86.1977C94.3785 86.2847 94.3117 86.3793 94.2551 86.4799C94.2841 86.4177 94.3132 86.3513 94.3464 86.2932H94.1969C94.0473 86.4924 94.1678 86.5919 94.1221 86.7496L94.172 86.6376C94.1221 86.899 94.1928 86.9198 94.2343 87.0526C94.2011 87.0069 94.1554 86.9364 94.1429 87.0526C94.1304 87.1688 94.1969 87.0941 94.2218 87.1646C94.1221 87.1895 94.0889 87.397 94.1678 87.5796C94.1678 87.5796 94.1969 87.5796 94.2011 87.5547C94.1902 87.5781 94.1847 87.6036 94.1847 87.6294C94.1847 87.6552 94.1902 87.6806 94.2011 87.704L94.3008 87.6335C94.2758 87.6916 94.2509 87.7456 94.2301 87.8037C94.2841 87.895 94.2301 88.0526 94.3174 88.0194V87.9572C94.3529 88.0731 94.3988 88.1856 94.4545 88.2933C94.4935 88.3836 94.5438 88.4686 94.604 88.5465L94.6788 88.5008C94.5874 88.6004 94.9197 88.6876 94.8076 88.783C94.9405 88.8079 95.223 89.1689 95.2438 88.978C95.6592 89.2436 95.8628 89.5382 96.4901 89.7333C96.9327 89.8014 97.3662 89.9197 97.782 90.086C98.4874 90.3669 99.2196 90.5754 99.9672 90.7085C100.499 90.5716 101.263 90.8745 101.82 90.7085L101.974 90.7749C102.331 90.6255 102.908 90.6919 103.369 90.4471C103.443 90.4528 103.516 90.4528 103.59 90.4471C103.573 90.4543 103.56 90.4668 103.552 90.4826C103.543 90.4985 103.541 90.5166 103.544 90.5342C103.673 90.4595 103.959 90.418 103.914 90.3226H103.876C103.818 90.2271 104.292 90.2271 104.404 90.0653L104.371 90.2063L104.607 90.0694H104.533C104.787 90.0085 105.031 89.9091 105.256 89.7748C105.437 89.6544 105.606 89.5153 105.758 89.3598C105.908 89.2146 106.057 89.0735 106.203 88.9075C106.348 88.7415 106.527 88.5838 106.739 88.3929C106.552 88.4386 106.93 88.2602 106.818 88.1647C106.818 87.841 107.133 87.7497 107.274 87.5547H107.304C107.358 87.426 107.424 87.3099 107.474 87.1771C107.225 87.3389 107.719 86.9571 107.499 87.1107C107.669 86.5836 107.877 85.9985 108.026 85.3844C108.184 84.7833 108.219 84.1568 108.13 83.5419L108.18 83.5875C108.172 83.2871 108.101 82.9917 107.972 82.7203C107.844 82.5335 107.906 82.2181 107.864 82.1351C107.827 81.8654 107.569 81.7451 107.636 81.8322C107.561 81.5325 107.411 81.2568 107.2 81.0313C107.104 81.0313 106.959 80.8072 106.784 80.6163C106.61 80.4254 106.46 80.2428 106.406 80.3051C105.953 80.081 105.658 79.6577 105.123 79.4751V79.5083C104.872 79.1865 104.594 78.8867 104.292 78.612C104.455 78.4772 104.626 78.3512 104.803 78.2344C105.199 78.2355 105.594 78.2632 105.987 78.3173C106.886 78.8407 107.675 79.5342 108.309 80.359C108.898 80.9982 109.341 81.757 109.609 82.5833C109.727 83.0992 109.785 83.6269 109.784 84.1561C109.771 84.6702 109.707 85.1817 109.593 85.6831C109.485 86.1683 109.339 86.6443 109.156 87.1065C108.977 87.5671 108.766 88.0149 108.525 88.4469C108.423 88.5555 108.315 88.658 108.201 88.7539C107.932 89.3604 107.526 89.897 107.017 90.3226C106.494 90.7628 105.939 91.1623 105.355 91.5177L105.289 91.4347C105.147 91.4825 105.023 91.5704 104.931 91.6878C103.393 92.2797 101.731 92.4779 100.096 92.2647C98.5886 92.0941 97.1106 91.7243 95.7007 91.165C95.269 91.0032 94.8461 90.819 94.4337 90.613C94.2384 90.4512 94.039 90.2852 93.8396 90.1026C93.6093 89.8978 93.4055 89.665 93.2331 89.4096C93.1459 89.2784 93.0709 89.1395 93.0088 88.9947C92.9548 88.8702 92.9008 88.7415 92.8551 88.6129C92.7639 88.3645 92.693 88.1092 92.6432 87.8493V87.8908C92.615 87.7303 92.5969 87.5681 92.5892 87.4053C92.5892 87.4053 92.5643 87.4053 92.5601 87.4053C92.5934 86.8534 92.4937 85.9985 92.8094 85.2059L92.7761 85.2474C92.8413 85.1033 92.9177 84.9646 93.0046 84.8325C93.1173 84.6787 93.2485 84.5393 93.3951 84.4175C93.6959 84.1633 94.0733 84.0172 94.4669 84.0025C94.8146 83.9921 95.1596 84.0661 95.4723 84.2183C95.7163 84.3292 95.9464 84.4685 96.1577 84.6333C96.3469 84.7773 96.5272 84.9325 96.6978 85.0981C96.8928 85.2851 97.0657 85.4939 97.2129 85.7205C97.5234 86.2161 97.6688 86.7972 97.6283 87.3804C97.5814 87.9068 97.4167 88.4159 97.1464 88.8701C96.9061 89.2769 96.6174 89.6531 96.2865 89.9906C95.6574 90.6339 94.9465 91.192 94.172 91.6504C93.4233 92.1438 92.5916 92.4981 91.7168 92.6962C90.7646 92.9247 89.7881 93.0362 88.8088 93.0282C87.9958 93.0116 87.1951 92.8265 86.4575 92.4845C85.7701 92.1848 85.1293 91.7879 84.5549 91.306Z" fill="#F59923"/>
<path d="M60.2154 67.8322L60.3691 68.1144C60.3401 67.1807 60.2279 66.7325 60.4232 65.9399L60.3899 65.9814C60.3899 65.9233 60.4522 65.8818 60.5062 65.6993C60.5853 65.3 60.6284 64.8945 60.635 64.4875C60.635 64.4419 60.6724 64.4502 60.6766 64.3506C60.6766 64.4336 60.6766 64.5166 60.6766 64.5996C60.767 64.4744 60.8502 64.3441 60.9258 64.2095C60.9272 64.1948 60.9244 64.18 60.9178 64.1668C60.9112 64.1536 60.901 64.1425 60.8884 64.1348C60.959 63.9937 61.0338 63.8568 61.1127 63.7198V63.5497C61.2291 63.4418 61.3205 63.5912 61.4825 63.2094C61.4825 63.4003 61.6569 63.0932 61.6777 63.172C61.6854 63.1328 61.6951 63.0941 61.7068 63.0559C61.815 62.9423 61.9363 62.8419 62.0682 62.7571C62.1764 62.6836 62.2977 62.6315 62.4255 62.6035L62.3133 62.7239C62.2269 62.8117 62.1529 62.9108 62.0931 63.0185C61.9721 63.2071 61.8928 63.4193 61.8605 63.6409C62.0018 63.3837 61.9145 63.587 61.9145 63.6409H61.8813C61.8024 63.7986 61.8813 63.8402 61.8481 63.919C61.8481 63.919 61.8481 63.919 61.819 63.919C61.7899 63.919 61.7899 63.919 61.7733 63.9522C61.7266 64.0183 61.6902 64.091 61.6653 64.168L61.7193 64.1971C61.6403 64.2261 61.5863 64.4294 61.5739 64.6494C61.5614 64.8693 61.5739 65.0643 61.5489 65.1598C61.5863 65.3341 61.4409 65.5001 61.4451 65.7034C61.4077 66.0188 61.5074 65.8777 61.5365 66.0395C61.5656 66.2013 61.47 65.9897 61.4576 66.0644C61.4451 66.1391 61.4908 66.2263 61.5116 66.3093C61.5116 66.1765 61.5656 66.2511 61.5863 66.2802C61.5863 66.4835 61.6694 66.7989 61.5448 66.857C61.5905 67.1267 61.6528 67.1267 61.657 67.2429C61.657 67.2014 61.6113 67.1267 61.5863 67.1267C61.6445 67.2346 61.5863 67.1765 61.5614 67.1267C61.4991 67.2969 61.8273 67.9567 61.7026 68.0023H61.74C61.6445 68.0521 61.5365 68.0023 61.4949 68.1268L61.5489 68.1974L61.524 68.3219C61.5697 68.3924 61.5905 68.3509 61.6029 68.3468C61.6157 68.5757 61.6691 68.8005 61.7608 69.0107C61.6486 68.9568 61.5448 68.8987 61.4326 68.8364C61.5323 69.0232 61.7608 69.322 61.686 69.3842L61.8107 69.4713C62.1056 69.7743 61.8107 69.7535 61.9353 69.8863L62.1015 70.0274L62.0267 69.849C62.114 69.969 62.2175 70.0766 62.3341 70.1685H62.3092V70.1934C62.2718 70.2349 62.2843 70.3386 62.3466 70.4548C62.4089 70.571 62.4629 70.7826 62.7246 70.9611L62.6872 71.0814C62.7468 71.1307 62.8092 71.1765 62.8741 71.2184L62.9406 71.1644C62.7532 70.9322 62.5916 70.6804 62.4587 70.4133L62.492 70.3884C62.5544 70.5315 62.6266 70.6701 62.708 70.8034C62.7495 70.8366 62.8949 70.8947 62.8866 70.8034V70.9321C62.9851 71.0832 63.1008 71.2225 63.2314 71.347C63.3681 71.4658 63.5188 71.5675 63.6801 71.65H63.6219C63.6842 71.7413 63.759 71.8201 63.8255 71.7786C64.0672 71.9515 64.3591 72.0405 64.6563 72.0318V72.1396C64.7186 72.1687 64.864 72.0525 64.8516 72.1935L64.9762 72.2766C65.0634 72.3015 65.1091 72.3679 65.2255 72.3347H65.2504C65.4664 72.3347 65.2504 72.4176 65.4789 72.4135C65.5744 72.3595 65.5536 72.5505 65.6866 72.5463L65.832 72.426C66.0688 72.372 66.0937 72.5173 66.4219 72.5339C66.5798 72.4882 66.6504 72.372 66.5548 72.2641C66.6878 72.3928 66.6171 72.3512 66.7958 72.4052C66.8207 72.3512 66.7958 72.3429 66.7584 72.2973C66.9079 72.2267 66.8581 72.3388 66.9744 72.3305C67.0118 72.426 67.0658 72.5795 67.1073 72.5795L67.0658 72.6168C67.1334 72.6421 67.2059 72.6519 67.2778 72.6454C67.3497 72.6389 67.4192 72.6164 67.4812 72.5795V72.5339C67.5352 72.5339 67.5809 72.5339 67.6308 72.5339V72.4674C67.6973 72.4591 67.7627 72.4438 67.826 72.4218V72.4467C67.9175 72.4345 68.0023 72.3921 68.067 72.3264V72.3014C68.175 72.1023 68.3536 72.1147 68.4824 71.9197H68.4035C68.3619 71.8367 68.5115 71.9197 68.5032 71.8491L68.4201 71.8243C68.5489 71.7786 68.4201 71.7288 68.3702 71.6873L68.4865 71.7164L68.4616 71.6209C68.4118 71.513 68.3121 71.5711 68.2497 71.5877C68.2803 71.5662 68.3082 71.5412 68.3328 71.513H68.229C68.3411 71.4383 68.1999 71.4715 68.229 71.3719C68.1916 71.3719 68.1791 71.4093 68.15 71.3719C68.1808 71.3087 68.2032 71.2417 68.2165 71.1727C68.2188 71.2114 68.2188 71.2502 68.2165 71.2889L68.3494 71.2142C68.3993 71.0607 68.2622 71.0897 68.2497 71.0026V71.0731C68.2082 70.9486 68.1459 70.9818 68.0794 70.9569C68.1127 70.9569 68.1667 70.9569 68.1459 70.8988C68.1251 70.8407 68.0919 70.9237 68.0587 70.8988C68.074 70.8834 68.0845 70.8639 68.0889 70.8427C68.0933 70.8214 68.0914 70.7993 68.0835 70.7791C68.0756 70.7589 68.062 70.7414 68.0443 70.7287C68.0266 70.7161 68.0056 70.7089 67.9839 70.708C67.9828 70.719 67.9828 70.7301 67.9839 70.7411C67.9839 70.7162 67.9839 70.6913 67.9382 70.6913L67.8966 70.7992C67.8989 70.7578 67.8989 70.7162 67.8966 70.6748C67.8468 70.6748 67.8177 70.5793 67.7928 70.654V70.6831C67.6958 70.6544 67.5947 70.6418 67.4937 70.6457V70.737C67.4646 70.6125 67.3441 70.7909 67.3317 70.6416C67.3232 70.6546 67.3114 70.6653 67.2976 70.6726C67.2838 70.6799 67.2684 70.6835 67.2527 70.6831C67.232 70.6831 67.2237 70.6831 67.2527 70.7744C67.2527 70.7744 67.1987 70.7744 67.153 70.7744C67.1073 70.7744 67.0783 70.8076 67.1198 70.8947C67.2527 70.9528 67.2403 71.2557 67.34 71.4923C67.4196 71.9432 67.5593 72.3814 67.7554 72.7953C67.8759 72.7953 67.7969 72.7455 68.0296 72.9447C68.174 73.104 68.3493 73.2324 68.5447 73.3223L68.5862 73.4468C68.8646 73.4675 69.0972 73.812 69.4628 73.8867C69.492 73.9312 69.5269 73.9716 69.5667 74.007C69.5667 74.007 69.521 74.007 69.4877 74.0444C69.5916 74.0444 69.7411 74.2021 69.7827 74.1025V74.0817C69.8201 73.9863 70.0195 74.2726 70.1566 74.2518L70.0527 74.3183C70.1077 74.3459 70.1646 74.3695 70.223 74.3888L70.1898 74.3473C70.4185 74.5802 70.7053 74.7479 71.0207 74.8328C71.1536 74.8743 71.2865 74.92 71.4361 74.9781C71.592 75.0321 71.739 75.109 71.8723 75.2063C71.8141 75.0652 71.9886 75.3142 72.0343 75.1814C72.2462 75.0569 72.3417 75.3017 72.4746 75.3639C72.4728 75.3678 72.4718 75.3721 72.4718 75.3764C72.4718 75.3807 72.4728 75.385 72.4746 75.3889H72.7197C72.5909 75.2063 72.8818 75.5549 72.7613 75.3889C73.076 75.3708 73.388 75.3193 73.6918 75.2353C73.838 75.1877 73.9732 75.1115 74.0895 75.011C74.2057 74.9105 74.3008 74.7879 74.369 74.6502V74.6958L74.5102 74.4676C74.5519 74.3911 74.5747 74.3057 74.5767 74.2186C74.5767 74.0692 74.7761 73.9655 74.7969 73.9033C74.9049 73.7622 74.7969 73.5879 74.7969 73.6584C74.8467 73.4924 75.0253 73.3472 74.9838 73.0857C74.8592 72.9945 75.1624 72.3969 74.9838 72.3845C74.8716 72.0608 75.0461 71.7371 74.909 71.3885C75.0461 71.1312 75.1749 70.8656 75.2912 70.5918C75.4781 70.6291 75.6651 70.6748 75.852 70.7246C76.0307 70.9321 76.201 71.1395 76.363 71.3719C76.3937 72.0251 76.3603 72.6798 76.2633 73.3265C76.2687 73.8979 76.1832 74.4666 76.0099 75.0112C75.6831 75.7771 75.0708 76.3858 74.3025 76.7085C73.5813 76.9616 72.8021 77.0005 72.0592 76.8205L71.8058 76.6379C70.9749 76.6379 70.1815 76.0487 69.4379 75.808L69.4711 75.7084C69.2758 75.6047 69.2634 75.6586 69.2094 75.6503L68.553 75.2353L67.9257 74.8204C67.7139 74.6793 67.5103 74.534 67.315 74.4054L67.0159 74.1813C66.9495 74.1232 66.7459 73.9987 66.6005 73.8534L66.4385 73.5754L66.3305 73.3846L66.156 73.036C66.0438 72.8036 65.94 72.5712 65.8444 72.3264C65.744 72.0764 65.6608 71.8199 65.5952 71.5587C65.5139 71.2587 65.4803 70.9478 65.4955 70.6374C65.4868 70.3743 65.5484 70.1136 65.6741 69.8822C65.8001 69.6678 65.9522 69.4699 66.1269 69.2929C66.3668 69.1629 66.6265 69.0733 66.8955 69.0273C67.0242 69.0273 67.1157 69.0273 67.2278 68.9941H67.5602C68.0038 69.0263 68.4322 69.169 68.8064 69.4091L68.7857 69.3842C68.8935 69.4603 68.9962 69.5435 69.0931 69.6332C69.0931 69.6332 69.118 69.6332 69.1138 69.6332C69.2468 69.8158 69.4379 70.015 69.604 70.2557C69.7819 70.4928 69.922 70.7559 70.0195 71.0358V70.9735C70.1222 71.3833 70.1136 71.8131 69.9945 72.2185C69.8645 72.6288 69.6211 72.9942 69.2925 73.2725C68.7373 73.7054 68.0603 73.9535 67.3566 73.9821C66.7725 74.0172 66.1862 73.9908 65.6076 73.9033C64.9992 73.83 64.4029 73.6779 63.8338 73.4509C63.2284 73.2384 62.6887 72.8724 62.2676 72.3886C61.8334 71.8875 61.4468 71.3471 61.1127 70.7744C60.8331 70.333 60.6386 69.8432 60.5395 69.3303C60.3701 68.8462 60.2613 68.343 60.2154 67.8322Z" fill="#F59923"/>
<path d="M24.2652 109.715C24.3109 109.806 24.3691 109.902 24.4189 109.993C24.3857 109.059 24.2777 108.615 24.4729 107.823L24.4397 107.864C24.4397 107.802 24.502 107.765 24.5519 107.578C24.6338 107.179 24.6784 106.773 24.6848 106.366C24.7139 106.327 24.7285 106.278 24.7263 106.229C24.7263 106.316 24.7263 106.399 24.7263 106.478C24.8163 106.355 24.8982 106.226 24.9714 106.092C24.9743 106.078 24.9727 106.063 24.9668 106.05C24.9608 106.036 24.9508 106.025 24.9382 106.018C25.0047 105.876 25.0836 105.735 25.1584 105.603V105.437C25.2789 105.329 25.3702 105.478 25.5281 105.092C25.5281 105.287 25.7068 104.976 25.7275 105.059C25.7335 105.02 25.7418 104.981 25.7524 104.943C25.8631 104.83 25.9856 104.73 26.118 104.644C26.2273 104.572 26.3481 104.518 26.4753 104.486L26.3631 104.611C26.2776 104.698 26.2037 104.796 26.143 104.901C26.0226 105.09 25.9433 105.302 25.9103 105.524C26.0515 105.271 25.9643 105.474 25.9643 105.524H25.9311C25.8522 105.677 25.9311 105.719 25.8978 105.802H25.8729C25.8729 105.802 25.8438 105.802 25.8231 105.835C25.7745 105.901 25.7366 105.973 25.7109 106.051L25.7691 106.08C25.6901 106.105 25.6361 106.312 25.6237 106.528C25.6112 106.744 25.6237 106.968 25.5987 107.043C25.6361 107.217 25.4907 107.383 25.4949 107.586C25.4533 107.902 25.5572 107.756 25.5863 107.918C25.6153 108.08 25.5198 107.872 25.5032 107.947C25.4866 108.022 25.5364 108.109 25.5614 108.192C25.5614 108.055 25.6112 108.134 25.6319 108.163C25.6319 108.362 25.7192 108.682 25.5946 108.736C25.6403 109.01 25.7026 109.01 25.7067 109.122C25.6818 109.084 25.661 109.01 25.6361 109.01C25.6943 109.113 25.6361 109.059 25.6112 109.01C25.5447 109.184 25.8771 109.839 25.7524 109.889H25.7774C25.6777 109.939 25.5738 109.889 25.5322 110.014L25.5821 110.084V110.205C25.6278 110.279 25.6444 110.234 25.6569 110.234C25.6725 110.462 25.7258 110.687 25.8148 110.898C25.7067 110.844 25.5987 110.781 25.4907 110.719C25.5904 110.906 25.8189 111.209 25.74 111.271C25.7813 111.301 25.8243 111.329 25.8688 111.354C26.1637 111.661 25.8688 111.64 25.9893 111.769L26.1595 111.906L26.0848 111.732C26.1687 111.853 26.2727 111.96 26.3922 112.047V112.072C26.359 112.114 26.3922 112.217 26.4337 112.333C26.4753 112.45 26.5459 112.661 26.8118 112.836L26.7703 112.96C26.8284 113.01 26.899 113.051 26.9613 113.097L27.0237 113.043C26.8391 112.808 26.679 112.555 26.5459 112.288H26.575C26.6392 112.43 26.7113 112.569 26.791 112.703C26.8367 112.736 26.9821 112.794 26.9738 112.682V112.811C27.0723 112.962 27.188 113.101 27.3186 113.226C27.4553 113.344 27.6059 113.446 27.7672 113.529H27.705C27.7714 113.62 27.8462 113.699 27.9085 113.661C28.1509 113.833 28.4424 113.922 28.7394 113.915V114.022C28.8017 114.047 28.9471 113.931 28.9346 114.072L29.0592 114.159C29.1464 114.159 29.188 114.246 29.3085 114.213C29.5245 114.213 29.3085 114.3 29.537 114.296C29.6325 114.238 29.6117 114.433 29.7447 114.429L29.8901 114.309C30.1268 114.255 30.1518 114.4 30.48 114.417C30.6378 114.371 30.7085 114.255 30.6088 114.143C30.7459 114.276 30.6711 114.234 30.8497 114.288C30.8746 114.234 30.8497 114.222 30.8165 114.176C30.966 114.11 30.912 114.222 31.0284 114.213C31.0699 114.309 31.1239 114.462 31.1654 114.462L31.1197 114.5C31.1873 114.525 31.2598 114.535 31.3317 114.529C31.4037 114.522 31.4733 114.5 31.5352 114.462V114.417C31.5849 114.421 31.635 114.421 31.6847 114.417V114.354C31.7496 114.345 31.8135 114.329 31.8758 114.309V114.334C31.9673 114.321 32.0521 114.279 32.1168 114.213V114.184C32.2248 113.985 32.4034 114.002 32.5073 113.802H32.4283C32.391 113.719 32.5405 113.802 32.5322 113.732L32.4491 113.707C32.5737 113.661 32.4491 113.612 32.3951 113.57L32.5156 113.599L32.4906 113.5C32.4408 113.392 32.3369 113.454 32.2787 113.471C32.3093 113.449 32.3373 113.424 32.3619 113.396H32.258C32.366 113.325 32.2289 113.358 32.258 113.259C32.2165 113.259 32.204 113.292 32.179 113.259C32.2086 113.197 32.231 113.131 32.2455 113.064C32.2478 113.101 32.2478 113.139 32.2455 113.176L32.3785 113.101C32.4325 112.948 32.2912 112.977 32.2829 112.894V112.964C32.2372 112.836 32.1791 112.873 32.1085 112.848C32.1458 112.848 32.1998 112.848 32.179 112.79C32.1583 112.732 32.1251 112.811 32.0877 112.79C32.1024 112.774 32.1126 112.755 32.1169 112.734C32.1213 112.713 32.1197 112.691 32.1124 112.671C32.1051 112.65 32.0923 112.633 32.0754 112.619C32.0586 112.606 32.0384 112.598 32.017 112.595C32.0135 112.607 32.0135 112.62 32.017 112.632C32.017 112.607 32.017 112.578 31.9672 112.578L31.9298 112.686C31.9298 112.645 31.9298 112.603 31.9298 112.562C31.9298 112.52 31.8509 112.47 31.8259 112.562V112.587C31.7287 112.56 31.6277 112.548 31.5269 112.553V112.641C31.4978 112.516 31.3814 112.699 31.3648 112.549C31.3566 112.563 31.345 112.574 31.3311 112.581C31.3172 112.588 31.3016 112.592 31.2859 112.591C31.2859 112.591 31.261 112.591 31.2859 112.678C31.2859 112.678 31.2319 112.678 31.1862 112.678C31.1405 112.678 31.1114 112.711 31.153 112.794C31.2859 112.856 31.2734 113.155 31.369 113.396C31.4512 113.846 31.5908 114.284 31.7844 114.699C31.909 114.699 31.826 114.645 32.0628 114.848C32.2065 115.007 32.382 115.134 32.5779 115.222L32.6153 115.346C32.8978 115.371 33.1304 115.716 33.4918 115.79C33.5232 115.832 33.5579 115.871 33.5957 115.906C33.5957 115.906 33.5541 115.906 33.5209 115.944C33.6248 115.944 33.7743 116.101 33.8159 116.006C33.8532 115.911 34.0485 116.197 34.1897 116.176L34.0817 116.243L34.2562 116.313L34.223 116.272C34.4531 116.503 34.7394 116.67 35.0538 116.757C35.1909 116.799 35.3238 116.844 35.4692 116.898C35.6179 116.956 35.7577 117.034 35.8847 117.131C35.8307 116.985 36.0051 117.238 36.0508 117.106C36.2586 116.981 36.3541 117.226 36.4912 117.288C36.4895 117.296 36.4895 117.305 36.4912 117.313H36.7405C36.6117 117.126 36.9025 117.475 36.782 117.313C37.0967 117.295 37.4086 117.243 37.7125 117.16C38.0062 117.061 38.2493 116.851 38.3897 116.575V116.62L38.5309 116.388C38.573 116.313 38.5959 116.229 38.5974 116.143C38.5974 115.994 38.7968 115.886 38.8176 115.828C38.9256 115.686 38.8176 115.512 38.8176 115.579C38.8674 115.417 39.0502 115.267 39.0087 115.01C38.884 114.919 39.1831 114.321 39.0087 114.305C38.8965 113.977 39.071 113.657 38.9339 113.309C38.933 113.316 38.933 113.322 38.9339 113.329C39.0732 113.07 39.1994 112.804 39.3119 112.533C39.503 112.566 39.6899 112.616 39.8769 112.661C40.0514 112.869 40.2217 113.085 40.3879 113.309C40.4186 113.963 40.3852 114.619 40.2882 115.267C40.2902 115.839 40.2033 116.407 40.0306 116.952C39.7045 117.717 39.0938 118.325 38.3274 118.649C37.6057 118.9 36.8271 118.939 36.0841 118.761L35.8307 118.579C34.9998 118.579 34.2064 117.99 33.4586 117.749L33.496 117.653C33.3007 117.546 33.2882 117.604 33.2301 117.595L32.5779 117.18L31.9506 116.765C31.7387 116.624 31.5352 116.475 31.3399 116.326L31.0408 116.106C30.9743 116.047 30.7708 115.923 30.6254 115.778L30.4592 115.5L30.3553 115.305L30.1809 114.96C30.0646 114.728 29.9607 114.491 29.8652 114.251C29.7667 114 29.6849 113.744 29.6201 113.483C29.5394 113.183 29.5043 112.872 29.5162 112.562C29.5094 112.298 29.5724 112.038 29.699 111.806C29.8236 111.591 29.9758 111.393 30.1518 111.217C30.3908 111.085 30.6508 110.996 30.9204 110.952C31.045 110.952 31.1405 110.952 31.2527 110.918H31.585C32.0286 110.951 32.4571 111.093 32.8313 111.333L32.8105 111.304C32.9179 111.381 33.0193 111.465 33.1138 111.557C33.1345 111.557 33.1429 111.557 33.1387 111.537C33.2716 111.719 33.4586 111.923 33.6248 112.159C33.8033 112.397 33.9435 112.662 34.0402 112.943V112.91C34.1402 113.321 34.1301 113.75 34.0111 114.155C33.8854 114.569 33.6414 114.937 33.309 115.213C32.756 115.647 32.0797 115.894 31.3773 115.919C30.7933 115.957 30.2069 115.932 29.6283 115.844C29.0198 115.771 28.4235 115.619 27.8545 115.392C27.2494 115.179 26.7098 114.813 26.2884 114.329C25.8531 113.828 25.4664 113.286 25.1335 112.711C24.8535 112.271 24.6591 111.783 24.5602 111.271C24.3912 110.768 24.292 110.245 24.2652 109.715Z" fill="#FFB863"/>
<path d="M102.915 98.9453C100.797 104.859 98.9106 110.847 97.1908 116.889C95.9902 121.453 94.7688 126.018 94.2828 130.724C94.2454 132.019 93.8965 134.567 95.2466 135.289L95.338 135.056C95.2246 134.933 95.1381 134.787 95.0837 134.629C95.0294 134.47 95.0085 134.302 95.0222 134.135C95.151 131.579 96.2685 128.935 96.9457 126.466C97.8596 123.524 98.7694 120.565 99.5919 117.573C101.229 111.482 102.724 105.427 103.148 99.0491L102.911 98.966L102.915 98.9453Z" fill="#F48C07"/>
<path d="M91.2378 99.0064C92.2805 103.376 93.4146 108.136 94.2911 112.51C94.7647 114.767 95.2051 117.029 95.5374 119.307C95.7991 121.286 96.173 123.303 95.9529 125.299C95.9233 125.569 95.8182 125.825 95.6496 126.038L95.7576 126.158C96.019 125.955 96.2166 125.681 96.3267 125.37C97.9469 120.033 95.7908 110.746 94.0876 105.451C93.3831 103.213 92.4809 101.043 91.3915 98.9648L91.2336 99.0064H91.2378Z" fill="#F48C07"/>
<path d="M108.799 57.4541C101.239 59.0352 93.3247 57.8691 86.2376 54.9643C84.6091 54.3418 82.9142 53.4869 81.3273 52.7773C82.2827 53.4662 83.2922 54.2214 84.3058 54.8273C84.8874 55.1344 86.1296 55.8564 86.6987 56.1345C87.5088 56.4872 88.3895 56.8856 89.1912 57.2175C90.3329 57.6391 91.4964 57.9993 92.6767 58.2965C97.9318 59.6036 103.773 59.6244 108.787 57.4375L108.799 57.4541Z" fill="black"/>
</svg>
