<svg width="220" height="48" viewBox="0 0 220 48" fill="none" xmlns="http://www.w3.org/2000/svg">
<path d="M19.1596 11.5384C14.5069 11.5384 10.9278 14.205 8.72927 19.282L6.47953 18.2051C7.71175 16.4002 8.41981 14.2874 8.52472 12.1024H0.5V48H8.78035C8.93383 38.5641 8.62699 36.2052 6.42833 31.8974L8.62699 30.8206C10.8255 35.8464 14.4558 38.5641 19.1596 38.5641C26.0108 38.5641 30.9702 32.8721 30.9702 25.0255C30.9702 17.2309 26.0108 11.5384 19.1596 11.5384ZM16.143 32.2051C11.6947 32.2051 8.67819 29.2822 8.67819 25.0256C8.67819 20.8207 11.6947 17.8975 16.143 17.8975C20.5399 17.8975 23.5053 20.7692 23.5053 25.0256C23.5053 29.3334 20.5399 32.2051 16.143 32.2051Z" fill="#C896FF"/>
<path d="M48.5064 11.487C40.0702 11.487 33.986 17.1794 33.986 25.077C33.986 32.9232 40.019 38.6666 48.4554 38.6666C54.9998 38.6666 60.2658 35.2309 62.3111 29.7948H54.7952C54.0725 30.7914 53.1158 31.5937 52.0098 32.1305C50.9039 32.6673 49.683 32.922 48.4553 32.8721C44.7228 32.8721 42.0131 30.7179 41.3484 27.4359H62.8734C64.1517 18.4614 57.8629 11.487 48.5064 11.487ZM41.2973 22.7692C41.6355 21.1316 42.5501 19.6707 43.8738 18.6538C45.1975 17.6368 46.842 17.1317 48.5064 17.2309C52.2898 17.2309 55.0508 19.3846 55.7665 22.7692H41.2973Z" fill="#C896FF"/>
<path d="M76.8315 28.0003V17.7832H83.7335V12.1024C79.1833 11.9998 77.1892 12.4616 74.2749 14.1024L73.1501 12.1024C76.6269 10.1024 77.6494 8.56414 77.9561 4.7177H70.5936C70.5936 10.5641 69.4687 12.1024 64.7139 12.1024V17.7832H69.2643V28.3076C69.2643 36.564 72.8433 39.0259 83.887 37.8975V31.3849C78.1096 32.1025 76.8315 31.2823 76.8315 28.0003Z" fill="#C896FF"/>
<path d="M94.6747 19.3331C94.6747 17.8459 96.1574 16.9231 98.4071 16.9231C101.117 16.9231 102.702 18.2051 102.753 20.0512H109.809C109.758 14.8205 105.207 11.487 98.3559 11.487C92.4249 11.487 87.4655 13.8973 87.4655 19.5383C87.4655 29.6411 103.162 25.4874 103.162 30.5643C103.162 32.2051 101.628 33.1283 99.0205 33.1283C96.0039 33.1283 94.3167 31.8463 94.3167 29.7437H87.1077C87.1077 35.282 91.7603 38.6667 99.0717 38.6667C106.179 38.6667 110.627 35.4361 110.627 30.3076C110.627 20.3078 94.6747 24.2053 94.6747 19.3331Z" fill="#C896FF"/>
<path d="M118.397 4.16123e-10C117.556 1.17861e-05 116.734 0.250285 116.034 0.71917C115.334 1.18806 114.789 1.85449 114.467 2.63421C114.145 3.41393 114.061 4.2719 114.225 5.09963C114.389 5.92737 114.794 6.68769 115.389 7.28445C115.984 7.8812 116.742 8.28759 117.568 8.45223C118.393 8.61687 119.248 8.53235 120.026 8.20937C120.803 7.88639 121.467 7.33946 121.935 6.63773C122.402 5.936 122.652 5.111 122.652 4.26705C122.652 3.70668 122.542 3.15181 122.328 2.6341C122.114 2.11639 121.801 1.646 121.406 1.24976C121.011 0.853532 120.542 0.539226 120.026 0.324791C119.509 0.110356 118.956 -7.82499e-06 118.397 4.16123e-10Z" fill="#C896FF"/>
<path d="M122.181 12.1024H114.614V38.0001H122.181V12.1024Z" fill="#C896FF"/>
<path d="M158.3 28.0003V17.7832H165.202V12.1024C160.652 11.9998 158.658 12.4616 155.743 14.1024L154.619 12.1024C158.095 10.1024 159.118 8.56414 159.425 4.7177H152.062C152.062 10.5641 150.937 12.1024 146.183 12.1024H144.677C140.127 11.9998 138.133 12.4616 135.218 14.1024L134.094 12.1024C137.57 10.1024 138.593 8.56414 138.9 4.7177H131.537C131.537 10.5641 130.412 12.1024 125.657 12.1024L125.657 17.7832H130.208V28.3076C130.208 36.564 133.787 39.0259 144.83 37.8975V31.3849C139.053 32.1025 137.775 31.2823 137.775 28.0002V17.7832H150.733V28.3076C150.733 36.564 154.312 39.0259 165.356 37.8975V31.3849C159.578 32.1025 158.3 31.2823 158.3 28.0003Z" fill="#C896FF"/>
<path d="M182.433 11.487C173.996 11.487 167.912 17.1794 167.912 25.077C167.912 32.9232 173.945 38.6666 182.381 38.6666C188.926 38.6666 194.192 35.2309 196.237 29.7948H188.721C187.999 30.7914 187.042 31.5937 185.936 32.1305C184.83 32.6673 183.609 32.922 182.381 32.8721C178.649 32.8721 175.939 30.7179 175.275 27.4359H196.8C198.078 18.4614 191.789 11.487 182.433 11.487ZM175.223 22.7692C175.562 21.1316 176.476 19.6708 177.8 18.6538C179.124 17.6369 180.768 17.1318 182.433 17.2309C186.216 17.2309 188.977 19.3846 189.693 22.7692H175.223Z" fill="#C896FF"/>
<path d="M208.865 19.6409L206.514 18.6154C207.526 16.5876 208.101 14.3682 208.201 12.1024H201.043V38.0001H208.61V28.1028C208.61 21.1284 211.473 18.6154 219.5 19.2305V12.1539C213.671 11.641 210.757 13.6922 208.865 19.6409Z" fill="#C896FF"/>
</svg>
