<svg width="40" height="40" viewBox="0 0 40 40" fill="none" xmlns="http://www.w3.org/2000/svg">
<path d="M29.071 15.0965C29.4773 15.5027 29.4773 16.1631 29.071 16.5694L18.6543 26.9861C18.4502 27.1902 18.1835 27.2902 17.9168 27.2902C17.6502 27.2902 17.3835 27.1881 17.1793 26.9861L10.9293 20.7361C10.5231 20.3298 10.5231 19.6694 10.9293 19.2631C11.3356 18.8569 11.996 18.8569 12.4022 19.2631L17.9147 24.7756L27.5939 15.0965C28.0043 14.6902 28.6627 14.6902 29.071 15.0965ZM39.7918 20.0007C39.7918 30.9131 30.9127 39.7923 20.0002 39.7923C9.08766 39.7923 0.208496 30.9131 0.208496 20.0007C0.208496 9.08815 9.08766 0.208984 20.0002 0.208984C30.9127 0.208984 39.7918 9.08607 39.7918 20.0007ZM37.7085 20.0007C37.7085 10.2361 29.7647 2.29232 20.0002 2.29232C10.2356 2.29232 2.29183 10.2361 2.29183 20.0007C2.29183 29.7652 10.2356 37.709 20.0002 37.709C29.7647 37.709 37.7085 29.7652 37.7085 20.0007Z" fill="black"/>
</svg>
