<svg width="40" height="40" viewBox="0 0 40 40" fill="none" xmlns="http://www.w3.org/2000/svg">
<path d="M20.0002 0.208984C9.08766 0.208984 0.208496 9.08815 0.208496 20.0007C0.208496 30.9132 9.08766 39.7923 20.0002 39.7923C30.9127 39.7923 39.7918 30.9132 39.7918 20.0007C39.7918 9.08815 30.9127 0.208984 20.0002 0.208984ZM20.0002 37.709C10.2356 37.709 2.29183 29.7652 2.29183 20.0007C2.29183 10.2361 10.2356 2.29232 20.0002 2.29232C29.7647 2.29232 37.7085 10.2361 37.7085 20.0007C37.7085 29.7652 29.7647 37.709 20.0002 37.709ZM29.3752 20.0007C29.3752 20.5757 28.9085 21.0423 28.3335 21.0423H20.0002C19.4252 21.0423 18.9585 20.5757 18.9585 20.0007V9.58399C18.9585 9.00899 19.4252 8.54232 20.0002 8.54232C20.5752 8.54232 21.0418 9.00899 21.0418 9.58399V18.959H28.3335C28.9085 18.959 29.3752 19.4236 29.3752 20.0007Z" fill="black"/>
</svg>
