<svg width="219" height="48" viewBox="0 0 219 48" fill="none" xmlns="http://www.w3.org/2000/svg">
<path d="M18.6596 11.5384C14.0069 11.5384 10.4278 14.205 8.22927 19.282L5.97953 18.2051C7.21175 16.4002 7.91981 14.2874 8.02472 12.1024H0V48H8.28035C8.43383 38.5641 8.12699 36.2052 5.92833 31.8974L8.12699 30.8206C10.3255 35.8464 13.9558 38.5641 18.6596 38.5641C25.5108 38.5641 30.4702 32.8721 30.4702 25.0255C30.4702 17.2309 25.5108 11.5384 18.6596 11.5384ZM15.643 32.2051C11.1947 32.2051 8.17819 29.2822 8.17819 25.0256C8.17819 20.8207 11.1947 17.8975 15.643 17.8975C20.0399 17.8975 23.0053 20.7692 23.0053 25.0256C23.0053 29.3334 20.0399 32.2051 15.643 32.2051Z" fill="black"/>
<path d="M48.0064 11.487C39.5702 11.487 33.486 17.1794 33.486 25.077C33.486 32.9232 39.519 38.6666 47.9554 38.6666C54.4998 38.6666 59.7658 35.2309 61.8111 29.7948H54.2952C53.5725 30.7914 52.6158 31.5937 51.5098 32.1305C50.4039 32.6673 49.183 32.922 47.9553 32.8721C44.2228 32.8721 41.5131 30.7179 40.8484 27.4359H62.3734C63.6517 18.4614 57.3629 11.487 48.0064 11.487ZM40.7973 22.7692C41.1355 21.1316 42.0501 19.6707 43.3738 18.6538C44.6975 17.6368 46.342 17.1317 48.0064 17.2309C51.7898 17.2309 54.5508 19.3846 55.2665 22.7692H40.7973Z" fill="black"/>
<path d="M76.3315 28.0003V17.7832H83.2335V12.1024C78.6833 11.9998 76.6892 12.4616 73.7749 14.1024L72.6501 12.1024C76.1269 10.1024 77.1494 8.56414 77.4561 4.7177H70.0936C70.0936 10.5641 68.9687 12.1024 64.2139 12.1024V17.7832H68.7643V28.3076C68.7643 36.564 72.3433 39.0259 83.387 37.8975V31.3849C77.6096 32.1025 76.3315 31.2823 76.3315 28.0003Z" fill="black"/>
<path d="M94.1747 19.3331C94.1747 17.8459 95.6574 16.9231 97.9071 16.9231C100.617 16.9231 102.202 18.2051 102.253 20.0512H109.309C109.258 14.8205 104.707 11.487 97.8559 11.487C91.9249 11.487 86.9655 13.8973 86.9655 19.5383C86.9655 29.6411 102.662 25.4874 102.662 30.5643C102.662 32.2051 101.128 33.1283 98.5205 33.1283C95.5039 33.1283 93.8167 31.8463 93.8167 29.7437H86.6077C86.6077 35.282 91.2603 38.6667 98.5717 38.6667C105.679 38.6667 110.127 35.4361 110.127 30.3076C110.127 20.3078 94.1747 24.2053 94.1747 19.3331Z" fill="black"/>
<path d="M117.897 4.16123e-10C117.056 1.17861e-05 116.234 0.250285 115.534 0.71917C114.834 1.18806 114.289 1.85449 113.967 2.63421C113.645 3.41393 113.561 4.2719 113.725 5.09963C113.889 5.92737 114.294 6.68769 114.889 7.28445C115.484 7.8812 116.242 8.28759 117.068 8.45223C117.893 8.61687 118.748 8.53235 119.526 8.20937C120.303 7.88639 120.967 7.33946 121.435 6.63773C121.902 5.936 122.152 5.111 122.152 4.26705C122.152 3.70668 122.042 3.15181 121.828 2.6341C121.614 2.11639 121.301 1.646 120.906 1.24976C120.511 0.853532 120.042 0.539226 119.526 0.324791C119.009 0.110356 118.456 -7.82499e-06 117.897 4.16123e-10Z" fill="black"/>
<path d="M121.681 12.1024H114.114V38.0001H121.681V12.1024Z" fill="black"/>
<path d="M157.8 28.0003V17.7832H164.702V12.1024C160.152 11.9998 158.158 12.4616 155.243 14.1024L154.119 12.1024C157.595 10.1024 158.618 8.56414 158.925 4.7177H151.562C151.562 10.5641 150.437 12.1024 145.683 12.1024H144.177C139.627 11.9998 137.633 12.4616 134.718 14.1024L133.594 12.1024C137.07 10.1024 138.093 8.56414 138.4 4.7177H131.037C131.037 10.5641 129.912 12.1024 125.157 12.1024L125.157 17.7832H129.708V28.3076C129.708 36.564 133.287 39.0259 144.33 37.8975V31.3849C138.553 32.1025 137.275 31.2823 137.275 28.0002V17.7832H150.233V28.3076C150.233 36.564 153.812 39.0259 164.856 37.8975V31.3849C159.078 32.1025 157.8 31.2823 157.8 28.0003Z" fill="black"/>
<path d="M181.933 11.487C173.496 11.487 167.412 17.1794 167.412 25.077C167.412 32.9232 173.445 38.6666 181.881 38.6666C188.426 38.6666 193.692 35.2309 195.737 29.7948H188.221C187.499 30.7914 186.542 31.5937 185.436 32.1305C184.33 32.6673 183.109 32.922 181.881 32.8721C178.149 32.8721 175.439 30.7179 174.775 27.4359H196.3C197.578 18.4614 191.289 11.487 181.933 11.487ZM174.723 22.7692C175.062 21.1316 175.976 19.6708 177.3 18.6538C178.624 17.6369 180.268 17.1318 181.933 17.2309C185.716 17.2309 188.477 19.3846 189.193 22.7692H174.723Z" fill="black"/>
<path d="M208.365 19.6409L206.014 18.6154C207.026 16.5876 207.601 14.3682 207.701 12.1024H200.543V38.0001H208.11V28.1028C208.11 21.1284 210.973 18.6154 219 19.2305V12.1539C213.171 11.641 210.257 13.6922 208.365 19.6409Z" fill="black"/>
</svg>
