<svg width="179" height="132" viewBox="0 0 179 132" fill="none" xmlns="http://www.w3.org/2000/svg">
<path d="M42.8387 68.8206L40.109 68.4052C40.4057 66.4469 40.1684 63.1832 39.5156 58.6732L42.2453 58.2578C42.9574 63.0051 43.1355 66.5656 42.8387 68.8206Z" fill="#47156C"/>
<path d="M33.2291 89.7105C23.7344 89.7105 15.1299 85.7939 10.2046 78.3169C1.60005 65.2618 7.47486 46.0945 23.319 35.6504C39.1632 25.2063 59.0426 27.3426 67.7064 40.3977C76.311 53.4528 70.4361 72.6201 54.592 83.0642C47.7677 87.5742 40.2907 89.7105 33.2291 89.7105ZM44.6226 32.5053C38.2137 32.5053 31.3895 34.4635 25.218 38.5581C10.976 47.9341 5.51659 64.9057 13.1123 76.418C20.6487 87.8709 38.3918 89.5918 52.6931 80.2158C66.935 70.8399 72.3944 53.8682 64.7987 42.356C60.4668 35.8877 52.9304 32.5053 44.6226 32.5053Z" fill="#47156C"/>
<path d="M7.11284 58.4982L1.11935 44.2562C0.7633 43.6628 -0.186163 41.5859 0.941325 39.9836C1.77211 38.7968 3.25564 38.3814 5.45128 38.6781C10.0206 39.3902 18.5657 39.7463 18.6251 39.7463L18.5064 43.1881C18.1503 43.1881 9.66452 42.832 4.9172 42.0606C4.44247 42.0012 4.14576 42.0013 3.96774 42.0013C4.02708 42.1793 4.08642 42.4166 4.20511 42.5947L4.26445 42.832L10.2579 57.1333L7.11284 58.4982Z" fill="#47156C"/>
<path d="M51.1434 32.6261C51.084 32.5074 49.4225 29.5404 47.2862 25.0304C46.8708 24.1403 46.5741 24.0216 46.5741 24.0216C46.3367 24.0216 45.684 24.615 45.2686 25.2678L45.0906 25.3865L39.3344 32.3887L36.6641 30.1931L42.3608 23.3095C42.7762 22.6567 44.4971 20.4611 46.8115 20.6391C47.8203 20.6985 49.3038 21.2919 50.4313 23.6062C52.5082 27.9975 54.1698 30.9646 54.1698 31.0239L51.1434 32.6261Z" fill="#47156C"/>
<path d="M24.3825 62.2962C26.2505 62.2962 27.7649 60.7818 27.7649 58.9137C27.7649 57.0456 26.2505 55.5312 24.3825 55.5312C22.5144 55.5312 21 57.0456 21 58.9137C21 60.7818 22.5144 62.2962 24.3825 62.2962Z" fill="#47156C"/>
<path d="M48.7106 50.1907C50.5787 50.1907 52.0931 48.6763 52.0931 46.8082C52.0931 44.9402 50.5787 43.4258 48.7106 43.4258C46.8425 43.4258 45.3281 44.9402 45.3281 46.8082C45.3281 48.6763 46.8425 50.1907 48.7106 50.1907Z" fill="#47156C"/>
<path d="M40.6765 59.7595C42.8572 59.3002 44.4498 58.096 44.2336 57.0698C44.0175 56.0436 42.0745 55.584 39.8938 56.0433C37.7131 56.5027 36.1205 57.7069 36.3367 58.7331C36.5528 59.7593 38.4958 60.2189 40.6765 59.7595Z" fill="#47156C"/>
<path d="M40.1137 69.9514C35.9598 69.9514 33.4675 67.8745 33.2895 67.7558C32.6961 67.2811 32.6367 66.3909 33.1708 65.7975C33.6455 65.2041 34.5356 65.1448 35.1291 65.6788C35.3664 65.8569 40.1137 69.7141 47.9468 64.492C48.5996 64.0766 49.4303 64.2546 49.8457 64.8481C50.2611 65.5008 50.0831 66.3316 49.4897 66.747C45.8105 69.18 42.6654 69.9514 40.1137 69.9514Z" fill="#47156C"/>
<path d="M1.36039 77.9653C0.826314 77.9653 0.292241 77.6686 0.114216 77.1345C-0.182491 76.4224 0.114216 75.5917 0.826314 75.2949L18.7474 67.4619C19.4595 67.1652 20.2903 67.4619 20.587 68.174C20.8837 68.8861 20.587 69.7168 19.8749 70.0136L1.9538 77.8466C1.77578 77.9653 1.59775 77.9653 1.36039 77.9653Z" fill="#47156C"/>
<path d="M9.72331 86.8629C9.36726 86.8629 9.07055 86.7443 8.77384 86.5069C8.18043 85.9728 8.12109 85.142 8.65516 84.5486L20.0487 71.7309C20.5828 71.1375 21.4136 71.0781 22.007 71.6122C22.6004 72.1463 22.6597 72.977 22.1257 73.5705L10.7321 86.3882C10.4947 86.7443 10.0794 86.8629 9.72331 86.8629Z" fill="#47156C"/>
<path d="M16.0788 91.491C15.8414 91.491 15.604 91.4317 15.426 91.313C14.7733 90.9569 14.5359 90.1262 14.8919 89.4141L22.725 75.1721C23.0811 74.5194 23.9118 74.282 24.6239 74.638C25.2767 74.9941 25.5141 75.8249 25.158 76.537L17.3249 90.7789C17.0282 91.1943 16.5535 91.491 16.0788 91.491Z" fill="#47156C"/>
<path d="M57.6741 51.14C57.2587 51.14 56.8433 50.962 56.5466 50.6059C56.0718 50.0125 56.1905 49.1224 56.8433 48.6477L70.7885 38.1442C71.3819 37.6695 72.2721 37.7882 72.7468 38.4409C73.2215 39.0343 73.1028 39.9245 72.4501 40.3992L58.5048 50.8433C58.2675 51.0213 57.9708 51.14 57.6741 51.14Z" fill="#47156C"/>
<path d="M59.8163 54.1683C59.1635 54.1683 58.6295 53.7529 58.4514 53.1002C58.2734 52.3287 58.7481 51.6166 59.5196 51.4386L74.2363 48.1155C75.0077 47.9375 75.7198 48.4122 75.8978 49.1836C76.0758 49.9551 75.6011 50.6672 74.8297 50.8452L60.113 54.109C59.9943 54.109 59.935 54.1683 59.8163 54.1683Z" fill="#47156C"/>
<path d="M74.4697 56.9563H60.8805C60.109 56.9563 59.5156 56.3629 59.5156 55.5914C59.5156 54.82 60.109 54.2266 60.8805 54.2266H74.4697C75.2411 54.2266 75.8345 54.82 75.8345 55.5914C75.8345 56.3629 75.2411 56.9563 74.4697 56.9563Z" fill="#47156C"/>
<path d="M78.6236 72.6182C78.3862 72.6182 78.0895 72.5588 77.8521 72.4995C69.663 69.4731 66.4586 66.6247 66.1025 66.2686C65.153 65.3785 65.153 63.9543 66.0432 63.0049C66.9333 62.0554 68.3575 62.0554 69.3069 62.9455C69.3069 62.9455 72.1553 65.4972 79.4543 68.1676C80.6412 68.5829 81.2346 69.9478 80.8192 71.1346C80.4038 72.0248 79.5137 72.6182 78.6236 72.6182Z" fill="#47156C"/>
<path d="M107.221 131.429C93.038 131.429 80.0423 128.284 72.0312 125.021C54.2881 119.146 39.0966 102.411 30.7888 88.7629C30.3141 87.9321 30.5515 86.864 31.3822 86.3893C32.213 85.9145 33.2812 86.1519 33.7559 86.9827C41.767 100.156 56.365 116.238 73.218 121.816L73.3367 121.875C94.3435 130.421 133.509 132.854 150.955 110.957C164.426 93.985 163.654 80.2178 162.408 59.3889C162.29 57.6087 162.23 55.7691 162.112 53.9295C161.815 45.9184 161.874 38.4414 162.29 33.516C162.527 30.6083 162.942 28.3533 164.307 25.5049V25.4456C166.087 22.0038 168.224 18.6806 170.538 15.8323C171.013 15.1795 171.547 14.6454 171.962 14.052C173.386 12.3311 174.455 11.0849 174.692 9.54206V9.48272C174.929 8.29589 174.692 7.04972 173.98 6.04091C173.208 4.91343 171.903 4.08265 170.538 3.84528C163.298 2.42109 156.474 10.6695 154.931 17.0191C153.507 22.8346 153.448 31.3797 153.863 37.4919C154.1 39.8656 154.575 42.2392 155.109 44.6722C155.821 48.0547 156.593 51.5558 156.533 55.235C156.652 59.8043 154.931 63.8988 151.964 66.3318C149.531 68.2901 146.386 68.8835 143.182 68.0527H143.063C139.443 66.8659 136.417 64.4329 133.509 61.9999C132.263 60.9911 131.017 59.923 129.711 59.0328L129.652 58.9735C125.201 55.591 120.81 52.2086 117.012 49.3008C116.478 48.8855 115.944 48.4701 115.41 48.0547C113.808 46.8085 112.087 45.503 110.781 44.9689H110.722C110.128 44.7316 109.476 44.6722 109.06 44.9689C109.001 45.0283 108.704 45.2063 108.764 45.859C108.942 48.4107 110.9 51.3778 112.68 53.9888C113.095 54.6416 113.511 55.2943 113.926 55.8877C115.706 58.5581 117.546 61.2878 119.386 63.8988C119.504 64.0769 119.623 64.2549 119.742 64.3736C120.513 65.5011 121.344 66.6286 120.988 67.9934C120.691 69.2989 119.504 69.9517 119.03 70.2484C110.9 75.5891 99.6843 77.5474 89.7743 75.3518C88.8248 75.1737 88.2314 74.2243 88.4687 73.2748C88.6468 72.3253 89.5962 71.7319 90.5457 71.9693C99.4469 73.9276 109.95 72.088 117.19 67.2813L117.309 67.222C117.368 67.222 117.427 67.1626 117.427 67.1626C117.309 66.9253 117.071 66.6286 116.893 66.3318C116.775 66.1538 116.656 65.9758 116.537 65.7978C114.698 63.1274 112.858 60.3977 111.019 57.7273L110.959 57.668C110.603 57.0746 110.188 56.4218 109.713 55.7691C107.695 52.7427 105.44 49.3602 105.262 45.859V45.7997C105.203 44.1381 105.856 42.7733 107.102 41.9425C108.467 41.0524 110.366 40.9337 112.027 41.6458C113.808 42.3579 115.706 43.7821 117.487 45.2063C118.021 45.6217 118.555 46.0371 119.03 46.3931H119.089C122.887 49.3602 127.219 52.6833 131.669 56.0658C133.034 57.0152 134.34 58.0834 135.586 59.1515C138.375 61.4065 140.986 63.6021 143.953 64.5516C146.089 65.0857 148.048 64.7296 149.65 63.4835C151.786 61.7626 153.032 58.6768 152.914 55.1757V55.1163V55.057C152.973 51.7932 152.261 48.5887 151.549 45.2656C151.015 42.7733 150.481 40.2216 150.243 37.6106V37.5512C150.065 34.4655 149.531 23.784 151.371 16.0103C153.27 8.17721 161.696 -1.61413 171.013 0.225451C173.327 0.640841 175.404 2.0057 176.709 3.90462C177.956 5.68487 178.371 7.8805 177.956 9.95745C177.54 12.3905 176.116 14.1114 174.455 16.0696C173.98 16.6037 173.564 17.1378 173.09 17.7312C170.953 20.4016 168.936 23.5466 167.274 26.7511C166.147 29.1247 165.85 30.905 165.613 33.516C165.197 38.2633 165.138 45.7404 165.435 53.5141C165.553 55.3537 165.613 57.1933 165.731 58.9735C166.918 79.8024 167.808 94.8751 153.507 112.915C142.707 126.504 125.557 130.302 113.036 131.133C111.137 131.37 109.179 131.429 107.221 131.429Z" fill="#47156C"/>
<path d="M72.9839 93.9818C72.2125 93.9818 71.5597 93.5071 71.3224 92.7357C71.0257 91.7862 71.5597 90.8367 72.5092 90.5994C84.4962 87.0982 91.0237 67.1002 93.5161 59.5638C93.6941 59.0297 93.8721 58.4957 93.9908 58.0803C94.2875 57.2495 94.2282 56.3 93.8128 55.5879C93.7534 55.4692 93.5754 55.2319 93.3974 55.1725C93.1007 55.1132 92.1512 55.4692 90.6083 56.8934C90.3116 57.1901 90.0743 57.4868 90.0149 57.6649C81.2917 74.2805 65.5069 84.4872 64.8541 84.9026C64.0234 85.4367 62.9552 85.1993 62.4805 84.3685C61.9464 83.5377 62.1838 82.4696 63.0146 81.9949C63.1926 81.8762 78.6807 71.8475 86.9292 56.0627C87.1665 55.5286 87.6413 54.9352 88.1753 54.4011C90.3116 52.3241 92.2106 51.4934 93.8721 51.7307C94.7029 51.8494 95.8897 52.3241 96.7799 53.867C97.67 55.4692 97.848 57.4275 97.1952 59.2077C97.0766 59.6231 96.8985 60.0979 96.7205 60.6319C94.1095 68.643 87.1072 89.8873 73.3993 93.9225C73.34 93.9818 73.1619 93.9818 72.9839 93.9818Z" fill="#47156C"/>
<path d="M74.4669 70.3685C74.2296 70.3685 73.9328 70.3091 73.6955 70.1904C72.8647 69.775 72.5087 68.7069 72.924 67.8761L79.0362 55.7111C79.4516 54.8803 80.5198 54.5243 81.3505 54.9397C82.1813 55.3551 82.5374 56.4232 82.122 57.254L76.0098 69.419C75.7131 70.0124 75.1197 70.3685 74.4669 70.3685Z" fill="#47156C"/>
<path d="M135.714 62.9511C134.943 62.9511 134.29 62.4764 134.052 61.7049C131.145 52.1509 126.16 36.4848 125.389 35.0013C125.329 34.9419 125.329 34.8826 125.329 34.8232C125.151 34.8826 124.736 35.0606 124.439 35.2386C123.727 35.832 122.6 35.7727 122.006 35.0013C121.413 34.2892 121.472 33.1617 122.184 32.5683C122.481 32.3309 124.142 31.0254 125.982 31.3814C126.694 31.5001 127.703 31.9748 128.415 33.3397C129.602 35.5353 136.07 56.4829 137.316 60.6368C137.613 61.5269 137.079 62.5357 136.189 62.8324C136.07 62.9511 135.892 62.9511 135.714 62.9511Z" fill="#47156C"/>
<path d="M126.867 79.6263C126.333 79.6263 125.799 79.389 125.443 78.9142L117.729 67.8767C117.195 67.1053 117.373 66.0371 118.144 65.4437C118.916 64.9096 119.984 65.0877 120.577 65.8591L128.292 76.8966C128.826 77.668 128.648 78.7362 127.876 79.3296C127.52 79.5076 127.164 79.6263 126.867 79.6263Z" fill="#47156C"/>
<path d="M85.9831 62.9519C85.6271 62.9519 85.271 62.8332 84.9743 62.6552C77.5567 57.4925 72.75 48.7693 72.75 40.3428C72.75 25.6854 84.6776 13.7578 99.335 13.7578C113.992 13.7578 125.92 25.6854 125.92 40.3428C125.92 44.4967 124.555 48.6506 123.368 51.3803C123.012 52.2704 121.944 52.6858 121.113 52.2704C120.223 51.9144 119.808 50.8462 120.223 50.0154C121.291 47.5824 122.478 43.9626 122.478 40.3428C122.478 27.5844 112.093 17.259 99.3943 17.259C86.6952 17.259 76.3105 27.6437 76.3105 40.3428C76.3105 47.6418 80.5237 55.2375 86.992 59.7474C87.7634 60.2815 88.0008 61.3497 87.4073 62.1804C87.0513 62.7145 86.5172 62.9519 85.9831 62.9519Z" fill="#47156C"/>
<path d="M99.3955 66.9244C97.2592 66.9244 94.7668 66.509 93.4613 66.331C92.5118 66.153 91.8591 65.2628 92.0371 64.3134C92.2151 63.3639 93.1053 62.7112 94.0547 62.8892C95.2416 63.1266 97.5559 63.4233 99.3955 63.4233C104.143 63.4233 109.246 61.7024 113.281 58.7946C114.053 58.2012 115.121 58.3792 115.714 59.1507C116.308 59.9221 116.13 60.9903 115.358 61.5837C110.67 64.9661 104.914 66.9244 99.3955 66.9244Z" fill="#47156C"/>
<path d="M84.6132 37.5546C84.4945 37.5546 84.4351 37.5546 84.3165 37.4952C83.545 37.3172 83.0703 36.6051 83.2483 35.8337C83.3077 35.6557 84.2571 31.5611 87.3429 27.6446C90.2506 24.0247 95.6507 19.9302 104.908 21.0577C105.679 21.1763 106.213 21.8291 106.095 22.6005C105.976 23.372 105.323 23.906 104.552 23.7874C89.4198 21.8884 86.0967 35.7743 85.978 36.3677C85.8593 37.1392 85.2659 37.5546 84.6132 37.5546Z" fill="#47156C"/>
<path d="M93.9335 44.4335C93.8148 44.4335 93.7555 44.4335 93.6368 44.3741C92.8653 44.1961 92.3906 43.484 92.5686 42.7126C92.628 42.5346 93.5774 38.44 96.6632 34.5235C99.5709 30.9036 104.971 26.8091 114.228 27.9366C115 28.0552 115.534 28.708 115.415 29.4794C115.296 30.2509 114.644 30.7849 113.872 30.6663C98.7401 28.7673 95.417 42.6532 95.2983 43.2467C95.1796 44.0181 94.5862 44.4335 93.9335 44.4335Z" fill="#47156C"/>
<path d="M93.694 51.1465C82.8938 51.1465 78.0872 44.7969 77.8498 44.4409C77.3751 43.8475 77.5531 42.9573 78.1465 42.4826C78.7399 42.0079 79.63 42.1859 80.1048 42.7793C80.3421 43.1354 86.2169 50.7311 100.281 47.5266C101.052 47.3486 101.764 47.8233 101.942 48.5948C102.12 49.3662 101.646 50.0783 100.874 50.2563C98.2633 50.9091 95.8303 51.1465 93.694 51.1465Z" fill="#47156C"/>
<path d="M49.8972 110.664C49.6598 110.664 49.4224 110.605 49.1851 110.486C48.2949 110.071 47.9389 109.062 48.2949 108.172C48.2949 108.172 49.4818 105.502 53.517 96.4816C53.9324 95.5321 54.1697 94.8794 54.3478 94.3453C53.8137 94.642 53.1609 95.0574 52.6862 95.4728L52.5082 95.5915L42.1234 101.704C41.2926 102.178 40.2245 101.941 39.7498 101.11C39.275 100.279 39.5124 99.2113 40.3432 98.7366L50.6093 92.6837C52.5675 91.1409 55.2972 89.6573 57.0181 91.0222C58.7984 92.4464 57.8489 95.2948 56.6621 97.9651C52.6269 106.985 51.44 109.655 51.44 109.655C51.1433 110.308 50.5499 110.664 49.8972 110.664Z" fill="#47156C"/>
<path d="M74.823 125.671C73.8736 125.671 73.1021 124.9 73.1021 123.95C73.1021 123.832 73.1021 121.221 73.5769 111.489C73.6362 110.48 73.5769 109.768 73.5769 109.234C73.1615 109.708 72.7461 110.302 72.4494 110.895L72.3307 111.073L65.2691 120.271C64.6756 121.043 63.6075 121.161 62.8361 120.568C62.0646 119.975 61.9459 118.906 62.5394 118.135L69.5416 109.056C70.8472 106.919 72.7461 104.486 74.8824 105.139C77.078 105.792 77.256 108.818 77.078 111.667C76.6626 121.339 76.6626 123.95 76.6626 124.01C76.6033 124.9 75.7725 125.671 74.823 125.671Z" fill="#47156C"/>
<path d="M104.971 131.249C104.199 131.249 103.487 130.715 103.309 129.944C103.309 129.825 102.656 127.57 100.817 117.957C100.639 117.008 100.461 116.295 100.283 115.821C100.045 116.355 99.7488 117.067 99.5707 117.66L99.5114 117.898L94.3487 129.41C93.9333 130.3 92.9245 130.656 92.0344 130.3C91.1443 129.885 90.7882 128.876 91.1443 127.986L96.2476 116.533C96.9597 114.1 98.3246 111.311 100.52 111.429C102.775 111.548 103.665 114.456 104.199 117.245C106.039 126.68 106.632 128.995 106.692 129.054C106.929 130.003 106.395 130.953 105.446 131.19C105.268 131.249 105.089 131.249 104.971 131.249Z" fill="#47156C"/>
<path d="M121.115 130.065H121.055C120.106 130.005 119.334 129.175 119.394 128.225L119.987 116.297C119.809 113.805 119.987 110.719 122.124 110.007C124.26 109.295 126.159 111.669 127.702 114.102C132.864 122.232 134.407 124.427 134.407 124.487C134.941 125.258 134.763 126.385 133.932 126.92C133.161 127.454 132.034 127.276 131.499 126.504C131.44 126.445 129.957 124.249 124.735 116.001C124.2 115.17 123.785 114.577 123.429 114.161C123.37 114.755 123.37 115.526 123.429 116.179V116.297V116.416L122.836 128.462C122.776 129.353 122.005 130.065 121.115 130.065Z" fill="#47156C"/>
<path d="M151.023 115.229C150.489 115.229 149.896 114.932 149.599 114.458L144.258 106.446C142.775 104.785 141.291 102.411 142.478 100.75C143.724 98.9694 146.276 99.6815 148.828 100.69C152.269 101.996 154.702 103.005 156.067 103.717C157.076 104.191 158.085 104.666 158.085 105.853C158.085 106.802 157.314 107.574 156.364 107.574C155.949 107.574 155.533 107.396 155.237 107.159C154.94 106.98 153.456 106.209 147.582 103.954C147.107 103.776 146.691 103.598 146.335 103.479C146.513 103.717 146.751 104.013 146.929 104.251L147.047 104.429L152.507 112.499C153.041 113.271 152.804 114.398 152.032 114.932C151.676 115.17 151.32 115.229 151.023 115.229ZM154.584 105.853C154.584 106.209 154.702 106.506 154.821 106.743C154.643 106.506 154.584 106.209 154.584 105.853Z" fill="#47156C"/>
</svg>
