<svg width="90" height="161" viewBox="0 0 90 161" fill="none" xmlns="http://www.w3.org/2000/svg">
<path d="M75.8128 160.244H14.1402C6.34866 160.244 0 153.895 0 146.104V37.1871C0 29.2306 9.11073 23.0469 16.9023 23.0469V26.8808C11.0071 26.8808 3.83393 31.6217 3.83393 37.1871V146.104C3.83393 151.793 8.45113 156.41 14.1402 156.41H75.8128C81.5019 156.41 86.1191 151.793 86.1191 146.104V37.1871C86.1191 31.6217 79.0696 26.8808 73.3393 26.8808V23.0469C81.0484 23.0469 89.9943 29.2306 89.9943 37.1871V146.104C89.9943 153.895 83.6456 160.244 75.8128 160.244Z" fill="#47156C"/>
<path d="M65.1394 34.5466H24.8213C20.0392 34.5466 16.1641 30.6714 16.1641 25.8893V23.0448C16.1641 18.2627 20.0392 14.3875 24.8213 14.3875H31.8296C31.7884 13.9753 31.7884 13.563 31.7884 13.192C31.7884 5.89518 37.7248 0 44.9804 0C52.2772 0 58.1724 5.9364 58.1724 13.192C58.1724 13.6043 58.1724 14.0165 58.1312 14.3875H65.1394C69.9215 14.3875 73.7967 18.2627 73.7967 23.0448V25.8481C73.7967 30.6302 69.9215 34.5466 65.1394 34.5466ZM24.8213 18.2215C22.1829 18.2215 19.998 20.3652 19.998 23.0448V25.8481C19.998 28.4865 22.1417 30.6714 24.8213 30.6714H65.1394C67.7778 30.6714 69.9627 28.5277 69.9627 25.8481V23.0448C69.9627 20.4064 67.819 18.2215 65.1394 18.2215H53.2666L53.9674 15.748C54.2148 14.8822 54.3385 14.0165 54.3385 13.1508C54.3385 7.99766 50.1335 3.7927 44.9804 3.7927C39.8272 3.7927 35.6223 7.99766 35.6223 13.1508C35.6223 14.0165 35.746 14.9235 35.9933 15.748L36.6941 18.2215H24.8213Z" fill="#47156C"/>
<path d="M21.9677 70.5731C20.6897 70.5731 19.4942 70.0371 18.6285 69.089L12.2386 62.0807C11.5378 61.2974 11.579 60.1019 12.3623 59.3598C13.1456 58.659 14.3411 58.7002 15.0831 59.4835L21.473 66.4918C21.6379 66.6979 21.8853 66.6979 22.0089 66.6979C22.1326 66.6979 22.3387 66.6567 22.5036 66.4093L37.221 46.6625C37.8394 45.7968 39.0761 45.6319 39.9006 46.2503C40.7663 46.8687 40.9312 48.1054 40.3129 48.9299L25.5955 68.6767C24.771 69.7486 23.5343 70.4082 22.2151 70.4906C22.0914 70.5731 22.0502 70.5731 21.9677 70.5731Z" fill="#47156C"/>
<path d="M21.9677 123.468C20.6897 123.468 19.4942 122.932 18.6285 121.983L12.2386 114.975C11.5378 114.192 11.579 112.996 12.3623 112.254C13.1456 111.554 14.3411 111.595 15.0831 112.378L21.473 119.386C21.6379 119.592 21.8853 119.592 22.0089 119.592C22.1326 119.592 22.3387 119.551 22.5036 119.304L37.221 99.5571C37.8394 98.6913 39.0761 98.5264 39.9006 99.1448C40.7663 99.7632 40.9312 101 40.3129 101.824L25.5955 121.571C24.771 122.643 23.5343 123.303 22.2151 123.385C22.0914 123.468 22.0502 123.468 21.9677 123.468Z" fill="#47156C"/>
<path d="M74.9472 69.672H44.9766C43.9048 69.672 43.0391 68.8063 43.0391 67.7345C43.0391 66.6626 43.9048 65.7969 44.9766 65.7969H74.9472C76.0191 65.7969 76.8848 66.6626 76.8848 67.7345C76.8848 68.8063 76.0191 69.672 74.9472 69.672Z" fill="#47156C"/>
<path d="M74.9472 123.473H44.9766C43.9048 123.473 43.0391 122.607 43.0391 121.535C43.0391 120.463 43.9048 119.598 44.9766 119.598H74.9472C76.0191 119.598 76.8848 120.463 76.8848 121.535C76.8848 122.607 76.0191 123.473 74.9472 123.473Z" fill="#47156C"/>
<path d="M74.9483 88.715H15.172C14.1001 88.715 13.2344 87.8493 13.2344 86.7774C13.2344 85.7056 14.1001 84.8398 15.172 84.8398H74.9895C76.0613 84.8398 76.9271 85.7056 76.9271 86.7774C76.9271 87.8493 76.0201 88.715 74.9483 88.715Z" fill="#47156C"/>
<path d="M74.8623 140.785H15.086C14.0142 140.785 13.1484 139.92 13.1484 138.848C13.1484 137.776 14.0142 136.91 15.086 136.91H74.9035C75.9754 136.91 76.8411 137.776 76.8411 138.848C76.7999 139.92 75.9342 140.785 74.8623 140.785Z" fill="#47156C"/>
</svg>
