<svg width="108" height="159" viewBox="0 0 108 159" fill="none" xmlns="http://www.w3.org/2000/svg">
<path d="M54.9441 126.759C50.7567 126.759 46.418 125.522 42.2811 123.047C36.0254 119.336 30.5768 113.15 26.8939 105.624L26.8435 105.469C19.0742 84.6429 18.2166 75.3124 17.6616 69.1265L21.294 68.7656C21.849 74.7969 22.6057 83.8181 30.1732 104.025C36.2272 116.346 49.1928 126.707 61.3007 121.758C72.6015 117.119 77.6969 107.17 82.7419 91.5505C87.7365 76.0341 88.5941 70.0028 88.5941 69.9513L92.2265 70.4668C92.176 70.7245 91.3688 76.7558 86.223 92.7361C81.9347 106.036 76.587 119.542 62.6629 125.212C60.1908 126.243 57.6179 126.759 54.9441 126.759Z" fill="#47156C"/>
<path d="M11.7117 75.3535C11.1063 75.3535 10.4505 75.2505 9.84507 75.0958C8.12977 74.5803 6.71718 73.3431 5.96043 71.6935C2.93344 65.3529 -1.80885 53.3419 0.713643 44.3723C2.27759 38.805 8.33157 34.3202 18.7242 30.9694C26.1908 28.5982 33.1024 27.6703 33.3547 27.6703L34.4646 27.5156L36.8862 31.2272L33.8592 33.2892L33.4556 32.6706L32.2952 34.9903C31.7403 37.5162 27.4016 57.6205 25.2827 63.858C23.8197 68.2913 18.8251 72.0544 14.8396 74.4257C13.982 75.0443 12.8216 75.3535 11.7117 75.3535ZM29.7728 32.0004C20.8936 33.7016 6.31358 37.9802 4.24513 45.4033C1.97489 53.445 7.01987 65.3014 9.29012 70.044C9.64327 70.7656 10.1982 71.2811 10.955 71.4873C11.7117 71.6935 12.4685 71.642 13.1243 71.2296C17.917 68.2913 21.0954 65.2498 21.953 62.6724C24.0719 56.3318 28.8647 34.2171 28.9151 33.9593L28.9656 33.7016L29.7728 32.0004Z" fill="#47156C"/>
<path d="M98.275 75.8714C97.0642 75.8714 95.8534 75.5106 94.8444 74.7373C89.3454 70.768 82.4337 65.046 80.8193 60.3035C78.65 53.7567 76.6824 44.0138 76.5815 43.6014L80.1635 42.8282C80.1635 42.9313 82.131 52.7257 84.2499 59.0663C85.2085 61.9531 89.9508 66.6441 96.9128 71.6444C97.4678 72.0568 98.1236 72.1599 98.7795 72.0052C99.4353 71.8506 99.9903 71.3866 100.243 70.7165C101.352 68.2421 110.736 46.0758 91.8678 33.9101L93.8354 30.7656C101.907 35.9721 106.498 43.7045 107.154 53.1381C107.76 62.2624 104.581 70.0979 103.572 72.3145C102.815 73.9641 101.403 75.1497 99.738 75.6137C99.284 75.7683 98.7795 75.8714 98.275 75.8714Z" fill="#47156C"/>
<path d="M53.1301 111.754C51.1121 111.754 49.3463 110.723 48.3373 108.918L45.1086 103.196C44.0996 101.444 44.0996 99.3301 45.1086 97.5774C46.1176 95.8247 47.8833 94.7422 49.9013 94.7422H56.3589C58.3769 94.7422 60.1426 95.8247 61.1516 97.5774C62.1606 99.3301 62.1606 101.444 61.1516 103.196L57.9228 108.918C56.9138 110.671 55.1481 111.754 53.1301 111.754ZM49.9013 98.4537C48.9427 98.4537 48.4382 99.1239 48.2869 99.3816C48.1355 99.6909 47.7824 100.413 48.2869 101.289L51.5157 107.011C52.0202 107.887 52.8274 107.939 53.1301 107.939C53.4328 107.939 54.24 107.836 54.7445 107.011L57.9733 101.289C58.4778 100.413 58.1246 99.6909 57.9733 99.3816C57.6201 98.763 57.0147 98.4022 56.3589 98.4022H49.9013V98.4537Z" fill="#47156C"/>
<path d="M43.2942 79.118C42.6383 79.118 42.0329 78.8088 41.7302 78.1902C40.6203 76.2313 38.905 73.9116 36.887 73.9116C34.5159 73.9116 32.2457 77.0045 31.5394 78.1902C31.0349 79.0665 29.925 79.3758 29.0169 78.8603C28.1592 78.3448 27.8565 77.2107 28.361 76.2828C28.7142 75.6642 31.9934 70.1484 36.8366 70.1484C39.8131 70.1484 42.5374 72.2104 44.8077 76.2828C45.3122 77.1592 45.0095 78.3448 44.1518 78.8603C43.95 79.0665 43.6473 79.118 43.2942 79.118Z" fill="#47156C"/>
<path d="M78.7163 79.118C78.0604 79.118 77.455 78.8088 77.1523 78.1902C76.0424 76.2313 74.3272 73.9116 72.3092 73.9116C69.938 73.9116 67.6678 77.0045 66.9615 78.1902C66.457 79.0665 65.3471 79.3758 64.439 78.8603C63.5813 78.3448 63.2786 77.2107 63.7831 76.2828C64.1363 75.6642 67.4155 70.1484 72.2587 70.1484C75.2353 70.1484 77.9595 72.2104 80.2298 76.2828C80.7343 77.1592 80.4316 78.3448 79.5739 78.8603C79.3217 79.0665 79.019 79.118 78.7163 79.118Z" fill="#47156C"/>
<path d="M50.0473 158.098C39.3014 158.098 27.9502 158.098 18.2639 157.995H17.1035L16.599 156.912C8.72884 139.025 11.8063 124.9 15.7414 116.137C20.0296 106.703 26.1845 101.548 26.4367 101.291L28.7574 104.177C28.707 104.229 22.9557 109.126 19.0206 117.838C13.9252 129.127 14.0765 141.345 19.4747 154.232C45.4563 154.438 82.0829 154.283 89.5495 154.232C90.3567 151.345 92.1729 143.87 92.2233 135.365C92.3747 121.034 87.8342 110.621 78.7028 104.28L80.7712 101.188C90.8107 108.147 96.0575 120.003 95.8557 135.468C95.7044 146.963 92.7278 156.294 92.5765 156.655L92.1729 157.943H90.8612C90.6594 157.995 71.438 158.098 50.0473 158.098Z" fill="#47156C"/>
<path d="M37.3957 40.6107H37.2444C35.8822 40.6107 33.9147 40.4045 32.7543 38.9612C31.6444 37.6209 31.7958 35.8682 32.0985 34.3733C32.5021 32.3113 34.5201 30.4039 38.4047 28.6513C40.9777 27.4656 44.8623 25.816 48.2424 24.3211C50.8658 23.187 53.0856 22.2076 54.1451 21.7436C57.3234 20.2487 74.7286 19.4239 79.3195 19.2177L94.1014 9.99034C94.959 9.47485 96.0689 9.7326 96.6238 10.6089C97.1283 11.4853 96.8761 12.6194 96.0185 13.1864L80.4294 22.9293H79.9754C69.4314 23.3932 57.4748 24.3211 55.709 25.1459C54.6496 25.6614 52.3793 26.6408 49.7055 27.7749C46.3253 29.2183 42.4912 30.8679 39.9687 32.0535C36.0336 33.8578 35.7813 35.0949 35.7813 35.0949C35.5795 36.2806 35.6804 36.5899 35.6804 36.6414C35.6804 36.6414 35.9831 36.8992 37.1939 36.8992C43.5002 35.8166 52.7829 33.7031 52.8838 33.7031C53.8928 33.4969 54.8514 34.1155 55.0532 35.1465C55.255 36.1775 54.6496 37.1569 53.6406 37.3631C53.5397 37.3631 44.0047 39.5282 37.5975 40.6107H37.3957Z" fill="#47156C"/>
<path d="M75.0287 46.4413C74.7764 46.4413 74.4737 46.4413 74.2215 46.3898C72.8593 46.1836 65.7459 45.1526 57.2199 43.3999C55.4541 43.0391 53.8397 41.9565 52.8307 40.41C52.1749 39.3791 50.1064 36.2345 51.6704 33.9148C53.1839 31.6982 56.6145 32.3683 57.4217 32.523L67.3603 34.2757C68.3693 34.4303 69.0251 35.4097 68.8738 36.4407C68.7224 37.4717 67.7639 38.1419 66.7549 37.9872L56.6649 36.183C56.0595 36.0283 55.2019 35.9768 54.7983 36.0799C54.8487 36.3892 55.101 37.0593 55.9082 38.2965C56.4127 39.0182 57.1694 39.5337 58.0271 39.6883C66.4522 41.441 73.4647 42.472 74.8269 42.6267C75.3314 42.6782 75.7854 42.6267 76.189 42.3689C76.8449 42.0081 78.5601 41.0802 80.5277 39.6883C85.8754 35.8737 87.1871 34.7911 89.1546 33.09C89.5078 32.8323 89.8105 32.523 90.2141 32.1621C91.6267 30.9765 92.9384 30.0486 94.3005 29.2754L103.18 23.9142C104.037 23.3987 105.198 23.708 105.702 24.5843C106.207 25.4607 105.904 26.6463 105.046 27.1618L96.1167 32.523C94.9563 33.2447 93.7455 34.0695 92.5348 35.1004C92.1816 35.4097 91.8285 35.719 91.5258 35.9768C89.4573 37.7295 88.0952 38.9151 82.5961 42.7813C80.4772 44.2763 78.6106 45.3072 77.9043 45.6681C76.9457 46.2351 75.9872 46.4413 75.0287 46.4413Z" fill="#47156C"/>
<path d="M36.8894 24.7364C33.5093 24.7364 29.5237 21.128 26.9508 15.4575C25.5886 12.4161 24.8319 9.22003 24.9328 6.53946C25.0337 3.49804 26.0931 1.38451 27.9598 0.508169C30.5832 -0.780568 34.0138 0.869016 36.9903 4.63213C39.9668 0.817466 43.3974 -0.832117 46.0208 0.40507C47.8875 1.28141 48.9469 3.44649 49.0478 6.43636C49.0983 9.11693 48.392 12.313 47.0298 15.3544C44.81 20.2001 41.3794 23.757 38.2515 24.5302C37.7975 24.6849 37.3434 24.7364 36.8894 24.7364ZM29.8769 2.7248C29.5742 2.7248 29.3219 2.77635 29.0697 2.87945C28.1616 3.34339 27.5562 4.68368 27.5057 6.64256C27.4553 8.96229 28.0607 11.6944 29.2715 14.375C31.6931 19.7361 35.4768 22.6744 37.4948 22.0559L37.5957 22.0043C39.9164 21.4888 42.8425 18.2927 44.6587 14.2719C45.8695 11.5913 46.5253 8.85919 46.4244 6.53946C46.374 4.58058 45.819 3.24029 44.9109 2.77635C43.2461 2.0031 40.3704 4.01353 38.0497 7.57045L36.9903 9.22003L35.9308 7.57045C33.9633 4.58058 31.5417 2.7248 29.8769 2.7248Z" fill="#47156C"/>
</svg>
