<svg width="122" height="156" viewBox="0 0 122 156" fill="none" xmlns="http://www.w3.org/2000/svg">
<path d="M61.1427 123.283C58.0469 123.283 55.1058 122.56 52.8872 121.27C50.1526 119.669 48.6562 117.243 48.6562 114.403V94.6819C48.6562 93.701 49.4302 92.875 50.4621 92.875C51.4425 92.875 52.268 93.6494 52.268 94.6819V114.403C52.268 117.862 56.7569 119.721 61.1943 119.721C65.6316 119.721 70.1205 117.914 70.1205 114.403V94.8368C70.1205 93.8559 70.8945 93.0299 71.9264 93.0299C72.9067 93.0299 73.7323 93.8043 73.7323 94.8368V114.403C73.6291 120.547 67.1795 123.283 61.1427 123.283Z" fill="#47156C"/>
<path d="M121.252 155.344H0V136.087C0 132.938 1.34152 129.84 3.61177 127.62C17.3365 114.404 33.7443 105.886 49.8425 103.562L50.3584 107.073C34.9826 109.293 19.2972 117.502 6.08842 130.202C4.48892 131.751 3.56018 133.919 3.56018 136.087V151.782H117.692V134.332C117.692 131.802 116.557 129.479 114.596 127.93C108.56 123.232 92.3582 111.823 71.7711 108.106L72.3902 104.595C93.7513 108.467 110.572 120.238 116.763 125.142C119.601 127.362 121.252 130.718 121.252 134.332V155.344Z" fill="#47156C"/>
<path d="M36.9976 51.2165C35.4497 51.2165 34.5725 51.1132 34.4177 51.1132C33.4374 51.01 32.7666 50.0807 32.8698 49.0998C32.973 48.1189 33.9018 47.4477 34.8305 47.551C35.0885 47.6026 51.0319 49.2547 70.6387 35.5736C72.1866 34.4895 74.0956 34.3346 75.7983 35.109C77.501 35.8834 78.6361 37.4322 78.8425 39.2908C79.3069 43.1627 80.442 46.5701 89.3683 46.0022C90.3486 45.9506 91.1742 46.6733 91.2774 47.6543C91.3289 48.6352 90.6066 49.4612 89.6263 49.5644C80.6484 50.1323 76.2111 47.0864 75.334 39.7554C75.2308 38.8777 74.6116 38.5164 74.3536 38.4131C74.0956 38.3098 73.4249 38.0517 72.7025 38.568C56.3464 49.9258 42.5184 51.2165 36.9976 51.2165Z" fill="#47156C"/>
<path d="M99.1136 114.301C98.4944 114.301 97.9268 113.991 97.5657 113.424C97.0497 112.597 97.3593 111.462 98.1848 110.997C98.3396 110.894 108.607 104.44 111.29 82.9639C111.858 78.4723 110.826 73.8776 108.349 70.0572C100.868 58.4412 97.9268 49.6131 99.2684 43.0565C99.5264 41.7659 99.6811 40.3203 99.6295 38.6683C99.5779 33.2475 99.4748 24.2645 94.7794 16.9335C89.3102 8.41513 78.6297 3.92362 62.9959 3.56223L61.7575 3.66548C42.8215 4.8529 24.969 5.93706 24.2467 39.5459C24.1435 42.6952 24.2467 45.1732 24.3499 47.3932C24.7111 55.4985 24.8658 59.2157 15.1657 71.5544C14.8045 72.7934 14.0821 74.0841 13.2566 75.5813C9.54161 82.396 3.86597 92.7213 26.4138 111.152C27.1877 111.771 27.2909 112.907 26.6717 113.682C26.0526 114.456 24.9174 114.559 24.1435 113.94C13.3598 105.112 7.52934 97.0579 6.39421 89.3139C5.36228 82.5508 8.1485 77.5431 10.1092 73.9292C10.8831 72.5353 11.5539 71.2963 11.7603 70.367L11.8635 70.0056L12.1215 69.6958C21.2025 58.1831 21.0993 55.292 20.7897 47.5997C20.6865 45.3281 20.5833 42.7468 20.6865 39.4943C21.0477 23.0771 25.485 12.2355 34.2565 6.45332C41.996 1.34229 51.9541 0.722772 61.6027 0.103253L62.9959 0H63.0475C102.88 0.774398 103.138 27.3104 103.293 38.6167C103.293 40.5268 103.19 42.2305 102.829 43.7793C101.693 49.355 104.48 57.3055 111.394 68.0954C114.283 72.5869 115.521 78.0077 114.851 83.3769C111.91 106.764 100.507 113.733 99.9907 114.043C99.7327 114.25 99.4232 114.301 99.1136 114.301Z" fill="#47156C"/>
<path d="M61.1412 98.0898C43.8047 98.0898 29.7188 83.3762 29.7188 65.3069C29.7188 64.326 30.4927 63.5 31.5246 63.5C32.5566 63.5 33.3305 64.2744 33.3305 65.3069C33.3305 81.4144 45.8169 94.5276 61.1412 94.5276C76.4654 94.5276 88.9518 81.4144 88.9518 65.3069C88.9518 64.326 89.7258 63.5 90.7577 63.5C91.738 63.5 92.5636 64.2744 92.5636 65.3069C92.5636 83.3762 78.4777 98.0898 61.1412 98.0898Z" fill="#47156C"/>
<path d="M61.138 83.6839C61.0864 83.6839 61.0348 83.6839 60.9832 83.6839C54.1208 83.5806 49.2707 78.0049 49.0643 77.7984C48.4452 77.0757 48.4968 75.9399 49.2707 75.2687C49.9931 74.6492 51.1282 74.7008 51.799 75.4752C51.8506 75.5269 55.8751 80.07 61.0864 80.1216C61.138 80.1216 61.138 80.1216 61.1896 80.1216C64.2854 80.1216 67.2264 78.5212 70.0642 75.4236C70.735 74.7009 71.8701 74.6492 72.5925 75.2687C73.3148 75.9399 73.3664 77.0757 72.7472 77.7984C69.1355 81.7221 65.2657 83.6839 61.138 83.6839Z" fill="#47156C"/>
</svg>
