<svg width="141" height="141" viewBox="0 0 141 141" fill="none" xmlns="http://www.w3.org/2000/svg">
<path d="M68.6183 140.153H16.7431C7.52497 140.153 0 132.628 0 123.41V16.7431C0 7.52497 7.52497 0 16.7431 0H68.6183C77.8364 0 85.3614 7.52497 85.3614 16.7431V123.41C85.3614 127.925 83.6213 132.11 80.4702 135.261C77.3191 138.412 73.1333 140.153 68.6183 140.153ZM16.7431 3.43327C9.40621 3.43327 3.43327 9.40622 3.43327 16.7431V123.41C3.43327 130.746 9.40621 136.719 16.7431 136.719H68.6183C76.0963 136.719 81.9281 130.887 81.9281 123.41V16.7431C81.9281 9.40622 75.9552 3.43327 68.6183 3.43327H16.7431Z" fill="#47156C"/>
<path d="M50.7916 10.2501H34.754C30.192 10.2501 26.4766 6.53467 26.4766 1.97266H59.0691C58.975 6.53467 55.3536 10.2501 50.7916 10.2501Z" fill="#47156C"/>
<path d="M42.7055 96.6454C28.0318 96.6454 16.0859 84.6995 16.0859 70.0258C16.0859 55.3521 28.0318 43.4062 42.7055 43.4062C57.3792 43.4062 69.3251 55.3521 69.3251 70.0258C69.3251 84.6995 57.3792 96.6454 42.7055 96.6454ZM42.7055 46.8395C29.9131 46.8395 19.5192 57.2334 19.5192 70.0258C19.5192 82.8183 29.9131 93.2122 42.7055 93.2122C55.498 93.2122 65.8919 82.8183 65.8919 70.0258C65.8919 57.2334 55.451 46.8395 42.7055 46.8395Z" fill="#47156C"/>
<path d="M40.1676 77.3175C39.4621 77.3175 38.7566 77.0824 38.2863 76.565L32.5485 70.8272C31.8901 70.1688 31.8901 69.0401 32.5485 68.3816C33.2069 67.7232 34.3357 67.7232 34.9941 68.3816L40.2146 73.6021L50.4674 63.3493C51.1258 62.6909 52.2545 62.6909 52.913 63.3493C53.5714 64.0077 53.5714 65.1365 52.913 65.7949L42.0958 76.6121C41.5315 77.0824 40.826 77.3175 40.1676 77.3175Z" fill="#47156C"/>
<path d="M64.997 124.023H20.5527C19.612 124.023 18.8125 123.271 18.8125 122.283C18.8125 121.343 19.565 120.543 20.5527 120.543H64.997C65.9376 120.543 66.7372 121.295 66.7372 122.283C66.6901 123.271 65.9376 124.023 64.997 124.023Z" fill="#47156C"/>
<path d="M137.423 36.8709H84.6542C83.7136 36.8709 82.9141 36.1184 82.9141 35.1308C82.9141 34.1431 83.6666 33.3906 84.6542 33.3906H137.423C138.364 33.3906 139.163 34.1431 139.163 35.1308C139.163 36.1184 138.364 36.8709 137.423 36.8709Z" fill="#47156C"/>
<path d="M137.423 55.0272H84.6542C83.7136 55.0272 82.9141 54.2747 82.9141 53.287C82.9141 52.2994 83.6666 51.5469 84.6542 51.5469H137.423C138.364 51.5469 139.163 52.2994 139.163 53.287C139.163 54.2747 138.364 55.0272 137.423 55.0272Z" fill="#47156C"/>
<path d="M129.43 124.725H84.6562V121.292H129.43C133.475 121.292 136.72 118 136.72 114.002V32.2621C136.72 28.2175 133.427 24.9723 129.43 24.9723H84.6562V21.5391H129.43C135.356 21.5391 140.2 26.3833 140.2 32.3092V113.955C140.153 119.881 135.356 124.725 129.43 124.725Z" fill="#47156C"/>
<path d="M126.89 109.489H102.669C100.552 109.489 98.9531 107.796 98.9531 105.774V98.7662C98.9531 96.6498 100.646 95.0508 102.669 95.0508H126.89C129.006 95.0508 130.605 96.7439 130.605 98.7662V105.774C130.605 107.796 128.912 109.489 126.89 109.489Z" fill="#47156C"/>
</svg>
