<svg width="111" height="148" viewBox="0 0 111 148" fill="none" xmlns="http://www.w3.org/2000/svg">
<path d="M39.9568 101.809C39.996 100.952 38.5738 100.191 36.7802 100.109C34.9866 100.027 33.5008 100.655 33.4616 101.512C33.4224 102.368 34.8446 103.129 36.6382 103.211C38.4318 103.293 39.9176 102.665 39.9568 101.809Z" fill="#47156C"/>
<path d="M36.1904 110.714L34.4922 110.035C35.1229 108.531 35.6567 105.814 36.0448 102.176L37.8886 102.37C37.4519 106.203 36.9182 109.016 36.1904 110.714Z" fill="#47156C"/>
<path d="M31.878 126.719C28.3361 126.719 24.8426 126.136 21.5918 124.924C14.9446 122.449 10.1411 117.792 8.10331 111.727C6.01696 105.663 6.98736 99.0649 10.7234 93.0491C14.4109 87.1787 20.3788 82.5698 27.5112 80.144C42.4068 75.0499 57.9817 80.9202 62.2029 93.2916C66.4241 105.615 57.7391 119.781 42.795 124.875C39.156 126.136 35.4685 126.719 31.878 126.719ZM38.3797 82.0846C35.2259 82.0846 31.9265 82.6183 28.6757 83.7341C22.3196 85.9173 17.0795 89.9441 13.8772 95.0867C10.7234 100.132 9.94707 105.615 11.6453 110.563C13.3435 115.512 17.3221 119.393 22.9018 121.43C28.5787 123.517 35.2259 123.517 41.5334 121.333C54.4882 116.919 62.1058 104.887 58.5639 94.553C55.9438 86.7421 47.7925 82.0846 38.3797 82.0846Z" fill="#47156C"/>
<path d="M9.79999 95.4751L7.95624 83.0552C7.81068 82.4245 7.47104 80.3868 8.87812 79.174C9.89703 78.3007 11.3526 78.2522 13.1479 79.0284C16.5442 80.5324 23.24 82.5215 23.2885 82.5215L22.2211 86.1602C21.9299 86.0631 15.3798 84.1225 11.6923 82.5215L13.536 94.9414L9.79999 95.4751Z" fill="#47156C"/>
<path d="M50.1234 83.883C50.1234 83.8344 49.4441 78.8859 48.8619 74.9561C48.8133 74.568 48.7163 74.2769 48.6678 73.9858L41.9235 81.4572L39.1094 78.9344L46.0962 71.2205C46.824 70.1531 48.037 69.1343 49.4926 69.4254C51.579 69.8135 52.2582 72.2878 52.5979 74.374C53.1801 78.3522 53.8594 83.3493 53.8594 83.3978L50.1234 83.883Z" fill="#47156C"/>
<path d="M23.8672 102.027C25.3946 102.027 26.6328 100.789 26.6328 99.2615C26.6328 97.7342 25.3946 96.4961 23.8672 96.4961C22.3398 96.4961 21.1016 97.7342 21.1016 99.2615C21.1016 100.789 22.3398 102.027 23.8672 102.027Z" fill="#47156C"/>
<path d="M45.6094 97.4721C47.1368 97.4721 48.375 96.234 48.375 94.7068C48.375 93.1795 47.1368 91.9414 45.6094 91.9414C44.082 91.9414 42.8438 93.1795 42.8438 94.7068C42.8438 96.234 44.082 97.4721 45.6094 97.4721Z" fill="#47156C"/>
<path d="M36.8778 111.39C31.6861 111.39 29.4057 108.188 29.2602 107.994C28.969 107.558 29.0661 107.024 29.5028 106.733C29.9394 106.442 30.4732 106.539 30.7643 106.975C30.9098 107.169 33.9666 111.293 41.3901 108.77C41.8753 108.625 42.409 108.867 42.5546 109.353C42.7001 109.838 42.4575 110.371 41.9723 110.517C40.0315 111.099 38.3334 111.39 36.8778 111.39Z" fill="#47156C"/>
<path d="M1.89055 111.879C1.45387 111.879 1.06571 111.588 0.920155 111.151C0.774595 110.617 1.06571 110.084 1.59943 109.938L17.9506 105.135C18.4843 104.989 19.018 105.281 19.1636 105.814C19.3092 106.348 19.018 106.882 18.4843 107.027L2.13315 111.83C2.08463 111.879 1.98759 111.879 1.89055 111.879Z" fill="#47156C"/>
<path d="M7.47297 117.748C7.13333 117.748 6.84221 117.602 6.64813 117.311C6.35701 116.874 6.45405 116.244 6.93925 115.953L18.2929 108.336C18.7296 108.045 19.3603 108.142 19.6514 108.627C19.9426 109.063 19.8455 109.694 19.3603 109.985L8.00668 117.602C7.86112 117.699 7.66705 117.748 7.47297 117.748Z" fill="#47156C"/>
<path d="M11.5974 121.966C11.3548 121.966 11.1122 121.869 10.9181 121.675C10.5299 121.287 10.4814 120.656 10.8696 120.268L19.409 111.195C19.7972 110.807 20.428 110.759 20.8161 111.147C21.2043 111.535 21.2528 112.166 20.8646 112.554L12.3251 121.626C12.1311 121.82 11.8885 121.966 11.5974 121.966Z" fill="#47156C"/>
<path d="M52.1577 100.036C51.7695 100.036 51.4299 99.842 51.2358 99.4539C50.9932 98.9687 51.2358 98.3865 51.721 98.144L65.1125 92.0795C65.5976 91.837 66.1799 92.0795 66.4225 92.5647C66.6651 93.0498 66.4225 93.632 65.9373 93.8746L52.5458 99.939C52.4488 100.036 52.3032 100.036 52.1577 100.036Z" fill="#47156C"/>
<path d="M65.5995 102.997L53.0329 102.657C52.4992 102.657 52.0625 102.172 52.0625 101.638C52.0625 101.105 52.5477 100.668 53.0814 100.668L65.5995 101.008C66.1332 101.008 66.5699 101.493 66.5699 102.026C66.6184 102.609 66.1332 102.997 65.5995 102.997Z" fill="#47156C"/>
<path d="M64.3835 108.525C64.2865 108.525 64.1895 108.525 64.0924 108.477L53.1755 104.984C52.6417 104.838 52.3506 104.256 52.5447 103.722C52.6903 103.189 53.2725 102.898 53.8062 103.092L64.7232 106.585C65.2569 106.73 65.548 107.312 65.3539 107.846C65.1598 108.234 64.7717 108.525 64.3835 108.525Z" fill="#47156C"/>
<path d="M88.1572 147.052C81.9952 147.052 74.4261 140.308 69.7197 130.169C64.0914 118.088 64.8192 106.202 71.3209 103.146C76.2213 100.914 82.626 104.068 88.1087 111.248C93.5914 104.165 100.142 100.914 104.945 103.097C106.934 104.019 108.487 105.814 109.36 108.24C111.35 113.625 110.282 122.018 106.546 130.12C102.471 138.95 96.0659 145.451 90.2436 146.761C89.6613 146.955 88.9335 147.052 88.1572 147.052ZM74.6687 106.202C74.038 106.202 73.5042 106.299 72.9705 106.542C69.0889 108.337 68.2156 117.846 73.2131 128.568C78.1136 139.096 85.3916 144.287 89.3702 143.122L89.5158 143.074C94.1737 142.055 99.7049 136.233 103.247 128.519C106.498 121.436 107.565 113.965 105.915 109.55C105.333 108.046 104.508 107.027 103.441 106.542C100.045 104.989 94.2707 108.774 89.7584 115.517L88.2057 117.894L86.6531 115.517C82.7715 109.792 78.0651 106.202 74.6687 106.202Z" fill="#47156C"/>
<path d="M59.5362 71.709C56.8676 71.709 54.102 70.9327 51.4819 69.3802C47.5518 67.1 44.1554 63.3158 41.9235 58.7554L41.875 58.6098C37.2171 46.4325 36.6834 40.8532 36.3438 37.1176V36.9235L40.1283 36.5839V36.778C40.4679 40.2711 40.9531 45.5592 45.417 57.2029C48.9104 64.1406 56.2854 70.0595 63.1752 67.2941C69.7254 64.6743 72.6851 58.9494 75.6933 49.9256C78.7015 40.7077 80.1086 34.4977 80.1086 34.4492L83.7961 35.274C83.7476 35.5166 82.3405 41.7265 79.2838 51.09C76.6152 59.1435 73.3158 67.2941 64.5823 70.7872C62.9326 71.4179 61.2344 71.709 59.5362 71.709Z" fill="#47156C"/>
<path d="M33.5277 41.3832C33.0425 41.3832 32.6058 41.3346 32.1691 41.1891C30.9561 40.801 29.9372 39.9762 29.4035 38.8118C27.0745 34.0573 24.6486 27.3137 26.1527 22.0741C28.4331 14.069 44.6872 11.8373 46.531 11.5948L47.6955 11.4492L50.17 15.1364L46.9677 17.2711L46.7736 17.0285L46.7251 17.077C46.3369 18.9206 43.7168 30.4672 42.5038 34.1059C41.582 36.9683 38.3797 39.297 35.8566 40.7525C35.1774 41.1406 34.3525 41.3832 33.5277 41.3832ZM43.1346 16.0097C37.4578 17.2225 30.762 19.6968 29.7917 23.0929C28.5787 27.3622 31.1502 33.7177 32.7999 37.1138C32.9454 37.4049 33.1395 37.5019 33.2851 37.5504C33.5277 37.6475 33.7703 37.599 34.0129 37.4534C36.6815 35.9009 38.5252 34.2029 38.9619 32.893C40.2234 29.2543 42.989 16.5918 43.1346 16.0097Z" fill="#47156C"/>
<path d="M88.2073 41.3363C87.3824 41.3363 86.5576 41.1422 85.8298 40.7056C83.3068 39.2501 80.1044 36.8729 79.1826 34.0105C77.9696 30.4203 75.398 18.9222 74.9613 17.0301L71.9531 15.7202L73.8454 11.4023L75.2525 11.5964C77.0962 11.839 93.3018 14.0222 95.6308 22.0757C97.1349 27.3154 94.7089 34.059 92.38 38.765C91.7977 39.9293 90.8273 40.8026 89.6143 41.1422C89.1291 41.2393 88.6439 41.3363 88.2073 41.3363ZM78.6003 15.9628C78.7459 16.545 81.5115 29.2075 82.773 32.7976C83.2097 34.156 85.0535 35.8541 87.7221 37.4065C87.9647 37.5521 88.2073 37.5521 88.4499 37.5036C88.5954 37.4551 88.7895 37.358 88.935 37.0669C90.5847 33.6709 93.1563 27.3639 91.9433 23.046C90.9729 19.6499 84.2771 17.1757 78.6003 15.9628Z" fill="#47156C"/>
<path d="M58.513 62.7771C57.0088 62.7771 55.6503 62.0009 54.9225 60.691L53.0302 57.3919C52.3024 56.082 52.3024 54.5295 53.0302 53.2681C53.758 52.0067 55.1166 51.2305 56.5722 51.2305H60.4538C61.9579 51.2305 63.2679 52.0067 63.9957 53.3166C64.7235 54.6265 64.7235 56.1305 63.9957 57.4404L62.1034 60.7395C61.3271 62.0009 60.0171 62.7771 58.513 62.7771ZM56.5722 54.9661C56.5236 54.9661 56.3781 54.9661 56.281 55.1117C56.2325 55.2087 56.2325 55.3543 56.281 55.4513L58.1733 58.7503C58.3189 58.9929 58.6585 58.9929 58.7556 58.7503L60.6964 55.4028C60.7449 55.3058 60.7449 55.1602 60.6964 55.0632C60.6478 54.9661 60.5508 54.9176 60.4052 54.9176H56.5722V54.9661Z" fill="#47156C"/>
<path d="M52.5999 43.5656C51.9691 43.5656 51.3384 43.226 50.9502 42.6438C50.1739 41.2854 49.3491 40.5091 48.7183 40.5091C47.8449 40.5091 46.6805 41.7705 46.1467 42.6438C45.613 43.5171 44.4486 43.8567 43.5752 43.323C42.7018 42.7893 42.3622 41.625 42.8959 40.7517C43.1385 40.3636 45.3219 36.7734 48.7183 36.7734C50.8046 36.7734 52.6969 38.1319 54.2495 40.7517C54.7833 41.6735 54.4921 42.7893 53.5703 43.323C53.2306 43.4685 52.891 43.5656 52.5999 43.5656Z" fill="#47156C"/>
<path d="M73.9449 43.5656C73.3141 43.5656 72.6833 43.226 72.2952 42.6438C71.5189 41.2854 70.694 40.5091 70.0633 40.5091C69.1414 40.5091 67.9284 41.9161 67.5402 42.6438C67.0065 43.5656 65.8421 43.8567 64.9687 43.323C64.0468 42.7893 63.7557 41.625 64.2894 40.7517C64.532 40.3636 66.7154 36.7734 70.1118 36.7734C72.1982 36.7734 74.0904 38.1319 75.6431 40.7517C76.1768 41.6735 75.8857 42.7893 74.9638 43.323C74.5756 43.4685 74.236 43.5656 73.9449 43.5656Z" fill="#47156C"/>
<path d="M76.9523 20.8593C59.1456 9.36122 45.8997 20.1801 45.7541 20.2772L43.3281 17.3662C43.4737 17.2207 47.3067 14.0672 53.6143 12.5632C59.3882 11.1563 68.5099 10.9137 78.9902 17.7059L76.9523 20.8593Z" fill="#47156C"/>
<path d="M76.7098 145.546H20.1357C9.02468 145.546 0 134.387 0 120.706V24.8398C0 11.1585 9.02468 0 20.1357 0H82.8233C93.9343 0 102.959 11.1585 102.959 24.8398V100.281C102.959 101.348 102.134 102.173 101.067 102.173C99.9993 102.173 99.1745 101.348 99.1745 100.281V24.8398C99.1745 13.2447 91.848 3.78419 82.8233 3.78419H20.1357C11.111 3.78419 3.78454 13.2447 3.78454 24.8398V120.706C3.78454 132.301 11.111 141.762 20.1357 141.762H76.7098C77.7772 141.762 78.6021 142.586 78.6021 143.654C78.6021 144.721 77.7287 145.546 76.7098 145.546Z" fill="#47156C"/>
</svg>
